<?xml version="1.0" encoding="utf-8"?>
<COLLADA xmlns="http://www.collada.org/2005/11/COLLADASchema" version="1.4.1">
  <asset><unit name="meter" meter="1"/><up_axis>Z_UP</up_axis></asset>
  <library_images></library_images>
  <library_effects><effect id="tray-effect"><profile_COMMON><technique sid="common"><lambert><diffuse><color sid="diffuse">0.1 0.33 0.72 1</color></diffuse></lambert></technique></profile_COMMON></effect><effect id="rail-effect"><profile_COMMON><technique sid="common"><lambert><diffuse><color sid="diffuse">0.18 0.19 0.21 1</color></diffuse></lambert></technique></profile_COMMON></effect></library_effects>
  <library_materials><material id="tray-material" name="tray"><instance_effect url="#tray-effect"/></material><material id="rail-material" name="rail"><instance_effect url="#rail-effect"/></material></library_materials>
  <library_geometries><geometry id="m-mesh" name="mesh"><mesh>
    <source id="m-positions"><float_array id="m-positions-array" count="360">-0.47 -0.41 0 -0.47 0.41 0 -0.47 0.41 -0.02 -0.47 -0.41 -0.02 0.47 -0.41 -0.02 0.47 0.41 -0.02 0.47 0.41 0 0.47 -0.41 0 0.47 -0.41 -0.02 0.47 -0.41 0 -0.47 -0.41 0 -0.47 -0.41 -0.02 -0.47 0.41 -0.02 -0.47 0.41 0 0.47 0.41 0 0.47 0.41 -0.02 -0.47 0.41 -0.02 0.47 0.41 -0.02 0.47 -0.41 -0.02 -0.47 -0.41 -0.02 -0.47 -0.41 0 0.47 -0.41 0 0.47 0.41 0 -0.47 0.41 0 -0.495 -0.42 0.12 -0.495 0.42 0.12 -0.495 0.42 0.04 -0.495 -0.42 0.04 -0.475 -0.42 0.04 -0.475 0.42 0.04 -0.475 0.42 0.12 -0.475 -0.42 0.12 -0.475 -0.42 0.04 -0.475 -0.42 0.12 -0.495 -0.42 0.12 -0.495 -0.42 0.04 -0.495 0.42 0.04 -0.495 0.42 0.12 -0.475 0.42 0.12 -0.475 0.42 0.04 -0.495 0.42 0.04 -0.475 0.42 0.04 -0.475 -0.42 0.04 -0.495 -0.42 0.04 -0.495 -0.42 0.12 -0.475 -0.42 0.12 -0.475 0.42 0.12 -0.495 0.42 0.12 -0.505 -0.43 0.2 -0.505 -0.37 0.2 -0.505 -0.37 -0.02 -0.505 -0.43 -0.02 -0.47 -0.43 -0.02 -0.47 -0.37 -0.02 -0.47 -0.37 0.2 -0.47 -0.43 0.2 -0.47 -0.43 -0.02 -0.47 -0.43 0.2 -0.505 -0.43 0.2 -0.505 -0.43 -0.02 -0.505 -0.37 -0.02 -0.505 -0.37 0.2 -0.47 -0.37 0.2 -0.47 -0.37 -0.02 -0.505 -0.37 -0.02 -0.47 -0.37 -0.02 -0.47 -0.43 -0.02 -0.505 -0.43 -0.02 -0.505 -0.43 0.2 -0.47 -0.43 0.2 -0.47 -0.37 0.2 -0.505 -0.37 0.2 0.475 -0.42 0.12 0.475 0.42 0.12 0.475 0.42 0.04 0.475 -0.42 0.04 0.495 -0.42 0.04 0.495 0.42 0.04 0.495 0.42 0.12 0.495 -0.42 0.12 0.495 -0.42 0.04 0.495 -0.42 0.12 0.475 -0.42 0.12 0.475 -0.42 0.04 0.475 0.42 0.04 0.475 0.42 0.12 0.495 0.42 0.12 0.495 0.42 0.04 0.475 0.42 0.04 0.495 0.42 0.04 0.495 -0.42 0.04 0.475 -0.42 0.04 0.475 -0.42 0.12 0.495 -0.42 0.12 0.495 0.42 0.12 0.475 0.42 0.12 -0.505 0.37 0.2 -0.505 0.43 0.2 -0.505 0.43 -0.02 -0.505 0.37 -0.02 -0.47 0.37 -0.02 -0.47 0.43 -0.02 -0.47 0.43 0.2 -0.47 0.37 0.2 -0.47 0.37 -0.02 -0.47 0.37 0.2 -0.505 0.37 0.2 -0.505 0.37 -0.02 -0.505 0.43 -0.02 -0.505 0.43 0.2 -0.47 0.43 0.2 -0.47 0.43 -0.02 -0.505 0.43 -0.02 -0.47 0.43 -0.02 -0.47 0.37 -0.02 -0.505 0.37 -0.02 -0.505 0.37 0.2 -0.47 0.37 0.2 -0.47 0.43 0.2 -0.505 0.43 0.2</float_array><technique_common><accessor source="#m-positions-array" count="120" stride="3"><param name="X" type="float"/><param name="Y" type="float"/><param name="Z" type="float"/></accessor></technique_common></source>
    <source id="m-normals"><float_array id="m-normals-array" count="90">-1 0 0 1 0 0 0 -1 0 0 1 0 0 0 -1 0 0 1 -1 0 0 1 0 0 0 -1 0 0 1 0 0 0 -1 0 0 1 -1 0 0 1 0 0 0 -1 0 0 1 0 0 0 -1 0 0 1 -1 0 0 1 0 0 0 -1 0 0 1 0 0 0 -1 0 0 1 -1 0 0 1 0 0 0 -1 0 0 1 0 0 0 -1 0 0 1</float_array><technique_common><accessor source="#m-normals-array" count="30" stride="3"><param name="X" type="float"/><param name="Y" type="float"/><param name="Z" type="float"/></accessor></technique_common></source>
    <source id="m-uv"><float_array id="m-uv-array" count="240">0.5 0.5 0.5 0.5 0.5 0.5 0.5 0.5 0.5 0.5 0.5 0.5 0.5 0.5 0.5 0.5 0.5 0.5 0.5 0.5 0.5 0.5 0.5 0.5 0.5 0.5 0.5 0.5 0.5 0.5 0.5 0.5 0.5 0.5 0.5 0.5 0.5 0.5 0.5 0.5 0.5 0.5 0.5 0.5 0.5 0.5 0.5 0.5 0.5 0.5 0.5 0.5 0.5 0.5 0.5 0.5 0.5 0.5 0.5 0.5 0.5 0.5 0.5 0.5 0.5 0.5 0.5 0.5 0.5 0.5 0.5 0.5 0.5 0.5 0.5 0.5 0.5 0.5 0.5 0.5 0.5 0.5 0.5 0.5 0.5 0.5 0.5 0.5 0.5 0.5 0.5 0.5 0.5 0.5 0.5 0.5 0.5 0.5 0.5 0.5 0.5 0.5 0.5 0.5 0.5 0.5 0.5 0.5 0.5 0.5 0.5 0.5 0.5 0.5 0.5 0.5 0.5 0.5 0.5 0.5 0.5 0.5 0.5 0.5 0.5 0.5 0.5 0.5 0.5 0.5 0.5 0.5 0.5 0.5 0.5 0.5 0.5 0.5 0.5 0.5 0.5 0.5 0.5 0.5 0.5 0.5 0.5 0.5 0.5 0.5 0.5 0.5 0.5 0.5 0.5 0.5 0.5 0.5 0.5 0.5 0.5 0.5 0.5 0.5 0.5 0.5 0.5 0.5 0.5 0.5 0.5 0.5 0.5 0.5 0.5 0.5 0.5 0.5 0.5 0.5 0.5 0.5 0.5 0.5 0.5 0.5 0.5 0.5 0.5 0.5 0.5 0.5 0.5 0.5 0.5 0.5 0.5 0.5 0.5 0.5 0.5 0.5 0.5 0.5 0.5 0.5 0.5 0.5 0.5 0.5 0.5 0.5 0.5 0.5 0.5 0.5 0.5 0.5 0.5 0.5 0.5 0.5 0.5 0.5 0.5 0.5 0.5 0.5 0.5 0.5 0.5 0.5 0.5 0.5 0.5 0.5 0.5 0.5 0.5 0.5</float_array><technique_common><accessor source="#m-uv-array" count="120" stride="2"><param name="S" type="float"/><param name="T" type="float"/></accessor></technique_common></source>
    <vertices id="m-vertices"><input semantic="POSITION" source="#m-positions"/></vertices>
    <triangles material="tray-material" count="12"><input semantic="VERTEX" source="#m-vertices" offset="0"/><input semantic="NORMAL" source="#m-normals" offset="1"/><input semantic="TEXCOORD" source="#m-uv" offset="2" set="0"/><p>0 0 0 1 0 1 2 0 2 0 0 0 2 0 2 3 0 3 4 1 4 5 1 5 6 1 6 4 1 4 6 1 6 7 1 7 8 2 8 9 2 9 10 2 10 8 2 8 10 2 10 11 2 11 12 3 12 13 3 13 14 3 14 12 3 12 14 3 14 15 3 15 16 4 16 17 4 17 18 4 18 16 4 16 18 4 18 19 4 19 20 5 20 21 5 21 22 5 22 20 5 20 22 5 22 23 5 23</p></triangles><triangles material="rail-material" count="48"><input semantic="VERTEX" source="#m-vertices" offset="0"/><input semantic="NORMAL" source="#m-normals" offset="1"/><input semantic="TEXCOORD" source="#m-uv" offset="2" set="0"/><p>24 6 24 25 6 25 26 6 26 24 6 24 26 6 26 27 6 27 28 7 28 29 7 29 30 7 30 28 7 28 30 7 30 31 7 31 32 8 32 33 8 33 34 8 34 32 8 32 34 8 34 35 8 35 36 9 36 37 9 37 38 9 38 36 9 36 38 9 38 39 9 39 40 10 40 41 10 41 42 10 42 40 10 40 42 10 42 43 10 43 44 11 44 45 11 45 46 11 46 44 11 44 46 11 46 47 11 47 48 12 48 49 12 49 50 12 50 48 12 48 50 12 50 51 12 51 52 13 52 53 13 53 54 13 54 52 13 52 54 13 54 55 13 55 56 14 56 57 14 57 58 14 58 56 14 56 58 14 58 59 14 59 60 15 60 61 15 61 62 15 62 60 15 60 62 15 62 63 15 63 64 16 64 65 16 65 66 16 66 64 16 64 66 16 66 67 16 67 68 17 68 69 17 69 70 17 70 68 17 68 70 17 70 71 17 71 72 18 72 73 18 73 74 18 74 72 18 72 74 18 74 75 18 75 76 19 76 77 19 77 78 19 78 76 19 76 78 19 78 79 19 79 80 20 80 81 20 81 82 20 82 80 20 80 82 20 82 83 20 83 84 21 84 85 21 85 86 21 86 84 21 84 86 21 86 87 21 87 88 22 88 89 22 89 90 22 90 88 22 88 90 22 90 91 22 91 92 23 92 93 23 93 94 23 94 92 23 92 94 23 94 95 23 95 96 24 96 97 24 97 98 24 98 96 24 96 98 24 98 99 24 99 100 25 100 101 25 101 102 25 102 100 25 100 102 25 102 103 25 103 104 26 104 105 26 105 106 26 106 104 26 104 106 26 106 107 26 107 108 27 108 109 27 109 110 27 110 108 27 108 110 27 110 111 27 111 112 28 112 113 28 113 114 28 114 112 28 112 114 28 114 115 28 115 116 29 116 117 29 117 118 29 118 116 29 116 118 29 118 119 29 119</p></triangles>
  </mesh></geometry></library_geometries>
  <library_visual_scenes><visual_scene id="Scene" name="Scene">
    <node id="mesh" name="mesh"><instance_geometry url="#m-mesh"><bind_material><technique_common>
      <instance_material symbol="tray-material" target="#tray-material"><bind_vertex_input semantic="UVSET0" input_semantic="TEXCOORD" input_set="0"/></instance_material><instance_material symbol="rail-material" target="#rail-material"><bind_vertex_input semantic="UVSET0" input_semantic="TEXCOORD" input_set="0"/></instance_material>
    </technique_common></bind_material></instance_geometry></node>
  </visual_scene></library_visual_scenes>
  <scene><instance_visual_scene url="#Scene"/></scene>
</COLLADA>
