<?xml version="1.0" encoding="utf-8"?>
<COLLADA xmlns="http://www.collada.org/2005/11/COLLADASchema" version="1.4.1">
  <asset><unit name="meter" meter="1"/><up_axis>Z_UP</up_axis></asset>
  <library_images></library_images>
  <library_effects><effect id="stage-effect"><profile_COMMON><technique sid="common"><lambert><diffuse><color sid="diffuse">0.62 0.64 0.66 1</color></diffuse></lambert></technique></profile_COMMON></effect></library_effects>
  <library_materials><material id="stage-material" name="stage"><instance_effect url="#stage-effect"/></material></library_materials>
  <library_geometries><geometry id="m-mesh" name="mesh"><mesh>
    <source id="m-positions"><float_array id="m-positions-array" count="144">-0.475 -0.42 0.115 -0.475 0.42 0.115 -0.475 0.42 0.045 -0.475 -0.42 0.045 -0.455 -0.42 0.045 -0.455 0.42 0.045 -0.455 0.42 0.115 -0.455 -0.42 0.115 -0.455 -0.42 0.045 -0.455 -0.42 0.115 -0.475 -0.42 0.115 -0.475 -0.42 0.045 -0.475 0.42 0.045 -0.475 0.42 0.115 -0.455 0.42 0.115 -0.455 0.42 0.045 -0.475 0.42 0.045 -0.455 0.42 0.045 -0.455 -0.42 0.045 -0.475 -0.42 0.045 -0.475 -0.42 0.115 -0.455 -0.42 0.115 -0.455 0.42 0.115 -0.475 0.42 0.115 0.455 -0.42 0.115 0.455 0.42 0.115 0.455 0.42 0.045 0.455 -0.42 0.045 0.475 -0.42 0.045 0.475 0.42 0.045 0.475 0.42 0.115 0.475 -0.42 0.115 0.475 -0.42 0.045 0.475 -0.42 0.115 0.455 -0.42 0.115 0.455 -0.42 0.045 0.455 0.42 0.045 0.455 0.42 0.115 0.475 0.42 0.115 0.475 0.42 0.045 0.455 0.42 0.045 0.475 0.42 0.045 0.475 -0.42 0.045 0.455 -0.42 0.045 0.455 -0.42 0.115 0.475 -0.42 0.115 0.475 0.42 0.115 0.455 0.42 0.115</float_array><technique_common><accessor source="#m-positions-array" count="48" stride="3"><param name="X" type="float"/><param name="Y" type="float"/><param name="Z" type="float"/></accessor></technique_common></source>
    <source id="m-normals"><float_array id="m-normals-array" count="36">-1 0 0 1 0 0 0 -1 0 0 1 0 0 0 -1 0 0 1 -1 0 0 1 0 0 0 -1 0 0 1 0 0 0 -1 0 0 1</float_array><technique_common><accessor source="#m-normals-array" count="12" stride="3"><param name="X" type="float"/><param name="Y" type="float"/><param name="Z" type="float"/></accessor></technique_common></source>
    <source id="m-uv"><float_array id="m-uv-array" count="96">0.5 0.5 0.5 0.5 0.5 0.5 0.5 0.5 0.5 0.5 0.5 0.5 0.5 0.5 0.5 0.5 0.5 0.5 0.5 0.5 0.5 0.5 0.5 0.5 0.5 0.5 0.5 0.5 0.5 0.5 0.5 0.5 0.5 0.5 0.5 0.5 0.5 0.5 0.5 0.5 0.5 0.5 0.5 0.5 0.5 0.5 0.5 0.5 0.5 0.5 0.5 0.5 0.5 0.5 0.5 0.5 0.5 0.5 0.5 0.5 0.5 0.5 0.5 0.5 0.5 0.5 0.5 0.5 0.5 0.5 0.5 0.5 0.5 0.5 0.5 0.5 0.5 0.5 0.5 0.5 0.5 0.5 0.5 0.5 0.5 0.5 0.5 0.5 0.5 0.5 0.5 0.5 0.5 0.5 0.5 0.5</float_array><technique_common><accessor source="#m-uv-array" count="48" stride="2"><param name="S" type="float"/><param name="T" type="float"/></accessor></technique_common></source>
    <vertices id="m-vertices"><input semantic="POSITION" source="#m-positions"/></vertices>
    <triangles material="stage-material" count="24"><input semantic="VERTEX" source="#m-vertices" offset="0"/><input semantic="NORMAL" source="#m-normals" offset="1"/><input semantic="TEXCOORD" source="#m-uv" offset="2" set="0"/><p>0 0 0 1 0 1 2 0 2 0 0 0 2 0 2 3 0 3 4 1 4 5 1 5 6 1 6 4 1 4 6 1 6 7 1 7 8 2 8 9 2 9 10 2 10 8 2 8 10 2 10 11 2 11 12 3 12 13 3 13 14 3 14 12 3 12 14 3 14 15 3 15 16 4 16 17 4 17 18 4 18 16 4 16 18 4 18 19 4 19 20 5 20 21 5 21 22 5 22 20 5 20 22 5 22 23 5 23 24 6 24 25 6 25 26 6 26 24 6 24 26 6 26 27 6 27 28 7 28 29 7 29 30 7 30 28 7 28 30 7 30 31 7 31 32 8 32 33 8 33 34 8 34 32 8 32 34 8 34 35 8 35 36 9 36 37 9 37 38 9 38 36 9 36 38 9 38 39 9 39 40 10 40 41 10 41 42 10 42 40 10 40 42 10 42 43 10 43 44 11 44 45 11 45 46 11 46 44 11 44 46 11 46 47 11 47</p></triangles>
  </mesh></geometry></library_geometries>
  <library_visual_scenes><visual_scene id="Scene" name="Scene">
    <node id="mesh" name="mesh"><instance_geometry url="#m-mesh"><bind_material><technique_common>
      <instance_material symbol="stage-material" target="#stage-material"><bind_vertex_input semantic="UVSET0" input_semantic="TEXCOORD" input_set="0"/></instance_material>
    </technique_common></bind_material></instance_geometry></node>
  </visual_scene></library_visual_scenes>
  <scene><instance_visual_scene url="#Scene"/></scene>
</COLLADA>
