<?xml version="1.0" encoding="utf-8"?>
<COLLADA xmlns="http://www.collada.org/2005/11/COLLADASchema" version="1.4.1">
  <asset><unit name="meter" meter="1"/><up_axis>Z_UP</up_axis></asset>
  <library_images><image id="belt-image" name="belt-image"><init_from>Conveyor.png</init_from></image></library_images>
  <library_effects><effect id="belt-effect"><profile_COMMON><newparam sid="belt-surface"><surface type="2D"><init_from>belt-image</init_from></surface></newparam><newparam sid="belt-sampler"><sampler2D><source>belt-surface</source></sampler2D></newparam><technique sid="common"><lambert><diffuse><texture texture="belt-sampler" texcoord="UVSET0"/></diffuse></lambert></technique></profile_COMMON></effect><effect id="frame-effect"><profile_COMMON><technique sid="common"><lambert><diffuse><color sid="diffuse">0.35 0.36 0.38 1</color></diffuse></lambert></technique></profile_COMMON></effect><effect id="motor-effect"><profile_COMMON><technique sid="common"><lambert><diffuse><color sid="diffuse">0.9 0.7 0.05 1</color></diffuse></lambert></technique></profile_COMMON></effect></library_effects>
  <library_materials><material id="belt-material" name="belt"><instance_effect url="#belt-effect"/></material><material id="frame-material" name="frame"><instance_effect url="#frame-effect"/></material><material id="motor-material" name="motor"><instance_effect url="#motor-effect"/></material></library_materials>
  <library_geometries><geometry id="m-mesh" name="mesh"><mesh>
    <source id="m-positions"><float_array id="m-positions-array" count="1152">-3.225 -0.45 0.63 -3.225 0.45 0.63 -3.225 0.45 0.57 -3.225 -0.45 0.57 3.225 -0.45 0.57 3.225 0.45 0.57 3.225 0.45 0.63 3.225 -0.45 0.63 3.225 -0.45 0.57 3.225 -0.45 0.63 -3.225 -0.45 0.63 -3.225 -0.45 0.57 -3.225 0.45 0.57 -3.225 0.45 0.63 3.225 0.45 0.63 3.225 0.45 0.57 -3.225 0.45 0.57 3.225 0.45 0.57 3.225 -0.45 0.57 -3.225 -0.45 0.57 -3.225 -0.45 0.63 3.225 -0.45 0.63 3.225 0.45 0.63 -3.225 0.45 0.63 -3.225 -0.53 0.73 -3.225 -0.45 0.73 -3.225 -0.45 0.43 -3.225 -0.53 0.43 3.225 -0.53 0.43 3.225 -0.45 0.43 3.225 -0.45 0.73 3.225 -0.53 0.73 3.225 -0.53 0.43 3.225 -0.53 0.73 -3.225 -0.53 0.73 -3.225 -0.53 0.43 -3.225 -0.45 0.43 -3.225 -0.45 0.73 3.225 -0.45 0.73 3.225 -0.45 0.43 -3.225 -0.45 0.43 3.225 -0.45 0.43 3.225 -0.53 0.43 -3.225 -0.53 0.43 -3.225 -0.53 0.73 3.225 -0.53 0.73 3.225 -0.45 0.73 -3.225 -0.45 0.73 -3.225 0.45 0.73 -3.225 0.53 0.73 -3.225 0.53 0.43 -3.225 0.45 0.43 3.225 0.45 0.43 3.225 0.53 0.43 3.225 0.53 0.73 3.225 0.45 0.73 3.225 0.45 0.43 3.225 0.45 0.73 -3.225 0.45 0.73 -3.225 0.45 0.43 -3.225 0.53 0.43 -3.225 0.53 0.73 3.225 0.53 0.73 3.225 0.53 0.43 -3.225 0.53 0.43 3.225 0.53 0.43 3.225 0.45 0.43 -3.225 0.45 0.43 -3.225 0.45 0.73 3.225 0.45 0.73 3.225 0.53 0.73 -3.225 0.53 0.73 -2.955 -0.46 0.43 -2.955 -0.4 0.43 -2.955 -0.4 0 -2.955 -0.46 0 -2.895 -0.46 0 -2.895 -0.4 0 -2.895 -0.4 0.43 -2.895 -0.46 0.43 -2.895 -0.46 0 -2.895 -0.46 0.43 -2.955 -0.46 0.43 -2.955 -0.46 0 -2.955 -0.4 0 -2.955 -0.4 0.43 -2.895 -0.4 0.43 -2.895 -0.4 0 -2.955 -0.4 0 -2.895 -0.4 0 -2.895 -0.46 0 -2.955 -0.46 0 -2.955 -0.46 0.43 -2.895 -0.46 0.43 -2.895 -0.4 0.43 -2.955 -0.4 0.43 -2.955 0.4 0.43 -2.955 0.46 0.43 -2.955 0.46 0 -2.955 0.4 0 -2.895 0.4 0 -2.895 0.46 0 -2.895 0.46 0.43 -2.895 0.4 0.43 -2.895 0.4 0 -2.895 0.4 0.43 -2.955 0.4 0.43 -2.955 0.4 0 -2.955 0.46 0 -2.955 0.46 0.43 -2.895 0.46 0.43 -2.895 0.46 0 -2.955 0.46 0 -2.895 0.46 0 -2.895 0.4 0 -2.955 0.4 0 -2.955 0.4 0.43 -2.895 0.4 0.43 -2.895 0.46 0.43 -2.955 0.46 0.43 -2.95 -0.45 0.175 -2.95 0.45 0.175 -2.95 0.45 0.125 -2.95 -0.45 0.125 -2.9 -0.45 0.125 -2.9 0.45 0.125 -2.9 0.45 0.175 -2.9 -0.45 0.175 -2.9 -0.45 0.125 -2.9 -0.45 0.175 -2.95 -0.45 0.175 -2.95 -0.45 0.125 -2.95 0.45 0.125 -2.95 0.45 0.175 -2.9 0.45 0.175 -2.9 0.45 0.125 -2.95 0.45 0.125 -2.9 0.45 0.125 -2.9 -0.45 0.125 -2.95 -0.45 0.125 -2.95 -0.45 0.175 -2.9 -0.45 0.175 -2.9 0.45 0.175 -2.95 0.45 0.175 -1.655 -0.46 0.43 -1.655 -0.4 0.43 -1.655 -0.4 0 -1.655 -0.46 0 -1.595 -0.46 0 -1.595 -0.4 0 -1.595 -0.4 0.43 -1.595 -0.46 0.43 -1.595 -0.46 0 -1.595 -0.46 0.43 -1.655 -0.46 0.43 -1.655 -0.46 0 -1.655 -0.4 0 -1.655 -0.4 0.43 -1.595 -0.4 0.43 -1.595 -0.4 0 -1.655 -0.4 0 -1.595 -0.4 0 -1.595 -0.46 0 -1.655 -0.46 0 -1.655 -0.46 0.43 -1.595 -0.46 0.43 -1.595 -0.4 0.43 -1.655 -0.4 0.43 -1.655 0.4 0.43 -1.655 0.46 0.43 -1.655 0.46 0 -1.655 0.4 0 -1.595 0.4 0 -1.595 0.46 0 -1.595 0.46 0.43 -1.595 0.4 0.43 -1.595 0.4 0 -1.595 0.4 0.43 -1.655 0.4 0.43 -1.655 0.4 0 -1.655 0.46 0 -1.655 0.46 0.43 -1.595 0.46 0.43 -1.595 0.46 0 -1.655 0.46 0 -1.595 0.46 0 -1.595 0.4 0 -1.655 0.4 0 -1.655 0.4 0.43 -1.595 0.4 0.43 -1.595 0.46 0.43 -1.655 0.46 0.43 -1.65 -0.45 0.175 -1.65 0.45 0.175 -1.65 0.45 0.125 -1.65 -0.45 0.125 -1.6 -0.45 0.125 -1.6 0.45 0.125 -1.6 0.45 0.175 -1.6 -0.45 0.175 -1.6 -0.45 0.125 -1.6 -0.45 0.175 -1.65 -0.45 0.175 -1.65 -0.45 0.125 -1.65 0.45 0.125 -1.65 0.45 0.175 -1.6 0.45 0.175 -1.6 0.45 0.125 -1.65 0.45 0.125 -1.6 0.45 0.125 -1.6 -0.45 0.125 -1.65 -0.45 0.125 -1.65 -0.45 0.175 -1.6 -0.45 0.175 -1.6 0.45 0.175 -1.65 0.45 0.175 -0.155 -0.46 0.43 -0.155 -0.4 0.43 -0.155 -0.4 0 -0.155 -0.46 0 -0.095 -0.46 0 -0.095 -0.4 0 -0.095 -0.4 0.43 -0.095 -0.46 0.43 -0.095 -0.46 0 -0.095 -0.46 0.43 -0.155 -0.46 0.43 -0.155 -0.46 0 -0.155 -0.4 0 -0.155 -0.4 0.43 -0.095 -0.4 0.43 -0.095 -0.4 0 -0.155 -0.4 0 -0.095 -0.4 0 -0.095 -0.46 0 -0.155 -0.46 0 -0.155 -0.46 0.43 -0.095 -0.46 0.43 -0.095 -0.4 0.43 -0.155 -0.4 0.43 -0.155 0.4 0.43 -0.155 0.46 0.43 -0.155 0.46 0 -0.155 0.4 0 -0.095 0.4 0 -0.095 0.46 0 -0.095 0.46 0.43 -0.095 0.4 0.43 -0.095 0.4 0 -0.095 0.4 0.43 -0.155 0.4 0.43 -0.155 0.4 0 -0.155 0.46 0 -0.155 0.46 0.43 -0.095 0.46 0.43 -0.095 0.46 0 -0.155 0.46 0 -0.095 0.46 0 -0.095 0.4 0 -0.155 0.4 0 -0.155 0.4 0.43 -0.095 0.4 0.43 -0.095 0.46 0.43 -0.155 0.46 0.43 -0.15 -0.45 0.175 -0.15 0.45 0.175 -0.15 0.45 0.125 -0.15 -0.45 0.125 -0.1 -0.45 0.125 -0.1 0.45 0.125 -0.1 0.45 0.175 -0.1 -0.45 0.175 -0.1 -0.45 0.125 -0.1 -0.45 0.175 -0.15 -0.45 0.175 -0.15 -0.45 0.125 -0.15 0.45 0.125 -0.15 0.45 0.175 -0.1 0.45 0.175 -0.1 0.45 0.125 -0.15 0.45 0.125 -0.1 0.45 0.125 -0.1 -0.45 0.125 -0.15 -0.45 0.125 -0.15 -0.45 0.175 -0.1 -0.45 0.175 -0.1 0.45 0.175 -0.15 0.45 0.175 1.545 -0.46 0.43 1.545 -0.4 0.43 1.545 -0.4 0 1.545 -0.46 0 1.605 -0.46 0 1.605 -0.4 0 1.605 -0.4 0.43 1.605 -0.46 0.43 1.605 -0.46 0 1.605 -0.46 0.43 1.545 -0.46 0.43 1.545 -0.46 0 1.545 -0.4 0 1.545 -0.4 0.43 1.605 -0.4 0.43 1.605 -0.4 0 1.545 -0.4 0 1.605 -0.4 0 1.605 -0.46 0 1.545 -0.46 0 1.545 -0.46 0.43 1.605 -0.46 0.43 1.605 -0.4 0.43 1.545 -0.4 0.43 1.545 0.4 0.43 1.545 0.46 0.43 1.545 0.46 0 1.545 0.4 0 1.605 0.4 0 1.605 0.46 0 1.605 0.46 0.43 1.605 0.4 0.43 1.605 0.4 0 1.605 0.4 0.43 1.545 0.4 0.43 1.545 0.4 0 1.545 0.46 0 1.545 0.46 0.43 1.605 0.46 0.43 1.605 0.46 0 1.545 0.46 0 1.605 0.46 0 1.605 0.4 0 1.545 0.4 0 1.545 0.4 0.43 1.605 0.4 0.43 1.605 0.46 0.43 1.545 0.46 0.43 1.55 -0.45 0.175 1.55 0.45 0.175 1.55 0.45 0.125 1.55 -0.45 0.125 1.6 -0.45 0.125 1.6 0.45 0.125 1.6 0.45 0.175 1.6 -0.45 0.175 1.6 -0.45 0.125 1.6 -0.45 0.175 1.55 -0.45 0.175 1.55 -0.45 0.125 1.55 0.45 0.125 1.55 0.45 0.175 1.6 0.45 0.175 1.6 0.45 0.125 1.55 0.45 0.125 1.6 0.45 0.125 1.6 -0.45 0.125 1.55 -0.45 0.125 1.55 -0.45 0.175 1.6 -0.45 0.175 1.6 0.45 0.175 1.55 0.45 0.175 -3.05 -0.25 0.455 -3.05 0.25 0.455 -3.05 0.25 0.205 -3.05 -0.25 0.205 -2.7 -0.25 0.205 -2.7 0.25 0.205 -2.7 0.25 0.455 -2.7 -0.25 0.455 -2.7 -0.25 0.205 -2.7 -0.25 0.455 -3.05 -0.25 0.455 -3.05 -0.25 0.205 -3.05 0.25 0.205 -3.05 0.25 0.455 -2.7 0.25 0.455 -2.7 0.25 0.205 -3.05 0.25 0.205 -2.7 0.25 0.205 -2.7 -0.25 0.205 -3.05 -0.25 0.205 -3.05 -0.25 0.455 -2.7 -0.25 0.455 -2.7 0.25 0.455 -3.05 0.25 0.455</float_array><technique_common><accessor source="#m-positions-array" count="384" stride="3"><param name="X" type="float"/><param name="Y" type="float"/><param name="Z" type="float"/></accessor></technique_common></source>
    <source id="m-normals"><float_array id="m-normals-array" count="288">-1 0 0 1 0 0 0 -1 0 0 1 0 0 0 -1 0 0 1 -1 0 0 1 0 0 0 -1 0 0 1 0 0 0 -1 0 0 1 -1 0 0 1 0 0 0 -1 0 0 1 0 0 0 -1 0 0 1 -1 0 0 1 0 0 0 -1 0 0 1 0 0 0 -1 0 0 1 -1 0 0 1 0 0 0 -1 0 0 1 0 0 0 -1 0 0 1 -1 0 0 1 0 0 0 -1 0 0 1 0 0 0 -1 0 0 1 -1 0 0 1 0 0 0 -1 0 0 1 0 0 0 -1 0 0 1 -1 0 0 1 0 0 0 -1 0 0 1 0 0 0 -1 0 0 1 -1 0 0 1 0 0 0 -1 0 0 1 0 0 0 -1 0 0 1 -1 0 0 1 0 0 0 -1 0 0 1 0 0 0 -1 0 0 1 -1 0 0 1 0 0 0 -1 0 0 1 0 0 0 -1 0 0 1 -1 0 0 1 0 0 0 -1 0 0 1 0 0 0 -1 0 0 1 -1 0 0 1 0 0 0 -1 0 0 1 0 0 0 -1 0 0 1 -1 0 0 1 0 0 0 -1 0 0 1 0 0 0 -1 0 0 1 -1 0 0 1 0 0 0 -1 0 0 1 0 0 0 -1 0 0 1 -1 0 0 1 0 0 0 -1 0 0 1 0 0 0 -1 0 0 1</float_array><technique_common><accessor source="#m-normals-array" count="96" stride="3"><param name="X" type="float"/><param name="Y" type="float"/><param name="Z" type="float"/></accessor></technique_common></source>
    <source id="m-uv"><float_array id="m-uv-array" count="768">-3.225 0.9 -3.225 0.99 -3.225 0.99 -3.225 0.9 3.225 0.9 3.225 0.99 3.225 0.99 3.225 0.9 3.225 0.9 3.225 0.9 -3.225 0.9 -3.225 0.9 -3.225 0.99 -3.225 0.99 3.225 0.99 3.225 0.99 -3.225 0.99 3.225 0.99 3.225 0.9 -3.225 0.9 -3.225 0.9 3.225 0.9 3.225 0.99 -3.225 0.99 -3.225 0.82 -3.225 0.82 -3.225 0.68 -3.225 0.68 3.225 0.68 3.225 0.68 3.225 0.82 3.225 0.82 3.225 0.68 3.225 0.82 -3.225 0.82 -3.225 0.68 -3.225 0.68 -3.225 0.82 3.225 0.82 3.225 0.68 -3.225 0.68 3.225 0.68 3.225 0.68 -3.225 0.68 -3.225 0.82 3.225 0.82 3.225 0.82 -3.225 0.82 -3.225 0.82 -3.225 0.82 -3.225 0.68 -3.225 0.68 3.225 0.68 3.225 0.68 3.225 0.82 3.225 0.82 3.225 0.68 3.225 0.82 -3.225 0.82 -3.225 0.68 -3.225 0.68 -3.225 0.82 3.225 0.82 3.225 0.68 -3.225 0.68 3.225 0.68 3.225 0.68 -3.225 0.68 -3.225 0.82 3.225 0.82 3.225 0.82 -3.225 0.82 0.5 0.5 0.5 0.5 0.5 0.5 0.5 0.5 0.5 0.5 0.5 0.5 0.5 0.5 0.5 0.5 0.5 0.5 0.5 0.5 0.5 0.5 0.5 0.5 0.5 0.5 0.5 0.5 0.5 0.5 0.5 0.5 0.5 0.5 0.5 0.5 0.5 0.5 0.5 0.5 0.5 0.5 0.5 0.5 0.5 0.5 0.5 0.5 0.5 0.5 0.5 0.5 0.5 0.5 0.5 0.5 0.5 0.5 0.5 0.5 0.5 0.5 0.5 0.5 0.5 0.5 0.5 0.5 0.5 0.5 0.5 0.5 0.5 0.5 0.5 0.5 0.5 0.5 0.5 0.5 0.5 0.5 0.5 0.5 0.5 0.5 0.5 0.5 0.5 0.5 0.5 0.5 0.5 0.5 0.5 0.5 0.5 0.5 0.5 0.5 0.5 0.5 0.5 0.5 0.5 0.5 0.5 0.5 0.5 0.5 0.5 0.5 0.5 0.5 0.5 0.5 0.5 0.5 0.5 0.5 0.5 0.5 0.5 0.5 0.5 0.5 0.5 0.5 0.5 0.5 0.5 0.5 0.5 0.5 0.5 0.5 0.5 0.5 0.5 0.5 0.5 0.5 0.5 0.5 0.5 0.5 0.5 0.5 0.5 0.5 0.5 0.5 0.5 0.5 0.5 0.5 0.5 0.5 0.5 0.5 0.5 0.5 0.5 0.5 0.5 0.5 0.5 0.5 0.5 0.5 0.5 0.5 0.5 0.5 0.5 0.5 0.5 0.5 0.5 0.5 0.5 0.5 0.5 0.5 0.5 0.5 0.5 0.5 0.5 0.5 0.5 0.5 0.5 0.5 0.5 0.5 0.5 0.5 0.5 0.5 0.5 0.5 0.5 0.5 0.5 0.5 0.5 0.5 0.5 0.5 0.5 0.5 0.5 0.5 0.5 0.5 0.5 0.5 0.5 0.5 0.5 0.5 0.5 0.5 0.5 0.5 0.5 0.5 0.5 0.5 0.5 0.5 0.5 0.5 0.5 0.5 0.5 0.5 0.5 0.5 0.5 0.5 0.5 0.5 0.5 0.5 0.5 0.5 0.5 0.5 0.5 0.5 0.5 0.5 0.5 0.5 0.5 0.5 0.5 0.5 0.5 0.5 0.5 0.5 0.5 0.5 0.5 0.5 0.5 0.5 0.5 0.5 0.5 0.5 0.5 0.5 0.5 0.5 0.5 0.5 0.5 0.5 0.5 0.5 0.5 0.5 0.5 0.5 0.5 0.5 0.5 0.5 0.5 0.5 0.5 0.5 0.5 0.5 0.5 0.5 0.5 0.5 0.5 0.5 0.5 0.5 0.5 0.5 0.5 0.5 0.5 0.5 0.5 0.5 0.5 0.5 0.5 0.5 0.5 0.5 0.5 0.5 0.5 0.5 0.5 0.5 0.5 0.5 0.5 0.5 0.5 0.5 0.5 0.5 0.5 0.5 0.5 0.5 0.5 0.5 0.5 0.5 0.5 0.5 0.5 0.5 0.5 0.5 0.5 0.5 0.5 0.5 0.5 0.5 0.5 0.5 0.5 0.5 0.5 0.5 0.5 0.5 0.5 0.5 0.5 0.5 0.5 0.5 0.5 0.5 0.5 0.5 0.5 0.5 0.5 0.5 0.5 0.5 0.5 0.5 0.5 0.5 0.5 0.5 0.5 0.5 0.5 0.5 0.5 0.5 0.5 0.5 0.5 0.5 0.5 0.5 0.5 0.5 0.5 0.5 0.5 0.5 0.5 0.5 0.5 0.5 0.5 0.5 0.5 0.5 0.5 0.5 0.5 0.5 0.5 0.5 0.5 0.5 0.5 0.5 0.5 0.5 0.5 0.5 0.5 0.5 0.5 0.5 0.5 0.5 0.5 0.5 0.5 0.5 0.5 0.5 0.5 0.5 0.5 0.5 0.5 0.5 0.5 0.5 0.5 0.5 0.5 0.5 0.5 0.5 0.5 0.5 0.5 0.5 0.5 0.5 0.5 0.5 0.5 0.5 0.5 0.5 0.5 0.5 0.5 0.5 0.5 0.5 0.5 0.5 0.5 0.5 0.5 0.5 0.5 0.5 0.5 0.5 0.5 0.5 0.5 0.5 0.5 0.5 0.5 0.5 0.5 0.5 0.5 0.5 0.5 0.5 0.5 0.5 0.5 0.5 0.5 0.5 0.5 0.5 0.5 0.5 0.5 0.5 0.5 0.5 0.5 0.5 0.5 0.5 0.5 0.5 0.5 0.5 0.5 0.5 0.5 0.5 0.5 0.5 0.5 0.5 0.5 0.5 0.5 0.5 0.5 0.5 0.5 0.5 0.5 0.5 0.5 0.5 0.5 0.5 0.5 0.5 0.5 0.5 0.5 0.5 0.5 0.5 0.5 0.5 0.5 0.5 0.5 0.5 0.5 0.5 0.5 0.5 0.5 0.5 0.5 0.5 0.5 0.5 0.5 0.5 0.5 0.5 0.5 0.5 0.5 0.5 0.5 0.5 0.5 0.5 0.5 0.5 0.5 0.5 0.5 0.5 0.5 0.5 0.5 0.5 0.5 0.5 0.5 0.5 0.5 0.5 0.5 0.5 0.5 0.5 0.5 0.5 0.5 0.5 0.5 0.5 0.5 0.5 0.5 0.5 0.5 0.5 0.5 0.5 0.5 0.5 0.5 0.5 0.5 0.5 0.5 0.5 0.5 0.5 0.5 0.5 0.5 0.5 0.5 0.5 0.5 0.5</float_array><technique_common><accessor source="#m-uv-array" count="384" stride="2"><param name="S" type="float"/><param name="T" type="float"/></accessor></technique_common></source>
    <vertices id="m-vertices"><input semantic="POSITION" source="#m-positions"/></vertices>
    <triangles material="belt-material" count="36"><input semantic="VERTEX" source="#m-vertices" offset="0"/><input semantic="NORMAL" source="#m-normals" offset="1"/><input semantic="TEXCOORD" source="#m-uv" offset="2" set="0"/><p>0 0 0 1 0 1 2 0 2 0 0 0 2 0 2 3 0 3 4 1 4 5 1 5 6 1 6 4 1 4 6 1 6 7 1 7 8 2 8 9 2 9 10 2 10 8 2 8 10 2 10 11 2 11 12 3 12 13 3 13 14 3 14 12 3 12 14 3 14 15 3 15 16 4 16 17 4 17 18 4 18 16 4 16 18 4 18 19 4 19 20 5 20 21 5 21 22 5 22 20 5 20 22 5 22 23 5 23 24 6 24 25 6 25 26 6 26 24 6 24 26 6 26 27 6 27 28 7 28 29 7 29 30 7 30 28 7 28 30 7 30 31 7 31 32 8 32 33 8 33 34 8 34 32 8 32 34 8 34 35 8 35 36 9 36 37 9 37 38 9 38 36 9 36 38 9 38 39 9 39 40 10 40 41 10 41 42 10 42 40 10 40 42 10 42 43 10 43 44 11 44 45 11 45 46 11 46 44 11 44 46 11 46 47 11 47 48 12 48 49 12 49 50 12 50 48 12 48 50 12 50 51 12 51 52 13 52 53 13 53 54 13 54 52 13 52 54 13 54 55 13 55 56 14 56 57 14 57 58 14 58 56 14 56 58 14 58 59 14 59 60 15 60 61 15 61 62 15 62 60 15 60 62 15 62 63 15 63 64 16 64 65 16 65 66 16 66 64 16 64 66 16 66 67 16 67 68 17 68 69 17 69 70 17 70 68 17 68 70 17 70 71 17 71</p></triangles><triangles material="frame-material" count="144"><input semantic="VERTEX" source="#m-vertices" offset="0"/><input semantic="NORMAL" source="#m-normals" offset="1"/><input semantic="TEXCOORD" source="#m-uv" offset="2" set="0"/><p>72 18 72 73 18 73 74 18 74 72 18 72 74 18 74 75 18 75 76 19 76 77 19 77 78 19 78 76 19 76 78 19 78 79 19 79 80 20 80 81 20 81 82 20 82 80 20 80 82 20 82 83 20 83 84 21 84 85 21 85 86 21 86 84 21 84 86 21 86 87 21 87 88 22 88 89 22 89 90 22 90 88 22 88 90 22 90 91 22 91 92 23 92 93 23 93 94 23 94 92 23 92 94 23 94 95 23 95 96 24 96 97 24 97 98 24 98 96 24 96 98 24 98 99 24 99 100 25 100 101 25 101 102 25 102 100 25 100 102 25 102 103 25 103 104 26 104 105 26 105 106 26 106 104 26 104 106 26 106 107 26 107 108 27 108 109 27 109 110 27 110 108 27 108 110 27 110 111 27 111 112 28 112 113 28 113 114 28 114 112 28 112 114 28 114 115 28 115 116 29 116 117 29 117 118 29 118 116 29 116 118 29 118 119 29 119 120 30 120 121 30 121 122 30 122 120 30 120 122 30 122 123 30 123 124 31 124 125 31 125 126 31 126 124 31 124 126 31 126 127 31 127 128 32 128 129 32 129 130 32 130 128 32 128 130 32 130 131 32 131 132 33 132 133 33 133 134 33 134 132 33 132 134 33 134 135 33 135 136 34 136 137 34 137 138 34 138 136 34 136 138 34 138 139 34 139 140 35 140 141 35 141 142 35 142 140 35 140 142 35 142 143 35 143 144 36 144 145 36 145 146 36 146 144 36 144 146 36 146 147 36 147 148 37 148 149 37 149 150 37 150 148 37 148 150 37 150 151 37 151 152 38 152 153 38 153 154 38 154 152 38 152 154 38 154 155 38 155 156 39 156 157 39 157 158 39 158 156 39 156 158 39 158 159 39 159 160 40 160 161 40 161 162 40 162 160 40 160 162 40 162 163 40 163 164 41 164 165 41 165 166 41 166 164 41 164 166 41 166 167 41 167 168 42 168 169 42 169 170 42 170 168 42 168 170 42 170 171 42 171 172 43 172 173 43 173 174 43 174 172 43 172 174 43 174 175 43 175 176 44 176 177 44 177 178 44 178 176 44 176 178 44 178 179 44 179 180 45 180 181 45 181 182 45 182 180 45 180 182 45 182 183 45 183 184 46 184 185 46 185 186 46 186 184 46 184 186 46 186 187 46 187 188 47 188 189 47 189 190 47 190 188 47 188 190 47 190 191 47 191 192 48 192 193 48 193 194 48 194 192 48 192 194 48 194 195 48 195 196 49 196 197 49 197 198 49 198 196 49 196 198 49 198 199 49 199 200 50 200 201 50 201 202 50 202 200 50 200 202 50 202 203 50 203 204 51 204 205 51 205 206 51 206 204 51 204 206 51 206 207 51 207 208 52 208 209 52 209 210 52 210 208 52 208 210 52 210 211 52 211 212 53 212 213 53 213 214 53 214 212 53 212 214 53 214 215 53 215 216 54 216 217 54 217 218 54 218 216 54 216 218 54 218 219 54 219 220 55 220 221 55 221 222 55 222 220 55 220 222 55 222 223 55 223 224 56 224 225 56 225 226 56 226 224 56 224 226 56 226 227 56 227 228 57 228 229 57 229 230 57 230 228 57 228 230 57 230 231 57 231 232 58 232 233 58 233 234 58 234 232 58 232 234 58 234 235 58 235 236 59 236 237 59 237 238 59 238 236 59 236 238 59 238 239 59 239 240 60 240 241 60 241 242 60 242 240 60 240 242 60 242 243 60 243 244 61 244 245 61 245 246 61 246 244 61 244 246 61 246 247 61 247 248 62 248 249 62 249 250 62 250 248 62 248 250 62 250 251 62 251 252 63 252 253 63 253 254 63 254 252 63 252 254 63 254 255 63 255 256 64 256 257 64 257 258 64 258 256 64 256 258 64 258 259 64 259 260 65 260 261 65 261 262 65 262 260 65 260 262 65 262 263 65 263 264 66 264 265 66 265 266 66 266 264 66 264 266 66 266 267 66 267 268 67 268 269 67 269 270 67 270 268 67 268 270 67 270 271 67 271 272 68 272 273 68 273 274 68 274 272 68 272 274 68 274 275 68 275 276 69 276 277 69 277 278 69 278 276 69 276 278 69 278 279 69 279 280 70 280 281 70 281 282 70 282 280 70 280 282 70 282 283 70 283 284 71 284 285 71 285 286 71 286 284 71 284 286 71 286 287 71 287 288 72 288 289 72 289 290 72 290 288 72 288 290 72 290 291 72 291 292 73 292 293 73 293 294 73 294 292 73 292 294 73 294 295 73 295 296 74 296 297 74 297 298 74 298 296 74 296 298 74 298 299 74 299 300 75 300 301 75 301 302 75 302 300 75 300 302 75 302 303 75 303 304 76 304 305 76 305 306 76 306 304 76 304 306 76 306 307 76 307 308 77 308 309 77 309 310 77 310 308 77 308 310 77 310 311 77 311 312 78 312 313 78 313 314 78 314 312 78 312 314 78 314 315 78 315 316 79 316 317 79 317 318 79 318 316 79 316 318 79 318 319 79 319 320 80 320 321 80 321 322 80 322 320 80 320 322 80 322 323 80 323 324 81 324 325 81 325 326 81 326 324 81 324 326 81 326 327 81 327 328 82 328 329 82 329 330 82 330 328 82 328 330 82 330 331 82 331 332 83 332 333 83 333 334 83 334 332 83 332 334 83 334 335 83 335 336 84 336 337 84 337 338 84 338 336 84 336 338 84 338 339 84 339 340 85 340 341 85 341 342 85 342 340 85 340 342 85 342 343 85 343 344 86 344 345 86 345 346 86 346 344 86 344 346 86 346 347 86 347 348 87 348 349 87 349 350 87 350 348 87 348 350 87 350 351 87 351 352 88 352 353 88 353 354 88 354 352 88 352 354 88 354 355 88 355 356 89 356 357 89 357 358 89 358 356 89 356 358 89 358 359 89 359</p></triangles><triangles material="motor-material" count="12"><input semantic="VERTEX" source="#m-vertices" offset="0"/><input semantic="NORMAL" source="#m-normals" offset="1"/><input semantic="TEXCOORD" source="#m-uv" offset="2" set="0"/><p>360 90 360 361 90 361 362 90 362 360 90 360 362 90 362 363 90 363 364 91 364 365 91 365 366 91 366 364 91 364 366 91 366 367 91 367 368 92 368 369 92 369 370 92 370 368 92 368 370 92 370 371 92 371 372 93 372 373 93 373 374 93 374 372 93 372 374 93 374 375 93 375 376 94 376 377 94 377 378 94 378 376 94 376 378 94 378 379 94 379 380 95 380 381 95 381 382 95 382 380 95 380 382 95 382 383 95 383</p></triangles>
  </mesh></geometry></library_geometries>
  <library_visual_scenes><visual_scene id="Scene" name="Scene">
    <node id="mesh" name="mesh"><instance_geometry url="#m-mesh"><bind_material><technique_common>
      <instance_material symbol="belt-material" target="#belt-material"><bind_vertex_input semantic="UVSET0" input_semantic="TEXCOORD" input_set="0"/></instance_material><instance_material symbol="frame-material" target="#frame-material"><bind_vertex_input semantic="UVSET0" input_semantic="TEXCOORD" input_set="0"/></instance_material><instance_material symbol="motor-material" target="#motor-material"><bind_vertex_input semantic="UVSET0" input_semantic="TEXCOORD" input_set="0"/></instance_material>
    </technique_common></bind_material></instance_geometry></node>
  </visual_scene></library_visual_scenes>
  <scene><instance_visual_scene url="#Scene"/></scene>
</COLLADA>
