<?xml version="1.0" encoding="utf-8"?>
<COLLADA xmlns="http://www.collada.org/2005/11/COLLADASchema" version="1.4.1">
  <asset><unit name="meter" meter="1"/><up_axis>Z_UP</up_axis></asset>
  <library_images><image id="banner-image" name="banner-image"><init_from>banner.jpg</init_from></image><image id="floor-image" name="floor-image"><init_from>floor.jpg</init_from></image><image id="row_D1-image" name="row_D1-image"><init_from>row_D1.jpg</init_from></image><image id="row_D2-image" name="row_D2-image"><init_from>row_D2.jpg</init_from></image><image id="row_D3-image" name="row_D3-image"><init_from>row_D3.jpg</init_from></image><image id="row_D4-image" name="row_D4-image"><init_from>row_D4.jpg</init_from></image><image id="row_D5-image" name="row_D5-image"><init_from>row_D5.jpg</init_from></image></library_images>
  <library_effects><effect id="yellow-effect"><profile_COMMON><technique sid="common"><lambert><diffuse><color sid="diffuse">0.95 0.75 0.05 1</color></diffuse></lambert></technique></profile_COMMON></effect><effect id="zone-effect"><profile_COMMON><technique sid="common"><lambert><diffuse><color sid="diffuse">0.5490196078431373 0.23529411764705882 0.7058823529411765 1</color></diffuse></lambert></technique></profile_COMMON></effect><effect id="banner-effect"><profile_COMMON><newparam sid="banner-surface"><surface type="2D"><init_from>banner-image</init_from></surface></newparam><newparam sid="banner-sampler"><sampler2D><source>banner-surface</source></sampler2D></newparam><technique sid="common"><lambert><diffuse><texture texture="banner-sampler" texcoord="UVSET0"/></diffuse></lambert></technique></profile_COMMON></effect><effect id="floor-effect"><profile_COMMON><newparam sid="floor-surface"><surface type="2D"><init_from>floor-image</init_from></surface></newparam><newparam sid="floor-sampler"><sampler2D><source>floor-surface</source></sampler2D></newparam><technique sid="common"><lambert><diffuse><texture texture="floor-sampler" texcoord="UVSET0"/></diffuse></lambert></technique></profile_COMMON></effect><effect id="row_D1-effect"><profile_COMMON><newparam sid="row_D1-surface"><surface type="2D"><init_from>row_D1-image</init_from></surface></newparam><newparam sid="row_D1-sampler"><sampler2D><source>row_D1-surface</source></sampler2D></newparam><technique sid="common"><lambert><diffuse><texture texture="row_D1-sampler" texcoord="UVSET0"/></diffuse></lambert></technique></profile_COMMON></effect><effect id="row_D2-effect"><profile_COMMON><newparam sid="row_D2-surface"><surface type="2D"><init_from>row_D2-image</init_from></surface></newparam><newparam sid="row_D2-sampler"><sampler2D><source>row_D2-surface</source></sampler2D></newparam><technique sid="common"><lambert><diffuse><texture texture="row_D2-sampler" texcoord="UVSET0"/></diffuse></lambert></technique></profile_COMMON></effect><effect id="row_D3-effect"><profile_COMMON><newparam sid="row_D3-surface"><surface type="2D"><init_from>row_D3-image</init_from></surface></newparam><newparam sid="row_D3-sampler"><sampler2D><source>row_D3-surface</source></sampler2D></newparam><technique sid="common"><lambert><diffuse><texture texture="row_D3-sampler" texcoord="UVSET0"/></diffuse></lambert></technique></profile_COMMON></effect><effect id="row_D4-effect"><profile_COMMON><newparam sid="row_D4-surface"><surface type="2D"><init_from>row_D4-image</init_from></surface></newparam><newparam sid="row_D4-sampler"><sampler2D><source>row_D4-surface</source></sampler2D></newparam><technique sid="common"><lambert><diffuse><texture texture="row_D4-sampler" texcoord="UVSET0"/></diffuse></lambert></technique></profile_COMMON></effect><effect id="row_D5-effect"><profile_COMMON><newparam sid="row_D5-surface"><surface type="2D"><init_from>row_D5-image</init_from></surface></newparam><newparam sid="row_D5-sampler"><sampler2D><source>row_D5-surface</source></sampler2D></newparam><technique sid="common"><lambert><diffuse><texture texture="row_D5-sampler" texcoord="UVSET0"/></diffuse></lambert></technique></profile_COMMON></effect></library_effects>
  <library_materials><material id="yellow-material" name="yellow"><instance_effect url="#yellow-effect"/></material><material id="zone-material" name="zone"><instance_effect url="#zone-effect"/></material><material id="banner-material" name="banner"><instance_effect url="#banner-effect"/></material><material id="floor-material" name="floor"><instance_effect url="#floor-effect"/></material><material id="row_D1-material" name="row_D1"><instance_effect url="#row_D1-effect"/></material><material id="row_D2-material" name="row_D2"><instance_effect url="#row_D2-effect"/></material><material id="row_D3-material" name="row_D3"><instance_effect url="#row_D3-effect"/></material><material id="row_D4-material" name="row_D4"><instance_effect url="#row_D4-effect"/></material><material id="row_D5-material" name="row_D5"><instance_effect url="#row_D5-effect"/></material></library_materials>
  <library_geometries><geometry id="m-mesh" name="mesh"><mesh>
    <source id="m-positions"><float_array id="m-positions-array" count="912">-1.67 -6.15 0.003 -0.53 -6.15 0.003 -0.53 -6.09 0.003 -1.67 -6.09 0.003 -1.67 -0.11 0.003 -0.53 -0.11 0.003 -0.53 -0.05 0.003 -1.67 -0.05 0.003 -1.67 -6.15 0.003 -1.61 -6.15 0.003 -1.61 -0.05 0.003 -1.67 -0.05 0.003 -0.59 -6.15 0.003 -0.53 -6.15 0.003 -0.53 -0.05 0.003 -0.59 -0.05 0.003 -1.52 -6.005 2 -0.68 -6.005 2 -0.68 -6.005 2.32 -1.52 -6.005 2.32 -0.68 -5.985 2 -1.52 -5.985 2 -1.52 -5.985 2.32 -0.68 -5.985 2.32 -0.68 -0.195 2 -1.52 -0.195 2 -1.52 -0.195 2.32 -0.68 -0.195 2.32 -1.52 -0.215 2 -0.68 -0.215 2 -0.68 -0.215 2.32 -1.52 -0.215 2.32 0.73 -9.15 0.003 1.87 -9.15 0.003 1.87 -9.09 0.003 0.73 -9.09 0.003 0.73 -2.11 0.003 1.87 -2.11 0.003 1.87 -2.05 0.003 0.73 -2.05 0.003 0.73 -9.15 0.003 0.79 -9.15 0.003 0.79 -2.05 0.003 0.73 -2.05 0.003 1.81 -9.15 0.003 1.87 -9.15 0.003 1.87 -2.05 0.003 1.81 -2.05 0.003 0.88 -9.005 2 1.72 -9.005 2 1.72 -9.005 2.32 0.88 -9.005 2.32 1.72 -8.985 2 0.88 -8.985 2 0.88 -8.985 2.32 1.72 -8.985 2.32 1.72 -2.195 2 0.88 -2.195 2 0.88 -2.195 2.32 1.72 -2.195 2.32 0.88 -2.215 2 1.72 -2.215 2 1.72 -2.215 2.32 0.88 -2.215 2.32 0.73 -0.35 0.003 1.87 -0.35 0.003 1.87 -0.29 0.003 0.73 -0.29 0.003 0.73 6.69 0.003 1.87 6.69 0.003 1.87 6.75 0.003 0.73 6.75 0.003 0.73 -0.35 0.003 0.79 -0.35 0.003 0.79 6.75 0.003 0.73 6.75 0.003 1.81 -0.35 0.003 1.87 -0.35 0.003 1.87 6.75 0.003 1.81 6.75 0.003 0.88 -0.205 2 1.72 -0.205 2 1.72 -0.205 2.32 0.88 -0.205 2.32 1.72 -0.185 2 0.88 -0.185 2 0.88 -0.185 2.32 1.72 -0.185 2.32 1.72 6.605 2 0.88 6.605 2 0.88 6.605 2.32 1.72 6.605 2.32 0.88 6.585 2 1.72 6.585 2 1.72 6.585 2.32 0.88 6.585 2.32 3.13 -9.15 0.003 4.27 -9.15 0.003 4.27 -9.09 0.003 3.13 -9.09 0.003 3.13 -2.11 0.003 4.27 -2.11 0.003 4.27 -2.05 0.003 3.13 -2.05 0.003 3.13 -9.15 0.003 3.19 -9.15 0.003 3.19 -2.05 0.003 3.13 -2.05 0.003 4.21 -9.15 0.003 4.27 -9.15 0.003 4.27 -2.05 0.003 4.21 -2.05 0.003 3.28 -9.005 2 4.12 -9.005 2 4.12 -9.005 2.32 3.28 -9.005 2.32 4.12 -8.985 2 3.28 -8.985 2 3.28 -8.985 2.32 4.12 -8.985 2.32 4.12 -2.195 2 3.28 -2.195 2 3.28 -2.195 2.32 4.12 -2.195 2.32 3.28 -2.215 2 4.12 -2.215 2 4.12 -2.215 2.32 3.28 -2.215 2.32 3.13 -0.35 0.003 4.27 -0.35 0.003 4.27 -0.29 0.003 3.13 -0.29 0.003 3.13 6.69 0.003 4.27 6.69 0.003 4.27 6.75 0.003 3.13 6.75 0.003 3.13 -0.35 0.003 3.19 -0.35 0.003 3.19 6.75 0.003 3.13 6.75 0.003 4.21 -0.35 0.003 4.27 -0.35 0.003 4.27 6.75 0.003 4.21 6.75 0.003 3.28 -0.205 2 4.12 -0.205 2 4.12 -0.205 2.32 3.28 -0.205 2.32 4.12 -0.185 2 3.28 -0.185 2 3.28 -0.185 2.32 4.12 -0.185 2.32 4.12 6.605 2 3.28 6.605 2 3.28 6.605 2.32 4.12 6.605 2.32 3.28 6.585 2 4.12 6.585 2 4.12 6.585 2.32 3.28 6.585 2.32 5.53 -9.15 0.003 6.67 -9.15 0.003 6.67 -9.09 0.003 5.53 -9.09 0.003 5.53 -2.11 0.003 6.67 -2.11 0.003 6.67 -2.05 0.003 5.53 -2.05 0.003 5.53 -9.15 0.003 5.59 -9.15 0.003 5.59 -2.05 0.003 5.53 -2.05 0.003 6.61 -9.15 0.003 6.67 -9.15 0.003 6.67 -2.05 0.003 6.61 -2.05 0.003 5.68 -9.005 2 6.52 -9.005 2 6.52 -9.005 2.32 5.68 -9.005 2.32 6.52 -8.985 2 5.68 -8.985 2 5.68 -8.985 2.32 6.52 -8.985 2.32 6.52 -2.195 2 5.68 -2.195 2 5.68 -2.195 2.32 6.52 -2.195 2.32 5.68 -2.215 2 6.52 -2.215 2 6.52 -2.215 2.32 5.68 -2.215 2.32 5.53 -0.35 0.003 6.67 -0.35 0.003 6.67 -0.29 0.003 5.53 -0.29 0.003 5.53 6.69 0.003 6.67 6.69 0.003 6.67 6.75 0.003 5.53 6.75 0.003 5.53 -0.35 0.003 5.59 -0.35 0.003 5.59 6.75 0.003 5.53 6.75 0.003 6.61 -0.35 0.003 6.67 -0.35 0.003 6.67 6.75 0.003 6.61 6.75 0.003 5.68 -0.205 2 6.52 -0.205 2 6.52 -0.205 2.32 5.68 -0.205 2.32 6.52 -0.185 2 5.68 -0.185 2 5.68 -0.185 2.32 6.52 -0.185 2.32 6.52 6.605 2 5.68 6.605 2 5.68 6.605 2.32 6.52 6.605 2.32 5.68 6.585 2 6.52 6.585 2 6.52 6.585 2.32 5.68 6.585 2.32 7.93 -9.15 0.003 9.07 -9.15 0.003 9.07 -9.09 0.003 7.93 -9.09 0.003 7.93 -2.11 0.003 9.07 -2.11 0.003 9.07 -2.05 0.003 7.93 -2.05 0.003 7.93 -9.15 0.003 7.99 -9.15 0.003 7.99 -2.05 0.003 7.93 -2.05 0.003 9.01 -9.15 0.003 9.07 -9.15 0.003 9.07 -2.05 0.003 9.01 -2.05 0.003 8.08 -9.005 2 8.92 -9.005 2 8.92 -9.005 2.32 8.08 -9.005 2.32 8.92 -8.985 2 8.08 -8.985 2 8.08 -8.985 2.32 8.92 -8.985 2.32 8.92 -2.195 2 8.08 -2.195 2 8.08 -2.195 2.32 8.92 -2.195 2.32 8.08 -2.215 2 8.92 -2.215 2 8.92 -2.215 2.32 8.08 -2.215 2.32 7.93 -0.35 0.003 9.07 -0.35 0.003 9.07 -0.29 0.003 7.93 -0.29 0.003 7.93 6.69 0.003 9.07 6.69 0.003 9.07 6.75 0.003 7.93 6.75 0.003 7.93 -0.35 0.003 7.99 -0.35 0.003 7.99 6.75 0.003 7.93 6.75 0.003 9.01 -0.35 0.003 9.07 -0.35 0.003 9.07 6.75 0.003 9.01 6.75 0.003 8.08 -0.205 2 8.92 -0.205 2 8.92 -0.205 2.32 8.08 -0.205 2.32 8.92 -0.185 2 8.08 -0.185 2 8.08 -0.185 2.32 8.92 -0.185 2.32 8.92 6.605 2 8.08 6.605 2 8.08 6.605 2.32 8.92 6.605 2.32 8.08 6.585 2 8.92 6.585 2 8.92 6.585 2.32 8.08 6.585 2.32 9.32 -9.53 0.003 9.38 -9.53 0.003 9.38 7.28 0.003 9.32 7.28 0.003 -2.03 7.22 0.003 9.38 7.22 0.003 9.38 7.28 0.003 -2.03 7.28 0.003 1.8 7.82 0.004 6.8 7.82 0.004 6.8 9.38 0.004 1.8 9.38 0.004 7.6 -9.739 3.85 1.6 -9.739 3.85 1.6 -9.739 5.35 7.6 -9.739 5.35</float_array><technique_common><accessor source="#m-positions-array" count="304" stride="3"><param name="X" type="float"/><param name="Y" type="float"/><param name="Z" type="float"/></accessor></technique_common></source>
    <source id="m-normals"><float_array id="m-normals-array" count="228">0 0 1 0 0 1 0 0 1 0 0 1 0 -1 0 0 1 0 0 1 0 0 -1 0 0 0 1 0 0 1 0 0 1 0 0 1 0 -1 0 0 1 0 0 1 0 0 -1 0 0 0 1 0 0 1 0 0 1 0 0 1 0 -1 0 0 1 0 0 1 0 0 -1 0 0 0 1 0 0 1 0 0 1 0 0 1 0 -1 0 0 1 0 0 1 0 0 -1 0 0 0 1 0 0 1 0 0 1 0 0 1 0 -1 0 0 1 0 0 1 0 0 -1 0 0 0 1 0 0 1 0 0 1 0 0 1 0 -1 0 0 1 0 0 1 0 0 -1 0 0 0 1 0 0 1 0 0 1 0 0 1 0 -1 0 0 1 0 0 1 0 0 -1 0 0 0 1 0 0 1 0 0 1 0 0 1 0 -1 0 0 1 0 0 1 0 0 -1 0 0 0 1 0 0 1 0 0 1 0 0 1 0 -1 0 0 1 0 0 1 0 0 -1 0 0 0 1 0 0 1 0 0 1 0 1 0</float_array><technique_common><accessor source="#m-normals-array" count="76" stride="3"><param name="X" type="float"/><param name="Y" type="float"/><param name="Z" type="float"/></accessor></technique_common></source>
    <source id="m-uv"><float_array id="m-uv-array" count="608">0 0 1 0 1 1 0 1 0 0 1 0 1 1 0 1 0 0 1 0 1 1 0 1 0 0 1 0 1 1 0 1 0 0 1 0 1 1 0 1 0 0 1 0 1 1 0 1 0 0 1 0 1 1 0 1 0 0 1 0 1 1 0 1 0 0 1 0 1 1 0 1 0 0 1 0 1 1 0 1 0 0 1 0 1 1 0 1 0 0 1 0 1 1 0 1 0 0 1 0 1 1 0 1 0 0 1 0 1 1 0 1 0 0 1 0 1 1 0 1 0 0 1 0 1 1 0 1 0 0 1 0 1 1 0 1 0 0 1 0 1 1 0 1 0 0 1 0 1 1 0 1 0 0 1 0 1 1 0 1 0 0 1 0 1 1 0 1 0 0 1 0 1 1 0 1 0 0 1 0 1 1 0 1 0 0 1 0 1 1 0 1 0 0 1 0 1 1 0 1 0 0 1 0 1 1 0 1 0 0 1 0 1 1 0 1 0 0 1 0 1 1 0 1 0 0 1 0 1 1 0 1 0 0 1 0 1 1 0 1 0 0 1 0 1 1 0 1 0 0 1 0 1 1 0 1 0 0 1 0 1 1 0 1 0 0 1 0 1 1 0 1 0 0 1 0 1 1 0 1 0 0 1 0 1 1 0 1 0 0 1 0 1 1 0 1 0 0 1 0 1 1 0 1 0 0 1 0 1 1 0 1 0 0 1 0 1 1 0 1 0 0 1 0 1 1 0 1 0 0 1 0 1 1 0 1 0 0 1 0 1 1 0 1 0 0 1 0 1 1 0 1 0 0 1 0 1 1 0 1 0 0 1 0 1 1 0 1 0 0 1 0 1 1 0 1 0 0 1 0 1 1 0 1 0 0 1 0 1 1 0 1 0 0 1 0 1 1 0 1 0 0 1 0 1 1 0 1 0 0 1 0 1 1 0 1 0 0 1 0 1 1 0 1 0 0 1 0 1 1 0 1 0 0 1 0 1 1 0 1 0 0 1 0 1 1 0 1 0 0 1 0 1 1 0 1 0 0 1 0 1 1 0 1 0 0 1 0 1 1 0 1 0 0 1 0 1 1 0 1 0 0 1 0 1 1 0 1 0 0 1 0 1 1 0 1 0 0 1 0 1 1 0 1 0 0 1 0 1 1 0 1 0 0 1 0 1 1 0 1 0 0 1 0 1 1 0 1 0 0 1 0 1 1 0 1 0 0 1 0 1 1 0 1 0 0 1 0 1 1 0 1 0 0 1 0 1 1 0 1 0 0 1 0 1 1 0 1 0 0 1 0 1 1 0 1 0 0 1 0 1 1 0 1 0 0 1 0 1 1 0 1 0 0 1 0 1 1 0 1 0 0 1 0 1 1 0 1</float_array><technique_common><accessor source="#m-uv-array" count="304" stride="2"><param name="S" type="float"/><param name="T" type="float"/></accessor></technique_common></source>
    <vertices id="m-vertices"><input semantic="POSITION" source="#m-positions"/></vertices>
    <triangles material="yellow-material" count="72"><input semantic="VERTEX" source="#m-vertices" offset="0"/><input semantic="NORMAL" source="#m-normals" offset="1"/><input semantic="TEXCOORD" source="#m-uv" offset="2" set="0"/><p>0 0 0 1 0 1 2 0 2 0 0 0 2 0 2 3 0 3 4 1 4 5 1 5 6 1 6 4 1 4 6 1 6 7 1 7 8 2 8 9 2 9 10 2 10 8 2 8 10 2 10 11 2 11 12 3 12 13 3 13 14 3 14 12 3 12 14 3 14 15 3 15 32 8 32 33 8 33 34 8 34 32 8 32 34 8 34 35 8 35 36 9 36 37 9 37 38 9 38 36 9 36 38 9 38 39 9 39 40 10 40 41 10 41 42 10 42 40 10 40 42 10 42 43 10 43 44 11 44 45 11 45 46 11 46 44 11 44 46 11 46 47 11 47 64 16 64 65 16 65 66 16 66 64 16 64 66 16 66 67 16 67 68 17 68 69 17 69 70 17 70 68 17 68 70 17 70 71 17 71 72 18 72 73 18 73 74 18 74 72 18 72 74 18 74 75 18 75 76 19 76 77 19 77 78 19 78 76 19 76 78 19 78 79 19 79 96 24 96 97 24 97 98 24 98 96 24 96 98 24 98 99 24 99 100 25 100 101 25 101 102 25 102 100 25 100 102 25 102 103 25 103 104 26 104 105 26 105 106 26 106 104 26 104 106 26 106 107 26 107 108 27 108 109 27 109 110 27 110 108 27 108 110 27 110 111 27 111 128 32 128 129 32 129 130 32 130 128 32 128 130 32 130 131 32 131 132 33 132 133 33 133 134 33 134 132 33 132 134 33 134 135 33 135 136 34 136 137 34 137 138 34 138 136 34 136 138 34 138 139 34 139 140 35 140 141 35 141 142 35 142 140 35 140 142 35 142 143 35 143 160 40 160 161 40 161 162 40 162 160 40 160 162 40 162 163 40 163 164 41 164 165 41 165 166 41 166 164 41 164 166 41 166 167 41 167 168 42 168 169 42 169 170 42 170 168 42 168 170 42 170 171 42 171 172 43 172 173 43 173 174 43 174 172 43 172 174 43 174 175 43 175 192 48 192 193 48 193 194 48 194 192 48 192 194 48 194 195 48 195 196 49 196 197 49 197 198 49 198 196 49 196 198 49 198 199 49 199 200 50 200 201 50 201 202 50 202 200 50 200 202 50 202 203 50 203 204 51 204 205 51 205 206 51 206 204 51 204 206 51 206 207 51 207 224 56 224 225 56 225 226 56 226 224 56 224 226 56 226 227 56 227 228 57 228 229 57 229 230 57 230 228 57 228 230 57 230 231 57 231 232 58 232 233 58 233 234 58 234 232 58 232 234 58 234 235 58 235 236 59 236 237 59 237 238 59 238 236 59 236 238 59 238 239 59 239 256 64 256 257 64 257 258 64 258 256 64 256 258 64 258 259 64 259 260 65 260 261 65 261 262 65 262 260 65 260 262 65 262 263 65 263 264 66 264 265 66 265 266 66 266 264 66 264 266 66 266 267 66 267 268 67 268 269 67 269 270 67 270 268 67 268 270 67 270 271 67 271</p></triangles><triangles material="zone-material" count="4"><input semantic="VERTEX" source="#m-vertices" offset="0"/><input semantic="NORMAL" source="#m-normals" offset="1"/><input semantic="TEXCOORD" source="#m-uv" offset="2" set="0"/><p>288 72 288 289 72 289 290 72 290 288 72 288 290 72 290 291 72 291 292 73 292 293 73 293 294 73 294 292 73 292 294 73 294 295 73 295</p></triangles><triangles material="banner-material" count="2"><input semantic="VERTEX" source="#m-vertices" offset="0"/><input semantic="NORMAL" source="#m-normals" offset="1"/><input semantic="TEXCOORD" source="#m-uv" offset="2" set="0"/><p>300 75 300 301 75 301 302 75 302 300 75 300 302 75 302 303 75 303</p></triangles><triangles material="floor-material" count="2"><input semantic="VERTEX" source="#m-vertices" offset="0"/><input semantic="NORMAL" source="#m-normals" offset="1"/><input semantic="TEXCOORD" source="#m-uv" offset="2" set="0"/><p>296 74 296 297 74 297 298 74 298 296 74 296 298 74 298 299 74 299</p></triangles><triangles material="row_D1-material" count="8"><input semantic="VERTEX" source="#m-vertices" offset="0"/><input semantic="NORMAL" source="#m-normals" offset="1"/><input semantic="TEXCOORD" source="#m-uv" offset="2" set="0"/><p>16 4 16 17 4 17 18 4 18 16 4 16 18 4 18 19 4 19 20 5 20 21 5 21 22 5 22 20 5 20 22 5 22 23 5 23 24 6 24 25 6 25 26 6 26 24 6 24 26 6 26 27 6 27 28 7 28 29 7 29 30 7 30 28 7 28 30 7 30 31 7 31</p></triangles><triangles material="row_D2-material" count="16"><input semantic="VERTEX" source="#m-vertices" offset="0"/><input semantic="NORMAL" source="#m-normals" offset="1"/><input semantic="TEXCOORD" source="#m-uv" offset="2" set="0"/><p>48 12 48 49 12 49 50 12 50 48 12 48 50 12 50 51 12 51 52 13 52 53 13 53 54 13 54 52 13 52 54 13 54 55 13 55 56 14 56 57 14 57 58 14 58 56 14 56 58 14 58 59 14 59 60 15 60 61 15 61 62 15 62 60 15 60 62 15 62 63 15 63 80 20 80 81 20 81 82 20 82 80 20 80 82 20 82 83 20 83 84 21 84 85 21 85 86 21 86 84 21 84 86 21 86 87 21 87 88 22 88 89 22 89 90 22 90 88 22 88 90 22 90 91 22 91 92 23 92 93 23 93 94 23 94 92 23 92 94 23 94 95 23 95</p></triangles><triangles material="row_D3-material" count="16"><input semantic="VERTEX" source="#m-vertices" offset="0"/><input semantic="NORMAL" source="#m-normals" offset="1"/><input semantic="TEXCOORD" source="#m-uv" offset="2" set="0"/><p>112 28 112 113 28 113 114 28 114 112 28 112 114 28 114 115 28 115 116 29 116 117 29 117 118 29 118 116 29 116 118 29 118 119 29 119 120 30 120 121 30 121 122 30 122 120 30 120 122 30 122 123 30 123 124 31 124 125 31 125 126 31 126 124 31 124 126 31 126 127 31 127 144 36 144 145 36 145 146 36 146 144 36 144 146 36 146 147 36 147 148 37 148 149 37 149 150 37 150 148 37 148 150 37 150 151 37 151 152 38 152 153 38 153 154 38 154 152 38 152 154 38 154 155 38 155 156 39 156 157 39 157 158 39 158 156 39 156 158 39 158 159 39 159</p></triangles><triangles material="row_D4-material" count="16"><input semantic="VERTEX" source="#m-vertices" offset="0"/><input semantic="NORMAL" source="#m-normals" offset="1"/><input semantic="TEXCOORD" source="#m-uv" offset="2" set="0"/><p>176 44 176 177 44 177 178 44 178 176 44 176 178 44 178 179 44 179 180 45 180 181 45 181 182 45 182 180 45 180 182 45 182 183 45 183 184 46 184 185 46 185 186 46 186 184 46 184 186 46 186 187 46 187 188 47 188 189 47 189 190 47 190 188 47 188 190 47 190 191 47 191 208 52 208 209 52 209 210 52 210 208 52 208 210 52 210 211 52 211 212 53 212 213 53 213 214 53 214 212 53 212 214 53 214 215 53 215 216 54 216 217 54 217 218 54 218 216 54 216 218 54 218 219 54 219 220 55 220 221 55 221 222 55 222 220 55 220 222 55 222 223 55 223</p></triangles><triangles material="row_D5-material" count="16"><input semantic="VERTEX" source="#m-vertices" offset="0"/><input semantic="NORMAL" source="#m-normals" offset="1"/><input semantic="TEXCOORD" source="#m-uv" offset="2" set="0"/><p>240 60 240 241 60 241 242 60 242 240 60 240 242 60 242 243 60 243 244 61 244 245 61 245 246 61 246 244 61 244 246 61 246 247 61 247 248 62 248 249 62 249 250 62 250 248 62 248 250 62 250 251 62 251 252 63 252 253 63 253 254 63 254 252 63 252 254 63 254 255 63 255 272 68 272 273 68 273 274 68 274 272 68 272 274 68 274 275 68 275 276 69 276 277 69 277 278 69 278 276 69 276 278 69 278 279 69 279 280 70 280 281 70 281 282 70 282 280 70 280 282 70 282 283 70 283 284 71 284 285 71 285 286 71 286 284 71 284 286 71 286 287 71 287</p></triangles>
  </mesh></geometry></library_geometries>
  <library_visual_scenes><visual_scene id="Scene" name="Scene">
    <node id="mesh" name="mesh"><instance_geometry url="#m-mesh"><bind_material><technique_common>
      <instance_material symbol="yellow-material" target="#yellow-material"><bind_vertex_input semantic="UVSET0" input_semantic="TEXCOORD" input_set="0"/></instance_material><instance_material symbol="zone-material" target="#zone-material"><bind_vertex_input semantic="UVSET0" input_semantic="TEXCOORD" input_set="0"/></instance_material><instance_material symbol="banner-material" target="#banner-material"><bind_vertex_input semantic="UVSET0" input_semantic="TEXCOORD" input_set="0"/></instance_material><instance_material symbol="floor-material" target="#floor-material"><bind_vertex_input semantic="UVSET0" input_semantic="TEXCOORD" input_set="0"/></instance_material><instance_material symbol="row_D1-material" target="#row_D1-material"><bind_vertex_input semantic="UVSET0" input_semantic="TEXCOORD" input_set="0"/></instance_material><instance_material symbol="row_D2-material" target="#row_D2-material"><bind_vertex_input semantic="UVSET0" input_semantic="TEXCOORD" input_set="0"/></instance_material><instance_material symbol="row_D3-material" target="#row_D3-material"><bind_vertex_input semantic="UVSET0" input_semantic="TEXCOORD" input_set="0"/></instance_material><instance_material symbol="row_D4-material" target="#row_D4-material"><bind_vertex_input semantic="UVSET0" input_semantic="TEXCOORD" input_set="0"/></instance_material><instance_material symbol="row_D5-material" target="#row_D5-material"><bind_vertex_input semantic="UVSET0" input_semantic="TEXCOORD" input_set="0"/></instance_material>
    </technique_common></bind_material></instance_geometry></node>
  </visual_scene></library_visual_scenes>
  <scene><instance_visual_scene url="#Scene"/></scene>
</COLLADA>
