<?xml version="1.0" encoding="utf-8"?>
<COLLADA xmlns="http://www.collada.org/2005/11/COLLADASchema" version="1.4.1">
  <asset><unit name="meter" meter="1"/><up_axis>Z_UP</up_axis></asset>
  <library_images><image id="sign-image" name="sign-image"><init_from>sign.jpg</init_from></image><image id="floor-image" name="floor-image"><init_from>floor.jpg</init_from></image><image id="project-image" name="project-image"><init_from>project.jpg</init_from></image><image id="S1-image" name="S1-image"><init_from>S1.jpg</init_from></image><image id="S2-image" name="S2-image"><init_from>S2.jpg</init_from></image><image id="S3-image" name="S3-image"><init_from>S3.jpg</init_from></image><image id="S4-image" name="S4-image"><init_from>S4.jpg</init_from></image></library_images>
  <library_effects><effect id="yellow-effect"><profile_COMMON><technique sid="common"><lambert><diffuse><color sid="diffuse">0.95 0.75 0.05 1</color></diffuse></lambert></technique></profile_COMMON></effect><effect id="black-effect"><profile_COMMON><technique sid="common"><lambert><diffuse><color sid="diffuse">0.05 0.05 0.05 1</color></diffuse></lambert></technique></profile_COMMON></effect><effect id="sign-effect"><profile_COMMON><newparam sid="sign-surface"><surface type="2D"><init_from>sign-image</init_from></surface></newparam><newparam sid="sign-sampler"><sampler2D><source>sign-surface</source></sampler2D></newparam><technique sid="common"><lambert><diffuse><texture texture="sign-sampler" texcoord="UVSET0"/></diffuse></lambert></technique></profile_COMMON></effect><effect id="floor-effect"><profile_COMMON><newparam sid="floor-surface"><surface type="2D"><init_from>floor-image</init_from></surface></newparam><newparam sid="floor-sampler"><sampler2D><source>floor-surface</source></sampler2D></newparam><technique sid="common"><lambert><diffuse><texture texture="floor-sampler" texcoord="UVSET0"/></diffuse></lambert></technique></profile_COMMON></effect><effect id="project-effect"><profile_COMMON><newparam sid="project-surface"><surface type="2D"><init_from>project-image</init_from></surface></newparam><newparam sid="project-sampler"><sampler2D><source>project-surface</source></sampler2D></newparam><technique sid="common"><lambert><diffuse><texture texture="project-sampler" texcoord="UVSET0"/></diffuse></lambert></technique></profile_COMMON></effect><effect id="S1-effect"><profile_COMMON><newparam sid="S1-surface"><surface type="2D"><init_from>S1-image</init_from></surface></newparam><newparam sid="S1-sampler"><sampler2D><source>S1-surface</source></sampler2D></newparam><technique sid="common"><lambert><diffuse><texture texture="S1-sampler" texcoord="UVSET0"/></diffuse></lambert></technique></profile_COMMON></effect><effect id="S2-effect"><profile_COMMON><newparam sid="S2-surface"><surface type="2D"><init_from>S2-image</init_from></surface></newparam><newparam sid="S2-sampler"><sampler2D><source>S2-surface</source></sampler2D></newparam><technique sid="common"><lambert><diffuse><texture texture="S2-sampler" texcoord="UVSET0"/></diffuse></lambert></technique></profile_COMMON></effect><effect id="S3-effect"><profile_COMMON><newparam sid="S3-surface"><surface type="2D"><init_from>S3-image</init_from></surface></newparam><newparam sid="S3-sampler"><sampler2D><source>S3-surface</source></sampler2D></newparam><technique sid="common"><lambert><diffuse><texture texture="S3-sampler" texcoord="UVSET0"/></diffuse></lambert></technique></profile_COMMON></effect><effect id="S4-effect"><profile_COMMON><newparam sid="S4-surface"><surface type="2D"><init_from>S4-image</init_from></surface></newparam><newparam sid="S4-sampler"><sampler2D><source>S4-surface</source></sampler2D></newparam><technique sid="common"><lambert><diffuse><texture texture="S4-sampler" texcoord="UVSET0"/></diffuse></lambert></technique></profile_COMMON></effect></library_effects>
  <library_materials><material id="yellow-material" name="yellow"><instance_effect url="#yellow-effect"/></material><material id="black-material" name="black"><instance_effect url="#black-effect"/></material><material id="sign-material" name="sign"><instance_effect url="#sign-effect"/></material><material id="floor-material" name="floor"><instance_effect url="#floor-effect"/></material><material id="project-material" name="project"><instance_effect url="#project-effect"/></material><material id="S1-material" name="S1"><instance_effect url="#S1-effect"/></material><material id="S2-material" name="S2"><instance_effect url="#S2-effect"/></material><material id="S3-material" name="S3"><instance_effect url="#S3-effect"/></material><material id="S4-material" name="S4"><instance_effect url="#S4-effect"/></material></library_materials>
  <library_geometries><geometry id="m-mesh" name="mesh"><mesh>
    <source id="m-positions"><float_array id="m-positions-array" count="1776">-8.8 -4.96 0.003 -8.5 -4.96 0.003 -8.5 -4.84 0.003 -8.8 -4.84 0.003 -8.5 -4.96 0.003 -8.2 -4.96 0.003 -8.2 -4.84 0.003 -8.5 -4.84 0.003 -8.2 -4.96 0.003 -7.9 -4.96 0.003 -7.9 -4.84 0.003 -8.2 -4.84 0.003 -7.9 -4.96 0.003 -7.6 -4.96 0.003 -7.6 -4.84 0.003 -7.9 -4.84 0.003 -7.6 -4.96 0.003 -7.3 -4.96 0.003 -7.3 -4.84 0.003 -7.6 -4.84 0.003 -7.3 -4.96 0.003 -7 -4.96 0.003 -7 -4.84 0.003 -7.3 -4.84 0.003 -7 -4.96 0.003 -6.7 -4.96 0.003 -6.7 -4.84 0.003 -7 -4.84 0.003 -6.7 -4.96 0.003 -6.4 -4.96 0.003 -6.4 -4.84 0.003 -6.7 -4.84 0.003 -6.4 -4.96 0.003 -6.1 -4.96 0.003 -6.1 -4.84 0.003 -6.4 -4.84 0.003 -6.1 -4.96 0.003 -5.8 -4.96 0.003 -5.8 -4.84 0.003 -6.1 -4.84 0.003 -5.8 -4.96 0.003 -5.5 -4.96 0.003 -5.5 -4.84 0.003 -5.8 -4.84 0.003 -5.5 -4.96 0.003 -5.2 -4.96 0.003 -5.2 -4.84 0.003 -5.5 -4.84 0.003 -5.2 -4.96 0.003 -4.9 -4.96 0.003 -4.9 -4.84 0.003 -5.2 -4.84 0.003 -4.9 -4.96 0.003 -4.6 -4.96 0.003 -4.6 -4.84 0.003 -4.9 -4.84 0.003 -4.6 -4.96 0.003 -4.3 -4.96 0.003 -4.3 -4.84 0.003 -4.6 -4.84 0.003 -4.3 -4.96 0.003 -4 -4.96 0.003 -4 -4.84 0.003 -4.3 -4.84 0.003 -4 -4.96 0.003 -3.7 -4.96 0.003 -3.7 -4.84 0.003 -4 -4.84 0.003 -3.7 -4.96 0.003 -3.4 -4.96 0.003 -3.4 -4.84 0.003 -3.7 -4.84 0.003 -3.4 -4.96 0.003 -3.1 -4.96 0.003 -3.1 -4.84 0.003 -3.4 -4.84 0.003 -3.1 -4.96 0.003 -2.8 -4.96 0.003 -2.8 -4.84 0.003 -3.1 -4.84 0.003 -2.8 -4.96 0.003 -2.5 -4.96 0.003 -2.5 -4.84 0.003 -2.8 -4.84 0.003 -2.5 -4.96 0.003 -2.2 -4.96 0.003 -2.2 -4.84 0.003 -2.5 -4.84 0.003 -2.2 -4.96 0.003 -1.9 -4.96 0.003 -1.9 -4.84 0.003 -2.2 -4.84 0.003 -1.86 -4.9 0.003 -1.74 -4.9 0.003 -1.74 -4.6 0.003 -1.86 -4.6 0.003 -1.86 -4.6 0.003 -1.74 -4.6 0.003 -1.74 -4.3 0.003 -1.86 -4.3 0.003 -1.86 -4.3 0.003 -1.74 -4.3 0.003 -1.74 -4 0.003 -1.86 -4 0.003 -1.86 -4 0.003 -1.74 -4 0.003 -1.74 -3.7 0.003 -1.86 -3.7 0.003 -1.86 -3.7 0.003 -1.74 -3.7 0.003 -1.74 -3.4 0.003 -1.86 -3.4 0.003 -1.86 -3.4 0.003 -1.74 -3.4 0.003 -1.74 -3.1 0.003 -1.86 -3.1 0.003 -1.86 -3.1 0.003 -1.74 -3.1 0.003 -1.74 -2.8 0.003 -1.86 -2.8 0.003 -1.86 -2.8 0.003 -1.74 -2.8 0.003 -1.74 -2.5 0.003 -1.86 -2.5 0.003 -1.86 -2.5 0.003 -1.74 -2.5 0.003 -1.74 -2.2 0.003 -1.86 -2.2 0.003 -1.86 -2.2 0.003 -1.74 -2.2 0.003 -1.74 -1.9 0.003 -1.86 -1.9 0.003 -1.86 -1.9 0.003 -1.74 -1.9 0.003 -1.74 -1.6 0.003 -1.86 -1.6 0.003 -1.86 -1.6 0.003 -1.74 -1.6 0.003 -1.74 -1.3 0.003 -1.86 -1.3 0.003 -1.86 -1.3 0.003 -1.74 -1.3 0.003 -1.74 -1 0.003 -1.86 -1 0.003 -1.86 -1 0.003 -1.74 -1 0.003 -1.74 -0.7 0.003 -1.86 -0.7 0.003 -1.86 -0.7 0.003 -1.74 -0.7 0.003 -1.74 -0.4 0.003 -1.86 -0.4 0.003 -1.86 -0.4 0.003 -1.74 -0.4 0.003 -1.74 -0.1 0.003 -1.86 -0.1 0.003 -1.8 0.04 0.003 -1.5 0.04 0.003 -1.5 0.16 0.003 -1.8 0.16 0.003 -1.5 0.04 0.003 -1.2 0.04 0.003 -1.2 0.16 0.003 -1.5 0.16 0.003 -1.2 0.04 0.003 -0.9 0.04 0.003 -0.9 0.16 0.003 -1.2 0.16 0.003 -0.9 0.04 0.003 -0.6 0.04 0.003 -0.6 0.16 0.003 -0.9 0.16 0.003 -0.6 0.04 0.003 -0.3 0.04 0.003 -0.3 0.16 0.003 -0.6 0.16 0.003 -0.3 0.04 0.003 -1.3878e-16 0.04 0.003 -1.3878e-16 0.16 0.003 -0.3 0.16 0.003 -8.3267e-17 0.04 0.003 0.3 0.04 0.003 0.3 0.16 0.003 -8.3267e-17 0.16 0.003 0.3 0.04 0.003 0.6 0.04 0.003 0.6 0.16 0.003 0.3 0.16 0.003 0.54 0.1 0.003 0.66 0.1 0.003 0.66 0.4 0.003 0.54 0.4 0.003 0.54 0.4 0.003 0.66 0.4 0.003 0.66 0.7 0.003 0.54 0.7 0.003 0.54 0.7 0.003 0.66 0.7 0.003 0.66 1 0.003 0.54 1 0.003 0.54 1 0.003 0.66 1 0.003 0.66 1.3 0.003 0.54 1.3 0.003 0.54 1.3 0.003 0.66 1.3 0.003 0.66 1.6 0.003 0.54 1.6 0.003 0.54 1.6 0.003 0.66 1.6 0.003 0.66 1.9 0.003 0.54 1.9 0.003 0.54 1.9 0.003 0.66 1.9 0.003 0.66 2.2 0.003 0.54 2.2 0.003 0.54 2.2 0.003 0.66 2.2 0.003 0.66 2.5 0.003 0.54 2.5 0.003 0.54 2.5 0.003 0.66 2.5 0.003 0.66 2.8 0.003 0.54 2.8 0.003 0.54 2.8 0.003 0.66 2.8 0.003 0.66 3.1 0.003 0.54 3.1 0.003 0.54 3.1 0.003 0.66 3.1 0.003 0.66 3.4 0.003 0.54 3.4 0.003 0.54 3.4 0.003 0.66 3.4 0.003 0.66 3.7 0.003 0.54 3.7 0.003 0.54 3.7 0.003 0.66 3.7 0.003 0.66 4 0.003 0.54 4 0.003 0.54 4 0.003 0.66 4 0.003 0.66 4.3 0.003 0.54 4.3 0.003 0.54 4.3 0.003 0.66 4.3 0.003 0.66 4.6 0.003 0.54 4.6 0.003 0.54 4.6 0.003 0.66 4.6 0.003 0.66 4.9 0.003 0.54 4.9 0.003 0.54 4.9 0.003 0.66 4.9 0.003 0.66 5.2 0.003 0.54 5.2 0.003 0.54 5.2 0.003 0.66 5.2 0.003 0.66 5.5 0.003 0.54 5.5 0.003 0.54 5.5 0.003 0.66 5.5 0.003 0.66 5.8 0.003 0.54 5.8 0.003 0.54 5.8 0.003 0.66 5.8 0.003 0.66 6.1 0.003 0.54 6.1 0.003 0.54 6.1 0.003 0.66 6.1 0.003 0.66 6.4 0.003 0.54 6.4 0.003 0.54 6.4 0.003 0.66 6.4 0.003 0.66 6.7 0.003 0.54 6.7 0.003 0.54 6.7 0.003 0.66 6.7 0.003 0.66 7 0.003 0.54 7 0.003 0.3 7.04 0.003 0.6 7.04 0.003 0.6 7.16 0.003 0.3 7.16 0.003 2.7756e-17 7.04 0.003 0.3 7.04 0.003 0.3 7.16 0.003 2.7756e-17 7.16 0.003 -0.3 7.04 0.003 -2.7756e-17 7.04 0.003 -2.7756e-17 7.16 0.003 -0.3 7.16 0.003 -0.6 7.04 0.003 -0.3 7.04 0.003 -0.3 7.16 0.003 -0.6 7.16 0.003 -0.9 7.04 0.003 -0.6 7.04 0.003 -0.6 7.16 0.003 -0.9 7.16 0.003 -1.2 7.04 0.003 -0.9 7.04 0.003 -0.9 7.16 0.003 -1.2 7.16 0.003 -1.5 7.04 0.003 -1.2 7.04 0.003 -1.2 7.16 0.003 -1.5 7.16 0.003 -1.8 7.04 0.003 -1.5 7.04 0.003 -1.5 7.16 0.003 -1.8 7.16 0.003 -2.1 7.04 0.003 -1.8 7.04 0.003 -1.8 7.16 0.003 -2.1 7.16 0.003 -2.4 7.04 0.003 -2.1 7.04 0.003 -2.1 7.16 0.003 -2.4 7.16 0.003 -2.7 7.04 0.003 -2.4 7.04 0.003 -2.4 7.16 0.003 -2.7 7.16 0.003 -3 7.04 0.003 -2.7 7.04 0.003 -2.7 7.16 0.003 -3 7.16 0.003 -3.3 7.04 0.003 -3 7.04 0.003 -3 7.16 0.003 -3.3 7.16 0.003 -3.6 7.04 0.003 -3.3 7.04 0.003 -3.3 7.16 0.003 -3.6 7.16 0.003 -3.9 7.04 0.003 -3.6 7.04 0.003 -3.6 7.16 0.003 -3.9 7.16 0.003 -4.2 7.04 0.003 -3.9 7.04 0.003 -3.9 7.16 0.003 -4.2 7.16 0.003 -4.5 7.04 0.003 -4.2 7.04 0.003 -4.2 7.16 0.003 -4.5 7.16 0.003 -4.8 7.04 0.003 -4.5 7.04 0.003 -4.5 7.16 0.003 -4.8 7.16 0.003 -5.1 7.04 0.003 -4.8 7.04 0.003 -4.8 7.16 0.003 -5.1 7.16 0.003 -5.4 7.04 0.003 -5.1 7.04 0.003 -5.1 7.16 0.003 -5.4 7.16 0.003 -5.7 7.04 0.003 -5.4 7.04 0.003 -5.4 7.16 0.003 -5.7 7.16 0.003 -6 7.04 0.003 -5.7 7.04 0.003 -5.7 7.16 0.003 -6 7.16 0.003 -6.3 7.04 0.003 -6 7.04 0.003 -6 7.16 0.003 -6.3 7.16 0.003 -6.6 7.04 0.003 -6.3 7.04 0.003 -6.3 7.16 0.003 -6.6 7.16 0.003 -6.9 7.04 0.003 -6.6 7.04 0.003 -6.6 7.16 0.003 -6.9 7.16 0.003 -7.2 7.04 0.003 -6.9 7.04 0.003 -6.9 7.16 0.003 -7.2 7.16 0.003 -7.5 7.04 0.003 -7.2 7.04 0.003 -7.2 7.16 0.003 -7.5 7.16 0.003 -7.8 7.04 0.003 -7.5 7.04 0.003 -7.5 7.16 0.003 -7.8 7.16 0.003 -8.1 7.04 0.003 -7.8 7.04 0.003 -7.8 7.16 0.003 -8.1 7.16 0.003 -8.4 7.04 0.003 -8.1 7.04 0.003 -8.1 7.16 0.003 -8.4 7.16 0.003 -8.7 7.04 0.003 -8.4 7.04 0.003 -8.4 7.16 0.003 -8.7 7.16 0.003 -8.86 6.8 0.003 -8.74 6.8 0.003 -8.74 7.1 0.003 -8.86 7.1 0.003 -8.86 6.5 0.003 -8.74 6.5 0.003 -8.74 6.8 0.003 -8.86 6.8 0.003 -8.86 6.2 0.003 -8.74 6.2 0.003 -8.74 6.5 0.003 -8.86 6.5 0.003 -8.86 5.9 0.003 -8.74 5.9 0.003 -8.74 6.2 0.003 -8.86 6.2 0.003 -8.86 5.6 0.003 -8.74 5.6 0.003 -8.74 5.9 0.003 -8.86 5.9 0.003 -8.86 5.3 0.003 -8.74 5.3 0.003 -8.74 5.6 0.003 -8.86 5.6 0.003 -8.86 5 0.003 -8.74 5 0.003 -8.74 5.3 0.003 -8.86 5.3 0.003 -8.86 4.7 0.003 -8.74 4.7 0.003 -8.74 5 0.003 -8.86 5 0.003 -8.86 4.4 0.003 -8.74 4.4 0.003 -8.74 4.7 0.003 -8.86 4.7 0.003 -8.86 4.1 0.003 -8.74 4.1 0.003 -8.74 4.4 0.003 -8.86 4.4 0.003 -8.86 3.8 0.003 -8.74 3.8 0.003 -8.74 4.1 0.003 -8.86 4.1 0.003 -8.86 3.5 0.003 -8.74 3.5 0.003 -8.74 3.8 0.003 -8.86 3.8 0.003 -8.86 3.2 0.003 -8.74 3.2 0.003 -8.74 3.5 0.003 -8.86 3.5 0.003 -8.86 2.9 0.003 -8.74 2.9 0.003 -8.74 3.2 0.003 -8.86 3.2 0.003 -8.86 2.6 0.003 -8.74 2.6 0.003 -8.74 2.9 0.003 -8.86 2.9 0.003 -8.86 2.3 0.003 -8.74 2.3 0.003 -8.74 2.6 0.003 -8.86 2.6 0.003 -8.86 2 0.003 -8.74 2 0.003 -8.74 2.3 0.003 -8.86 2.3 0.003 -8.86 1.7 0.003 -8.74 1.7 0.003 -8.74 2 0.003 -8.86 2 0.003 -8.86 1.4 0.003 -8.74 1.4 0.003 -8.74 1.7 0.003 -8.86 1.7 0.003 -8.86 1.1 0.003 -8.74 1.1 0.003 -8.74 1.4 0.003 -8.86 1.4 0.003 -8.86 0.8 0.003 -8.74 0.8 0.003 -8.74 1.1 0.003 -8.86 1.1 0.003 -8.86 0.5 0.003 -8.74 0.5 0.003 -8.74 0.8 0.003 -8.86 0.8 0.003 -8.86 0.2 0.003 -8.74 0.2 0.003 -8.74 0.5 0.003 -8.86 0.5 0.003 -8.86 -0.1 0.003 -8.74 -0.1 0.003 -8.74 0.2 0.003 -8.86 0.2 0.003 -8.86 -0.4 0.003 -8.74 -0.4 0.003 -8.74 -0.1 0.003 -8.86 -0.1 0.003 -8.86 -0.7 0.003 -8.74 -0.7 0.003 -8.74 -0.4 0.003 -8.86 -0.4 0.003 -8.86 -1 0.003 -8.74 -1 0.003 -8.74 -0.7 0.003 -8.86 -0.7 0.003 -8.86 -1.3 0.003 -8.74 -1.3 0.003 -8.74 -1 0.003 -8.86 -1 0.003 -8.86 -1.6 0.003 -8.74 -1.6 0.003 -8.74 -1.3 0.003 -8.86 -1.3 0.003 -8.86 -1.9 0.003 -8.74 -1.9 0.003 -8.74 -1.6 0.003 -8.86 -1.6 0.003 -8.86 -2.2 0.003 -8.74 -2.2 0.003 -8.74 -1.9 0.003 -8.86 -1.9 0.003 -8.86 -2.5 0.003 -8.74 -2.5 0.003 -8.74 -2.2 0.003 -8.86 -2.2 0.003 -8.86 -2.8 0.003 -8.74 -2.8 0.003 -8.74 -2.5 0.003 -8.86 -2.5 0.003 -8.86 -3.1 0.003 -8.74 -3.1 0.003 -8.74 -2.8 0.003 -8.86 -2.8 0.003 -8.86 -3.4 0.003 -8.74 -3.4 0.003 -8.74 -3.1 0.003 -8.86 -3.1 0.003 -8.86 -3.7 0.003 -8.74 -3.7 0.003 -8.74 -3.4 0.003 -8.86 -3.4 0.003 -8.86 -4 0.003 -8.74 -4 0.003 -8.74 -3.7 0.003 -8.86 -3.7 0.003 -8.86 -4.3 0.003 -8.74 -4.3 0.003 -8.74 -4 0.003 -8.86 -4 0.003 -8.86 -4.6 0.003 -8.74 -4.6 0.003 -8.74 -4.3 0.003 -8.86 -4.3 0.003 -8.86 -4.9 0.003 -8.74 -4.9 0.003 -8.74 -4.6 0.003 -8.86 -4.6 0.003 -3.6 -1.9 0.004 -3.6 -0.7 0.004 -4.8 -0.7 0.004 -4.8 -1.9 0.004 -3.6 -4.3 0.004 -3.6 -3.1 0.004 -4.8 -3.1 0.004 -4.8 -4.3 0.004 -5.8 -4.3 0.004 -5.8 -3.1 0.004 -7 -3.1 0.004 -7 -4.3 0.004 -3.6 -0.4 0.004 -3.6 0.8 0.004 -4.8 0.8 0.004 -4.8 -0.4 0.004 -8.1 -0.125 0.004 -5.1 -0.125 0.004 -5.1 0.625 0.004 -8.1 0.625 0.004 -8.88 -3.1 3.75 -8.88 0.5 3.75 -8.88 0.5 4.65 -8.88 -3.1 4.65 -8.88 0.8 3.775 -8.88 7.8 3.775 -8.88 7.8 5.525 -8.88 0.8 5.525</float_array><technique_common><accessor source="#m-positions-array" count="592" stride="3"><param name="X" type="float"/><param name="Y" type="float"/><param name="Z" type="float"/></accessor></technique_common></source>
    <source id="m-normals"><float_array id="m-normals-array" count="444">0 0 1 0 0 1 0 0 1 0 0 1 0 0 1 0 0 1 0 0 1 0 0 1 0 0 1 0 0 1 0 0 1 0 0 1 0 0 1 0 0 1 0 0 1 0 0 1 0 0 1 0 0 1 0 0 1 0 0 1 0 0 1 0 0 1 0 0 1 0 0 1 0 0 1 0 0 1 0 0 1 0 0 1 0 0 1 0 0 1 0 0 1 0 0 1 0 0 1 0 0 1 0 0 1 0 0 1 0 0 1 0 0 1 0 0 1 0 0 1 0 0 1 0 0 1 0 0 1 0 0 1 0 0 1 0 0 1 0 0 1 0 0 1 0 0 1 0 0 1 0 0 1 0 0 1 0 0 1 0 0 1 0 0 1 0 0 1 0 0 1 0 0 1 0 0 1 0 0 1 0 0 1 0 0 1 0 0 1 0 0 1 0 0 1 0 0 1 0 0 1 0 0 1 0 0 1 0 0 1 0 0 1 0 0 1 0 0 1 0 0 1 0 0 1 0 0 1 0 0 1 0 0 1 0 0 1 0 0 1 0 0 1 0 0 1 0 0 1 0 0 1 0 0 1 0 0 1 0 0 1 0 0 1 0 0 1 0 0 1 0 0 1 0 0 1 0 0 1 0 0 1 0 0 1 0 0 1 0 0 1 0 0 1 0 0 1 0 0 1 0 0 1 0 0 1 0 0 1 0 0 1 0 0 1 0 0 1 0 0 1 0 0 1 0 0 1 0 0 1 0 0 1 0 0 1 0 0 1 0 0 1 0 0 1 0 0 1 0 0 1 0 0 1 0 0 1 0 0 1 0 0 1 0 0 1 0 0 1 0 0 1 0 0 1 0 0 1 0 0 1 0 0 1 0 0 1 0 0 1 0 0 1 0 0 1 0 0 1 0 0 1 0 0 1 0 0 1 0 0 1 0 0 1 0 0 1 0 0 1 0 0 1 0 0 1 0 0 1 0 0 1 0 0 1 0 0 1 1 0 0 1 0 0</float_array><technique_common><accessor source="#m-normals-array" count="148" stride="3"><param name="X" type="float"/><param name="Y" type="float"/><param name="Z" type="float"/></accessor></technique_common></source>
    <source id="m-uv"><float_array id="m-uv-array" count="1184">0 0 1 0 1 1 0 1 0 0 1 0 1 1 0 1 0 0 1 0 1 1 0 1 0 0 1 0 1 1 0 1 0 0 1 0 1 1 0 1 0 0 1 0 1 1 0 1 0 0 1 0 1 1 0 1 0 0 1 0 1 1 0 1 0 0 1 0 1 1 0 1 0 0 1 0 1 1 0 1 0 0 1 0 1 1 0 1 0 0 1 0 1 1 0 1 0 0 1 0 1 1 0 1 0 0 1 0 1 1 0 1 0 0 1 0 1 1 0 1 0 0 1 0 1 1 0 1 0 0 1 0 1 1 0 1 0 0 1 0 1 1 0 1 0 0 1 0 1 1 0 1 0 0 1 0 1 1 0 1 0 0 1 0 1 1 0 1 0 0 1 0 1 1 0 1 0 0 1 0 1 1 0 1 0 0 1 0 1 1 0 1 0 0 1 0 1 1 0 1 0 0 1 0 1 1 0 1 0 0 1 0 1 1 0 1 0 0 1 0 1 1 0 1 0 0 1 0 1 1 0 1 0 0 1 0 1 1 0 1 0 0 1 0 1 1 0 1 0 0 1 0 1 1 0 1 0 0 1 0 1 1 0 1 0 0 1 0 1 1 0 1 0 0 1 0 1 1 0 1 0 0 1 0 1 1 0 1 0 0 1 0 1 1 0 1 0 0 1 0 1 1 0 1 0 0 1 0 1 1 0 1 0 0 1 0 1 1 0 1 0 0 1 0 1 1 0 1 0 0 1 0 1 1 0 1 0 0 1 0 1 1 0 1 0 0 1 0 1 1 0 1 0 0 1 0 1 1 0 1 0 0 1 0 1 1 0 1 0 0 1 0 1 1 0 1 0 0 1 0 1 1 0 1 0 0 1 0 1 1 0 1 0 0 1 0 1 1 0 1 0 0 1 0 1 1 0 1 0 0 1 0 1 1 0 1 0 0 1 0 1 1 0 1 0 0 1 0 1 1 0 1 0 0 1 0 1 1 0 1 0 0 1 0 1 1 0 1 0 0 1 0 1 1 0 1 0 0 1 0 1 1 0 1 0 0 1 0 1 1 0 1 0 0 1 0 1 1 0 1 0 0 1 0 1 1 0 1 0 0 1 0 1 1 0 1 0 0 1 0 1 1 0 1 0 0 1 0 1 1 0 1 0 0 1 0 1 1 0 1 0 0 1 0 1 1 0 1 0 0 1 0 1 1 0 1 0 0 1 0 1 1 0 1 0 0 1 0 1 1 0 1 0 0 1 0 1 1 0 1 0 0 1 0 1 1 0 1 0 0 1 0 1 1 0 1 0 0 1 0 1 1 0 1 0 0 1 0 1 1 0 1 0 0 1 0 1 1 0 1 0 0 1 0 1 1 0 1 0 0 1 0 1 1 0 1 0 0 1 0 1 1 0 1 0 0 1 0 1 1 0 1 0 0 1 0 1 1 0 1 0 0 1 0 1 1 0 1 0 0 1 0 1 1 0 1 0 0 1 0 1 1 0 1 0 0 1 0 1 1 0 1 0 0 1 0 1 1 0 1 0 0 1 0 1 1 0 1 0 0 1 0 1 1 0 1 0 0 1 0 1 1 0 1 0 0 1 0 1 1 0 1 0 0 1 0 1 1 0 1 0 0 1 0 1 1 0 1 0 0 1 0 1 1 0 1 0 0 1 0 1 1 0 1 0 0 1 0 1 1 0 1 0 0 1 0 1 1 0 1 0 0 1 0 1 1 0 1 0 0 1 0 1 1 0 1 0 0 1 0 1 1 0 1 0 0 1 0 1 1 0 1 0 0 1 0 1 1 0 1 0 0 1 0 1 1 0 1 0 0 1 0 1 1 0 1 0 0 1 0 1 1 0 1 0 0 1 0 1 1 0 1 0 0 1 0 1 1 0 1 0 0 1 0 1 1 0 1 0 0 1 0 1 1 0 1 0 0 1 0 1 1 0 1 0 0 1 0 1 1 0 1 0 0 1 0 1 1 0 1 0 0 1 0 1 1 0 1 0 0 1 0 1 1 0 1 0 0 1 0 1 1 0 1 0 0 1 0 1 1 0 1 0 0 1 0 1 1 0 1 0 0 1 0 1 1 0 1 0 0 1 0 1 1 0 1 0 0 1 0 1 1 0 1 0 0 1 0 1 1 0 1 0 0 1 0 1 1 0 1 0 0 1 0 1 1 0 1 0 0 1 0 1 1 0 1 0 0 1 0 1 1 0 1 0 0 1 0 1 1 0 1 0 0 1 0 1 1 0 1 0 0 1 0 1 1 0 1 0 0 1 0 1 1 0 1 0 0 1 0 1 1 0 1 0 0 1 0 1 1 0 1 0 0 1 0 1 1 0 1 0 0 1 0 1 1 0 1 0 0 1 0 1 1 0 1 0 0 1 0 1 1 0 1 0 0 1 0 1 1 0 1 0 0 1 0 1 1 0 1 0 0 1 0 1 1 0 1 0 0 1 0 1 1 0 1 0 0 1 0 1 1 0 1 0 0 1 0 1 1 0 1 0 0 1 0 1 1 0 1 0 0 1 0 1 1 0 1 0 0 1 0 1 1 0 1 0 0 1 0 1 1 0 1 0 0 1 0 1 1 0 1 0 0 1 0 1 1 0 1 0 0 1 0 1 1 0 1 0 0 1 0 1 1 0 1 0 0 1 0 1 1 0 1</float_array><technique_common><accessor source="#m-uv-array" count="592" stride="2"><param name="S" type="float"/><param name="T" type="float"/></accessor></technique_common></source>
    <vertices id="m-vertices"><input semantic="POSITION" source="#m-positions"/></vertices>
    <triangles material="yellow-material" count="144"><input semantic="VERTEX" source="#m-vertices" offset="0"/><input semantic="NORMAL" source="#m-normals" offset="1"/><input semantic="TEXCOORD" source="#m-uv" offset="2" set="0"/><p>0 0 0 1 0 1 2 0 2 0 0 0 2 0 2 3 0 3 8 2 8 9 2 9 10 2 10 8 2 8 10 2 10 11 2 11 16 4 16 17 4 17 18 4 18 16 4 16 18 4 18 19 4 19 24 6 24 25 6 25 26 6 26 24 6 24 26 6 26 27 6 27 32 8 32 33 8 33 34 8 34 32 8 32 34 8 34 35 8 35 40 10 40 41 10 41 42 10 42 40 10 40 42 10 42 43 10 43 48 12 48 49 12 49 50 12 50 48 12 48 50 12 50 51 12 51 56 14 56 57 14 57 58 14 58 56 14 56 58 14 58 59 14 59 64 16 64 65 16 65 66 16 66 64 16 64 66 16 66 67 16 67 72 18 72 73 18 73 74 18 74 72 18 72 74 18 74 75 18 75 80 20 80 81 20 81 82 20 82 80 20 80 82 20 82 83 20 83 88 22 88 89 22 89 90 22 90 88 22 88 90 22 90 91 22 91 92 23 92 93 23 93 94 23 94 92 23 92 94 23 94 95 23 95 100 25 100 101 25 101 102 25 102 100 25 100 102 25 102 103 25 103 108 27 108 109 27 109 110 27 110 108 27 108 110 27 110 111 27 111 116 29 116 117 29 117 118 29 118 116 29 116 118 29 118 119 29 119 124 31 124 125 31 125 126 31 126 124 31 124 126 31 126 127 31 127 132 33 132 133 33 133 134 33 134 132 33 132 134 33 134 135 33 135 140 35 140 141 35 141 142 35 142 140 35 140 142 35 142 143 35 143 148 37 148 149 37 149 150 37 150 148 37 148 150 37 150 151 37 151 156 39 156 157 39 157 158 39 158 156 39 156 158 39 158 159 39 159 164 41 164 165 41 165 166 41 166 164 41 164 166 41 166 167 41 167 172 43 172 173 43 173 174 43 174 172 43 172 174 43 174 175 43 175 180 45 180 181 45 181 182 45 182 180 45 180 182 45 182 183 45 183 188 47 188 189 47 189 190 47 190 188 47 188 190 47 190 191 47 191 196 49 196 197 49 197 198 49 198 196 49 196 198 49 198 199 49 199 204 51 204 205 51 205 206 51 206 204 51 204 206 51 206 207 51 207 212 53 212 213 53 213 214 53 214 212 53 212 214 53 214 215 53 215 220 55 220 221 55 221 222 55 222 220 55 220 222 55 222 223 55 223 228 57 228 229 57 229 230 57 230 228 57 228 230 57 230 231 57 231 236 59 236 237 59 237 238 59 238 236 59 236 238 59 238 239 59 239 244 61 244 245 61 245 246 61 246 244 61 244 246 61 246 247 61 247 252 63 252 253 63 253 254 63 254 252 63 252 254 63 254 255 63 255 260 65 260 261 65 261 262 65 262 260 65 260 262 65 262 263 65 263 268 67 268 269 67 269 270 67 270 268 67 268 270 67 270 271 67 271 276 69 276 277 69 277 278 69 278 276 69 276 278 69 278 279 69 279 280 70 280 281 70 281 282 70 282 280 70 280 282 70 282 283 70 283 288 72 288 289 72 289 290 72 290 288 72 288 290 72 290 291 72 291 296 74 296 297 74 297 298 74 298 296 74 296 298 74 298 299 74 299 304 76 304 305 76 305 306 76 306 304 76 304 306 76 306 307 76 307 312 78 312 313 78 313 314 78 314 312 78 312 314 78 314 315 78 315 320 80 320 321 80 321 322 80 322 320 80 320 322 80 322 323 80 323 328 82 328 329 82 329 330 82 330 328 82 328 330 82 330 331 82 331 336 84 336 337 84 337 338 84 338 336 84 336 338 84 338 339 84 339 344 86 344 345 86 345 346 86 346 344 86 344 346 86 346 347 86 347 352 88 352 353 88 353 354 88 354 352 88 352 354 88 354 355 88 355 360 90 360 361 90 361 362 90 362 360 90 360 362 90 362 363 90 363 368 92 368 369 92 369 370 92 370 368 92 368 370 92 370 371 92 371 376 94 376 377 94 377 378 94 378 376 94 376 378 94 378 379 94 379 384 96 384 385 96 385 386 96 386 384 96 384 386 96 386 387 96 387 392 98 392 393 98 393 394 98 394 392 98 392 394 98 394 395 98 395 400 100 400 401 100 401 402 100 402 400 100 400 402 100 402 403 100 403 404 101 404 405 101 405 406 101 406 404 101 404 406 101 406 407 101 407 412 103 412 413 103 413 414 103 414 412 103 412 414 103 414 415 103 415 420 105 420 421 105 421 422 105 422 420 105 420 422 105 422 423 105 423 428 107 428 429 107 429 430 107 430 428 107 428 430 107 430 431 107 431 436 109 436 437 109 437 438 109 438 436 109 436 438 109 438 439 109 439 444 111 444 445 111 445 446 111 446 444 111 444 446 111 446 447 111 447 452 113 452 453 113 453 454 113 454 452 113 452 454 113 454 455 113 455 460 115 460 461 115 461 462 115 462 460 115 460 462 115 462 463 115 463 468 117 468 469 117 469 470 117 470 468 117 468 470 117 470 471 117 471 476 119 476 477 119 477 478 119 478 476 119 476 478 119 478 479 119 479 484 121 484 485 121 485 486 121 486 484 121 484 486 121 486 487 121 487 492 123 492 493 123 493 494 123 494 492 123 492 494 123 494 495 123 495 500 125 500 501 125 501 502 125 502 500 125 500 502 125 502 503 125 503 508 127 508 509 127 509 510 127 510 508 127 508 510 127 510 511 127 511 516 129 516 517 129 517 518 129 518 516 129 516 518 129 518 519 129 519 524 131 524 525 131 525 526 131 526 524 131 524 526 131 526 527 131 527 532 133 532 533 133 533 534 133 534 532 133 532 534 133 534 535 133 535 540 135 540 541 135 541 542 135 542 540 135 540 542 135 542 543 135 543 548 137 548 549 137 549 550 137 550 548 137 548 550 137 550 551 137 551 556 139 556 557 139 557 558 139 558 556 139 556 558 139 558 559 139 559</p></triangles><triangles material="black-material" count="138"><input semantic="VERTEX" source="#m-vertices" offset="0"/><input semantic="NORMAL" source="#m-normals" offset="1"/><input semantic="TEXCOORD" source="#m-uv" offset="2" set="0"/><p>4 1 4 5 1 5 6 1 6 4 1 4 6 1 6 7 1 7 12 3 12 13 3 13 14 3 14 12 3 12 14 3 14 15 3 15 20 5 20 21 5 21 22 5 22 20 5 20 22 5 22 23 5 23 28 7 28 29 7 29 30 7 30 28 7 28 30 7 30 31 7 31 36 9 36 37 9 37 38 9 38 36 9 36 38 9 38 39 9 39 44 11 44 45 11 45 46 11 46 44 11 44 46 11 46 47 11 47 52 13 52 53 13 53 54 13 54 52 13 52 54 13 54 55 13 55 60 15 60 61 15 61 62 15 62 60 15 60 62 15 62 63 15 63 68 17 68 69 17 69 70 17 70 68 17 68 70 17 70 71 17 71 76 19 76 77 19 77 78 19 78 76 19 76 78 19 78 79 19 79 84 21 84 85 21 85 86 21 86 84 21 84 86 21 86 87 21 87 96 24 96 97 24 97 98 24 98 96 24 96 98 24 98 99 24 99 104 26 104 105 26 105 106 26 106 104 26 104 106 26 106 107 26 107 112 28 112 113 28 113 114 28 114 112 28 112 114 28 114 115 28 115 120 30 120 121 30 121 122 30 122 120 30 120 122 30 122 123 30 123 128 32 128 129 32 129 130 32 130 128 32 128 130 32 130 131 32 131 136 34 136 137 34 137 138 34 138 136 34 136 138 34 138 139 34 139 144 36 144 145 36 145 146 36 146 144 36 144 146 36 146 147 36 147 152 38 152 153 38 153 154 38 154 152 38 152 154 38 154 155 38 155 160 40 160 161 40 161 162 40 162 160 40 160 162 40 162 163 40 163 168 42 168 169 42 169 170 42 170 168 42 168 170 42 170 171 42 171 176 44 176 177 44 177 178 44 178 176 44 176 178 44 178 179 44 179 184 46 184 185 46 185 186 46 186 184 46 184 186 46 186 187 46 187 192 48 192 193 48 193 194 48 194 192 48 192 194 48 194 195 48 195 200 50 200 201 50 201 202 50 202 200 50 200 202 50 202 203 50 203 208 52 208 209 52 209 210 52 210 208 52 208 210 52 210 211 52 211 216 54 216 217 54 217 218 54 218 216 54 216 218 54 218 219 54 219 224 56 224 225 56 225 226 56 226 224 56 224 226 56 226 227 56 227 232 58 232 233 58 233 234 58 234 232 58 232 234 58 234 235 58 235 240 60 240 241 60 241 242 60 242 240 60 240 242 60 242 243 60 243 248 62 248 249 62 249 250 62 250 248 62 248 250 62 250 251 62 251 256 64 256 257 64 257 258 64 258 256 64 256 258 64 258 259 64 259 264 66 264 265 66 265 266 66 266 264 66 264 266 66 266 267 66 267 272 68 272 273 68 273 274 68 274 272 68 272 274 68 274 275 68 275 284 71 284 285 71 285 286 71 286 284 71 284 286 71 286 287 71 287 292 73 292 293 73 293 294 73 294 292 73 292 294 73 294 295 73 295 300 75 300 301 75 301 302 75 302 300 75 300 302 75 302 303 75 303 308 77 308 309 77 309 310 77 310 308 77 308 310 77 310 311 77 311 316 79 316 317 79 317 318 79 318 316 79 316 318 79 318 319 79 319 324 81 324 325 81 325 326 81 326 324 81 324 326 81 326 327 81 327 332 83 332 333 83 333 334 83 334 332 83 332 334 83 334 335 83 335 340 85 340 341 85 341 342 85 342 340 85 340 342 85 342 343 85 343 348 87 348 349 87 349 350 87 350 348 87 348 350 87 350 351 87 351 356 89 356 357 89 357 358 89 358 356 89 356 358 89 358 359 89 359 364 91 364 365 91 365 366 91 366 364 91 364 366 91 366 367 91 367 372 93 372 373 93 373 374 93 374 372 93 372 374 93 374 375 93 375 380 95 380 381 95 381 382 95 382 380 95 380 382 95 382 383 95 383 388 97 388 389 97 389 390 97 390 388 97 388 390 97 390 391 97 391 396 99 396 397 99 397 398 99 398 396 99 396 398 99 398 399 99 399 408 102 408 409 102 409 410 102 410 408 102 408 410 102 410 411 102 411 416 104 416 417 104 417 418 104 418 416 104 416 418 104 418 419 104 419 424 106 424 425 106 425 426 106 426 424 106 424 426 106 426 427 106 427 432 108 432 433 108 433 434 108 434 432 108 432 434 108 434 435 108 435 440 110 440 441 110 441 442 110 442 440 110 440 442 110 442 443 110 443 448 112 448 449 112 449 450 112 450 448 112 448 450 112 450 451 112 451 456 114 456 457 114 457 458 114 458 456 114 456 458 114 458 459 114 459 464 116 464 465 116 465 466 116 466 464 116 464 466 116 466 467 116 467 472 118 472 473 118 473 474 118 474 472 118 472 474 118 474 475 118 475 480 120 480 481 120 481 482 120 482 480 120 480 482 120 482 483 120 483 488 122 488 489 122 489 490 122 490 488 122 488 490 122 490 491 122 491 496 124 496 497 124 497 498 124 498 496 124 496 498 124 498 499 124 499 504 126 504 505 126 505 506 126 506 504 126 504 506 126 506 507 126 507 512 128 512 513 128 513 514 128 514 512 128 512 514 128 514 515 128 515 520 130 520 521 130 521 522 130 522 520 130 520 522 130 522 523 130 523 528 132 528 529 132 529 530 132 530 528 132 528 530 132 530 531 132 531 536 134 536 537 134 537 538 134 538 536 134 536 538 134 538 539 134 539 544 136 544 545 136 545 546 136 546 544 136 544 546 136 546 547 136 547 552 138 552 553 138 553 554 138 554 552 138 552 554 138 554 555 138 555 560 140 560 561 140 561 562 140 562 560 140 560 562 140 562 563 140 563</p></triangles><triangles material="sign-material" count="2"><input semantic="VERTEX" source="#m-vertices" offset="0"/><input semantic="NORMAL" source="#m-normals" offset="1"/><input semantic="TEXCOORD" source="#m-uv" offset="2" set="0"/><p>584 146 584 585 146 585 586 146 586 584 146 584 586 146 586 587 146 587</p></triangles><triangles material="floor-material" count="2"><input semantic="VERTEX" source="#m-vertices" offset="0"/><input semantic="NORMAL" source="#m-normals" offset="1"/><input semantic="TEXCOORD" source="#m-uv" offset="2" set="0"/><p>580 145 580 581 145 581 582 145 582 580 145 580 582 145 582 583 145 583</p></triangles><triangles material="project-material" count="2"><input semantic="VERTEX" source="#m-vertices" offset="0"/><input semantic="NORMAL" source="#m-normals" offset="1"/><input semantic="TEXCOORD" source="#m-uv" offset="2" set="0"/><p>588 147 588 589 147 589 590 147 590 588 147 588 590 147 590 591 147 591</p></triangles><triangles material="S1-material" count="2"><input semantic="VERTEX" source="#m-vertices" offset="0"/><input semantic="NORMAL" source="#m-normals" offset="1"/><input semantic="TEXCOORD" source="#m-uv" offset="2" set="0"/><p>564 141 564 565 141 565 566 141 566 564 141 564 566 141 566 567 141 567</p></triangles><triangles material="S2-material" count="2"><input semantic="VERTEX" source="#m-vertices" offset="0"/><input semantic="NORMAL" source="#m-normals" offset="1"/><input semantic="TEXCOORD" source="#m-uv" offset="2" set="0"/><p>568 142 568 569 142 569 570 142 570 568 142 568 570 142 570 571 142 571</p></triangles><triangles material="S3-material" count="2"><input semantic="VERTEX" source="#m-vertices" offset="0"/><input semantic="NORMAL" source="#m-normals" offset="1"/><input semantic="TEXCOORD" source="#m-uv" offset="2" set="0"/><p>572 143 572 573 143 573 574 143 574 572 143 572 574 143 574 575 143 575</p></triangles><triangles material="S4-material" count="2"><input semantic="VERTEX" source="#m-vertices" offset="0"/><input semantic="NORMAL" source="#m-normals" offset="1"/><input semantic="TEXCOORD" source="#m-uv" offset="2" set="0"/><p>576 144 576 577 144 577 578 144 578 576 144 576 578 144 578 579 144 579</p></triangles>
  </mesh></geometry></library_geometries>
  <library_visual_scenes><visual_scene id="Scene" name="Scene">
    <node id="mesh" name="mesh"><instance_geometry url="#m-mesh"><bind_material><technique_common>
      <instance_material symbol="yellow-material" target="#yellow-material"><bind_vertex_input semantic="UVSET0" input_semantic="TEXCOORD" input_set="0"/></instance_material><instance_material symbol="black-material" target="#black-material"><bind_vertex_input semantic="UVSET0" input_semantic="TEXCOORD" input_set="0"/></instance_material><instance_material symbol="sign-material" target="#sign-material"><bind_vertex_input semantic="UVSET0" input_semantic="TEXCOORD" input_set="0"/></instance_material><instance_material symbol="floor-material" target="#floor-material"><bind_vertex_input semantic="UVSET0" input_semantic="TEXCOORD" input_set="0"/></instance_material><instance_material symbol="project-material" target="#project-material"><bind_vertex_input semantic="UVSET0" input_semantic="TEXCOORD" input_set="0"/></instance_material><instance_material symbol="S1-material" target="#S1-material"><bind_vertex_input semantic="UVSET0" input_semantic="TEXCOORD" input_set="0"/></instance_material><instance_material symbol="S2-material" target="#S2-material"><bind_vertex_input semantic="UVSET0" input_semantic="TEXCOORD" input_set="0"/></instance_material><instance_material symbol="S3-material" target="#S3-material"><bind_vertex_input semantic="UVSET0" input_semantic="TEXCOORD" input_set="0"/></instance_material><instance_material symbol="S4-material" target="#S4-material"><bind_vertex_input semantic="UVSET0" input_semantic="TEXCOORD" input_set="0"/></instance_material>
    </technique_common></bind_material></instance_geometry></node>
  </visual_scene></library_visual_scenes>
  <scene><instance_visual_scene url="#Scene"/></scene>
</COLLADA>
