<?xml version="1.0" encoding="utf-8"?>
<COLLADA xmlns="http://www.collada.org/2005/11/COLLADASchema" version="1.4.1">
  <asset><unit name="meter" meter="1"/><up_axis>Z_UP</up_axis></asset>
  <library_images><image id="floor-image" name="floor-image"><init_from>Plywood.png</init_from></image><image id="logo-image" name="logo-image"><init_from>logo.jpg</init_from></image></library_images>
  <library_effects><effect id="body-effect"><profile_COMMON><technique sid="common"><lambert><diffuse><color sid="diffuse">0.93 0.93 0.92 1</color></diffuse></lambert></technique></profile_COMMON></effect><effect id="cab-effect"><profile_COMMON><technique sid="common"><lambert><diffuse><color sid="diffuse">0.1 0.3 0.62 1</color></diffuse></lambert></technique></profile_COMMON></effect><effect id="trim-effect"><profile_COMMON><technique sid="common"><lambert><diffuse><color sid="diffuse">0.3 0.3 0.32 1</color></diffuse></lambert></technique></profile_COMMON></effect><effect id="tyre-effect"><profile_COMMON><technique sid="common"><lambert><diffuse><color sid="diffuse">0.06 0.06 0.06 1</color></diffuse></lambert></technique></profile_COMMON></effect><effect id="glass-effect"><profile_COMMON><technique sid="common"><lambert><diffuse><color sid="diffuse">0.12 0.18 0.25 1</color></diffuse></lambert></technique></profile_COMMON></effect><effect id="floor-effect"><profile_COMMON><newparam sid="floor-surface"><surface type="2D"><init_from>floor-image</init_from></surface></newparam><newparam sid="floor-sampler"><sampler2D><source>floor-surface</source></sampler2D></newparam><technique sid="common"><lambert><diffuse><texture texture="floor-sampler" texcoord="UVSET0"/></diffuse></lambert></technique></profile_COMMON></effect><effect id="logo-effect"><profile_COMMON><newparam sid="logo-surface"><surface type="2D"><init_from>logo-image</init_from></surface></newparam><newparam sid="logo-sampler"><sampler2D><source>logo-surface</source></sampler2D></newparam><technique sid="common"><lambert><diffuse><texture texture="logo-sampler" texcoord="UVSET0"/></diffuse></lambert></technique></profile_COMMON></effect></library_effects>
  <library_materials><material id="body-material" name="body"><instance_effect url="#body-effect"/></material><material id="cab-material" name="cab"><instance_effect url="#cab-effect"/></material><material id="trim-material" name="trim"><instance_effect url="#trim-effect"/></material><material id="tyre-material" name="tyre"><instance_effect url="#tyre-effect"/></material><material id="glass-material" name="glass"><instance_effect url="#glass-effect"/></material><material id="floor-material" name="floor"><instance_effect url="#floor-effect"/></material><material id="logo-material" name="logo"><instance_effect url="#logo-effect"/></material></library_materials>
  <library_geometries><geometry id="m-mesh" name="mesh"><mesh>
    <source id="m-positions"><float_array id="m-positions-array" count="4452">0 -1.2 0.6 0 1.2 0.6 0 1.2 0.5 0 -1.2 0.5 5.2 -1.2 0.5 5.2 1.2 0.5 5.2 1.2 0.6 5.2 -1.2 0.6 5.2 -1.2 0.5 5.2 -1.2 0.6 0 -1.2 0.6 0 -1.2 0.5 0 1.2 0.5 0 1.2 0.6 5.2 1.2 0.6 5.2 1.2 0.5 0 1.2 0.5 5.2 1.2 0.5 5.2 -1.2 0.5 0 -1.2 0.5 0 -1.2 0.6 5.2 -1.2 0.6 5.2 1.2 0.6 0 1.2 0.6 0 1.14 2.9 0 1.2 2.9 0 1.2 0.6 0 1.14 0.6 5.2 1.14 0.6 5.2 1.2 0.6 5.2 1.2 2.9 5.2 1.14 2.9 5.2 1.14 0.6 5.2 1.14 2.9 0 1.14 2.9 0 1.14 0.6 0 1.2 0.6 0 1.2 2.9 5.2 1.2 2.9 5.2 1.2 0.6 0 1.2 0.6 5.2 1.2 0.6 5.2 1.14 0.6 0 1.14 0.6 0 1.14 2.9 5.2 1.14 2.9 5.2 1.2 2.9 0 1.2 2.9 0 -1.2 2.9 0 -1.14 2.9 0 -1.14 0.6 0 -1.2 0.6 5.2 -1.2 0.6 5.2 -1.14 0.6 5.2 -1.14 2.9 5.2 -1.2 2.9 5.2 -1.2 0.6 5.2 -1.2 2.9 0 -1.2 2.9 0 -1.2 0.6 0 -1.14 0.6 0 -1.14 2.9 5.2 -1.14 2.9 5.2 -1.14 0.6 0 -1.14 0.6 5.2 -1.14 0.6 5.2 -1.2 0.6 0 -1.2 0.6 0 -1.2 2.9 5.2 -1.2 2.9 5.2 -1.14 2.9 0 -1.14 2.9 5.14 -1.2 2.9 5.14 1.2 2.9 5.14 1.2 0.6 5.14 -1.2 0.6 5.2 -1.2 0.6 5.2 1.2 0.6 5.2 1.2 2.9 5.2 -1.2 2.9 5.2 -1.2 0.6 5.2 -1.2 2.9 5.14 -1.2 2.9 5.14 -1.2 0.6 5.14 1.2 0.6 5.14 1.2 2.9 5.2 1.2 2.9 5.2 1.2 0.6 5.14 1.2 0.6 5.2 1.2 0.6 5.2 -1.2 0.6 5.14 -1.2 0.6 5.14 -1.2 2.9 5.2 -1.2 2.9 5.2 1.2 2.9 5.14 1.2 2.9 0 -1.2 2.96 0 1.2 2.96 0 1.2 2.9 0 -1.2 2.9 5.2 -1.2 2.9 5.2 1.2 2.9 5.2 1.2 2.96 5.2 -1.2 2.96 5.2 -1.2 2.9 5.2 -1.2 2.96 0 -1.2 2.96 0 -1.2 2.9 0 1.2 2.9 0 1.2 2.96 5.2 1.2 2.96 5.2 1.2 2.9 0 1.2 2.9 5.2 1.2 2.9 5.2 -1.2 2.9 0 -1.2 2.9 0 -1.2 2.96 5.2 -1.2 2.96 5.2 1.2 2.96 0 1.2 2.96 -0.15 -0.5 0.5 -0.15 0.5 0.5 -0.15 0.5 0.34 -0.15 -0.5 0.34 6.95 -0.5 0.34 6.95 0.5 0.34 6.95 0.5 0.5 6.95 -0.5 0.5 6.95 -0.5 0.34 6.95 -0.5 0.5 -0.15 -0.5 0.5 -0.15 -0.5 0.34 -0.15 0.5 0.34 -0.15 0.5 0.5 6.95 0.5 0.5 6.95 0.5 0.34 -0.15 0.5 0.34 6.95 0.5 0.34 6.95 -0.5 0.34 -0.15 -0.5 0.34 -0.15 -0.5 0.5 6.95 -0.5 0.5 6.95 0.5 0.5 -0.15 0.5 0.5 -0.18 -1.1 0.46 -0.18 1.1 0.46 -0.18 1.1 0.3 -0.18 -1.1 0.3 -0.06 -1.1 0.3 -0.06 1.1 0.3 -0.06 1.1 0.46 -0.06 -1.1 0.46 -0.06 -1.1 0.3 -0.06 -1.1 0.46 -0.18 -1.1 0.46 -0.18 -1.1 0.3 -0.18 1.1 0.3 -0.18 1.1 0.46 -0.06 1.1 0.46 -0.06 1.1 0.3 -0.18 1.1 0.3 -0.06 1.1 0.3 -0.06 -1.1 0.3 -0.18 -1.1 0.3 -0.18 -1.1 0.46 -0.06 -1.1 0.46 -0.06 1.1 0.46 -0.18 1.1 0.46 5.3 -1.15 2.5 5.3 1.15 2.5 5.3 1.15 0.5 5.3 -1.15 0.5 7.2 -1.15 0.5 7.2 1.15 0.5 7.2 1.15 2.5 7.2 -1.15 2.5 7.2 -1.15 0.5 7.2 -1.15 2.5 5.3 -1.15 2.5 5.3 -1.15 0.5 5.3 1.15 0.5 5.3 1.15 2.5 7.2 1.15 2.5 7.2 1.15 0.5 5.3 1.15 0.5 7.2 1.15 0.5 7.2 -1.15 0.5 5.3 -1.15 0.5 5.3 -1.15 2.5 7.2 -1.15 2.5 7.2 1.15 2.5 5.3 1.15 2.5 7.18 -1.15 0.7 7.18 1.15 0.7 7.18 1.15 0.4 7.18 -1.15 0.4 7.32 -1.15 0.4 7.32 1.15 0.4 7.32 1.15 0.7 7.32 -1.15 0.7 7.32 -1.15 0.4 7.32 -1.15 0.7 7.18 -1.15 0.7 7.18 -1.15 0.4 7.18 1.15 0.4 7.18 1.15 0.7 7.32 1.15 0.7 7.32 1.15 0.4 7.18 1.15 0.4 7.32 1.15 0.4 7.32 -1.15 0.4 7.18 -1.15 0.4 7.18 -1.15 0.7 7.32 -1.15 0.7 7.32 1.15 0.7 7.18 1.15 0.7 -0.01 -1.21 2.93 -0.01 -1.11 2.93 -0.01 -1.11 0.57 -0.01 -1.21 0.57 0.09 -1.21 0.57 0.09 -1.11 0.57 0.09 -1.11 2.93 0.09 -1.21 2.93 0.09 -1.21 0.57 0.09 -1.21 2.93 -0.01 -1.21 2.93 -0.01 -1.21 0.57 -0.01 -1.11 0.57 -0.01 -1.11 2.93 0.09 -1.11 2.93 0.09 -1.11 0.57 -0.01 -1.11 0.57 0.09 -1.11 0.57 0.09 -1.21 0.57 -0.01 -1.21 0.57 -0.01 -1.21 2.93 0.09 -1.21 2.93 0.09 -1.11 2.93 -0.01 -1.11 2.93 -0.01 1.11 2.93 -0.01 1.21 2.93 -0.01 1.21 0.57 -0.01 1.11 0.57 0.09 1.11 0.57 0.09 1.21 0.57 0.09 1.21 2.93 0.09 1.11 2.93 0.09 1.11 0.57 0.09 1.11 2.93 -0.01 1.11 2.93 -0.01 1.11 0.57 -0.01 1.21 0.57 -0.01 1.21 2.93 0.09 1.21 2.93 0.09 1.21 0.57 -0.01 1.21 0.57 0.09 1.21 0.57 0.09 1.11 0.57 -0.01 1.11 0.57 -0.01 1.11 2.93 0.09 1.11 2.93 0.09 1.21 2.93 -0.01 1.21 2.93 -0.01 -1.2 2.91 -0.01 1.2 2.91 -0.01 1.2 2.79 -0.01 -1.2 2.79 0.09 -1.2 2.79 0.09 1.2 2.79 0.09 1.2 2.91 0.09 -1.2 2.91 0.09 -1.2 2.79 0.09 -1.2 2.91 -0.01 -1.2 2.91 -0.01 -1.2 2.79 -0.01 1.2 2.79 -0.01 1.2 2.91 0.09 1.2 2.91 0.09 1.2 2.79 -0.01 1.2 2.79 0.09 1.2 2.79 0.09 -1.2 2.79 -0.01 -1.2 2.79 -0.01 -1.2 2.91 0.09 -1.2 2.91 0.09 1.2 2.91 -0.01 1.2 2.91 0.06 -1.14 0.602 0.06 1.14 0.602 0.06 1.14 0.6 0.06 -1.14 0.6 5.14 -1.14 0.6 5.14 1.14 0.6 5.14 1.14 0.602 5.14 -1.14 0.602 5.14 -1.14 0.6 5.14 -1.14 0.602 0.06 -1.14 0.602 0.06 -1.14 0.6 0.06 1.14 0.6 0.06 1.14 0.602 5.14 1.14 0.602 5.14 1.14 0.6 0.06 1.14 0.6 5.14 1.14 0.6 5.14 -1.14 0.6 0.06 -1.14 0.6 0.06 -1.14 0.602 5.14 -1.14 0.602 5.14 1.14 0.602 0.06 1.14 0.602 0.2 -1.202 1.15 5 -1.202 1.15 5 -1.202 2.55 0.2 -1.202 2.55 6.1 -1.152 1.65 7 -1.152 1.65 7 -1.152 2.35 6.1 -1.152 2.35 5 1.202 1.15 0.2 1.202 1.15 0.2 1.202 2.55 5 1.202 2.55 7 1.152 1.65 6.1 1.152 1.65 6.1 1.152 2.35 7 1.152 2.35 7.202 -1 1.65 7.202 1 1.65 7.202 1 2.45 7.202 -1 2.45 1.08 -0.76 0.28 1.0587 -0.76 0.38715 1.0587 -1.04 0.38715 1.08 -1.04 0.28 0.8 -1.04 0.28 1.08 -1.04 0.28 1.0587 -1.04 0.38715 0.8 -1.04 0.28 0.8 -0.76 0.28 1.0587 -0.76 0.38715 1.08 -0.76 0.28 0.8 -0.76 0.28 1.0587 -0.76 0.38715 0.99799 -0.76 0.47799 0.99799 -1.04 0.47799 1.0587 -1.04 0.38715 0.8 -1.04 0.28 1.0587 -1.04 0.38715 0.99799 -1.04 0.47799 0.8 -1.04 0.28 0.8 -0.76 0.28 0.99799 -0.76 0.47799 1.0587 -0.76 0.38715 0.8 -0.76 0.28 0.99799 -0.76 0.47799 0.90715 -0.76 0.53869 0.90715 -1.04 0.53869 0.99799 -1.04 0.47799 0.8 -1.04 0.28 0.99799 -1.04 0.47799 0.90715 -1.04 0.53869 0.8 -1.04 0.28 0.8 -0.76 0.28 0.90715 -0.76 0.53869 0.99799 -0.76 0.47799 0.8 -0.76 0.28 0.90715 -0.76 0.53869 0.8 -0.76 0.56 0.8 -1.04 0.56 0.90715 -1.04 0.53869 0.8 -1.04 0.28 0.90715 -1.04 0.53869 0.8 -1.04 0.56 0.8 -1.04 0.28 0.8 -0.76 0.28 0.8 -0.76 0.56 0.90715 -0.76 0.53869 0.8 -0.76 0.28 0.8 -0.76 0.56 0.69285 -0.76 0.53869 0.69285 -1.04 0.53869 0.8 -1.04 0.56 0.8 -1.04 0.28 0.8 -1.04 0.56 0.69285 -1.04 0.53869 0.8 -1.04 0.28 0.8 -0.76 0.28 0.69285 -0.76 0.53869 0.8 -0.76 0.56 0.8 -0.76 0.28 0.69285 -0.76 0.53869 0.60201 -0.76 0.47799 0.60201 -1.04 0.47799 0.69285 -1.04 0.53869 0.8 -1.04 0.28 0.69285 -1.04 0.53869 0.60201 -1.04 0.47799 0.8 -1.04 0.28 0.8 -0.76 0.28 0.60201 -0.76 0.47799 0.69285 -0.76 0.53869 0.8 -0.76 0.28 0.60201 -0.76 0.47799 0.54131 -0.76 0.38715 0.54131 -1.04 0.38715 0.60201 -1.04 0.47799 0.8 -1.04 0.28 0.60201 -1.04 0.47799 0.54131 -1.04 0.38715 0.8 -1.04 0.28 0.8 -0.76 0.28 0.54131 -0.76 0.38715 0.60201 -0.76 0.47799 0.8 -0.76 0.28 0.54131 -0.76 0.38715 0.52 -0.76 0.28 0.52 -1.04 0.28 0.54131 -1.04 0.38715 0.8 -1.04 0.28 0.54131 -1.04 0.38715 0.52 -1.04 0.28 0.8 -1.04 0.28 0.8 -0.76 0.28 0.52 -0.76 0.28 0.54131 -0.76 0.38715 0.8 -0.76 0.28 0.52 -0.76 0.28 0.54131 -0.76 0.17285 0.54131 -1.04 0.17285 0.52 -1.04 0.28 0.8 -1.04 0.28 0.52 -1.04 0.28 0.54131 -1.04 0.17285 0.8 -1.04 0.28 0.8 -0.76 0.28 0.54131 -0.76 0.17285 0.52 -0.76 0.28 0.8 -0.76 0.28 0.54131 -0.76 0.17285 0.60201 -0.76 0.08201 0.60201 -1.04 0.08201 0.54131 -1.04 0.17285 0.8 -1.04 0.28 0.54131 -1.04 0.17285 0.60201 -1.04 0.08201 0.8 -1.04 0.28 0.8 -0.76 0.28 0.60201 -0.76 0.08201 0.54131 -0.76 0.17285 0.8 -0.76 0.28 0.60201 -0.76 0.08201 0.69285 -0.76 0.021314 0.69285 -1.04 0.021314 0.60201 -1.04 0.08201 0.8 -1.04 0.28 0.60201 -1.04 0.08201 0.69285 -1.04 0.021314 0.8 -1.04 0.28 0.8 -0.76 0.28 0.69285 -0.76 0.021314 0.60201 -0.76 0.08201 0.8 -0.76 0.28 0.69285 -0.76 0.021314 0.8 -0.76 0 0.8 -1.04 0 0.69285 -1.04 0.021314 0.8 -1.04 0.28 0.69285 -1.04 0.021314 0.8 -1.04 0 0.8 -1.04 0.28 0.8 -0.76 0.28 0.8 -0.76 0 0.69285 -0.76 0.021314 0.8 -0.76 0.28 0.8 -0.76 0 0.90715 -0.76 0.021314 0.90715 -1.04 0.021314 0.8 -1.04 0 0.8 -1.04 0.28 0.8 -1.04 0 0.90715 -1.04 0.021314 0.8 -1.04 0.28 0.8 -0.76 0.28 0.90715 -0.76 0.021314 0.8 -0.76 0 0.8 -0.76 0.28 0.90715 -0.76 0.021314 0.99799 -0.76 0.08201 0.99799 -1.04 0.08201 0.90715 -1.04 0.021314 0.8 -1.04 0.28 0.90715 -1.04 0.021314 0.99799 -1.04 0.08201 0.8 -1.04 0.28 0.8 -0.76 0.28 0.99799 -0.76 0.08201 0.90715 -0.76 0.021314 0.8 -0.76 0.28 0.99799 -0.76 0.08201 1.0587 -0.76 0.17285 1.0587 -1.04 0.17285 0.99799 -1.04 0.08201 0.8 -1.04 0.28 0.99799 -1.04 0.08201 1.0587 -1.04 0.17285 0.8 -1.04 0.28 0.8 -0.76 0.28 1.0587 -0.76 0.17285 0.99799 -0.76 0.08201 0.8 -0.76 0.28 1.0587 -0.76 0.17285 1.08 -0.76 0.28 1.08 -1.04 0.28 1.0587 -1.04 0.17285 0.8 -1.04 0.28 1.0587 -1.04 0.17285 1.08 -1.04 0.28 0.8 -1.04 0.28 0.8 -0.76 0.28 1.08 -0.76 0.28 1.0587 -0.76 0.17285 0.8 -0.76 0.28 1.08 1.04 0.28 1.0587 1.04 0.38715 1.0587 0.76 0.38715 1.08 0.76 0.28 0.8 0.76 0.28 1.08 0.76 0.28 1.0587 0.76 0.38715 0.8 0.76 0.28 0.8 1.04 0.28 1.0587 1.04 0.38715 1.08 1.04 0.28 0.8 1.04 0.28 1.0587 1.04 0.38715 0.99799 1.04 0.47799 0.99799 0.76 0.47799 1.0587 0.76 0.38715 0.8 0.76 0.28 1.0587 0.76 0.38715 0.99799 0.76 0.47799 0.8 0.76 0.28 0.8 1.04 0.28 0.99799 1.04 0.47799 1.0587 1.04 0.38715 0.8 1.04 0.28 0.99799 1.04 0.47799 0.90715 1.04 0.53869 0.90715 0.76 0.53869 0.99799 0.76 0.47799 0.8 0.76 0.28 0.99799 0.76 0.47799 0.90715 0.76 0.53869 0.8 0.76 0.28 0.8 1.04 0.28 0.90715 1.04 0.53869 0.99799 1.04 0.47799 0.8 1.04 0.28 0.90715 1.04 0.53869 0.8 1.04 0.56 0.8 0.76 0.56 0.90715 0.76 0.53869 0.8 0.76 0.28 0.90715 0.76 0.53869 0.8 0.76 0.56 0.8 0.76 0.28 0.8 1.04 0.28 0.8 1.04 0.56 0.90715 1.04 0.53869 0.8 1.04 0.28 0.8 1.04 0.56 0.69285 1.04 0.53869 0.69285 0.76 0.53869 0.8 0.76 0.56 0.8 0.76 0.28 0.8 0.76 0.56 0.69285 0.76 0.53869 0.8 0.76 0.28 0.8 1.04 0.28 0.69285 1.04 0.53869 0.8 1.04 0.56 0.8 1.04 0.28 0.69285 1.04 0.53869 0.60201 1.04 0.47799 0.60201 0.76 0.47799 0.69285 0.76 0.53869 0.8 0.76 0.28 0.69285 0.76 0.53869 0.60201 0.76 0.47799 0.8 0.76 0.28 0.8 1.04 0.28 0.60201 1.04 0.47799 0.69285 1.04 0.53869 0.8 1.04 0.28 0.60201 1.04 0.47799 0.54131 1.04 0.38715 0.54131 0.76 0.38715 0.60201 0.76 0.47799 0.8 0.76 0.28 0.60201 0.76 0.47799 0.54131 0.76 0.38715 0.8 0.76 0.28 0.8 1.04 0.28 0.54131 1.04 0.38715 0.60201 1.04 0.47799 0.8 1.04 0.28 0.54131 1.04 0.38715 0.52 1.04 0.28 0.52 0.76 0.28 0.54131 0.76 0.38715 0.8 0.76 0.28 0.54131 0.76 0.38715 0.52 0.76 0.28 0.8 0.76 0.28 0.8 1.04 0.28 0.52 1.04 0.28 0.54131 1.04 0.38715 0.8 1.04 0.28 0.52 1.04 0.28 0.54131 1.04 0.17285 0.54131 0.76 0.17285 0.52 0.76 0.28 0.8 0.76 0.28 0.52 0.76 0.28 0.54131 0.76 0.17285 0.8 0.76 0.28 0.8 1.04 0.28 0.54131 1.04 0.17285 0.52 1.04 0.28 0.8 1.04 0.28 0.54131 1.04 0.17285 0.60201 1.04 0.08201 0.60201 0.76 0.08201 0.54131 0.76 0.17285 0.8 0.76 0.28 0.54131 0.76 0.17285 0.60201 0.76 0.08201 0.8 0.76 0.28 0.8 1.04 0.28 0.60201 1.04 0.08201 0.54131 1.04 0.17285 0.8 1.04 0.28 0.60201 1.04 0.08201 0.69285 1.04 0.021314 0.69285 0.76 0.021314 0.60201 0.76 0.08201 0.8 0.76 0.28 0.60201 0.76 0.08201 0.69285 0.76 0.021314 0.8 0.76 0.28 0.8 1.04 0.28 0.69285 1.04 0.021314 0.60201 1.04 0.08201 0.8 1.04 0.28 0.69285 1.04 0.021314 0.8 1.04 0 0.8 0.76 0 0.69285 0.76 0.021314 0.8 0.76 0.28 0.69285 0.76 0.021314 0.8 0.76 0 0.8 0.76 0.28 0.8 1.04 0.28 0.8 1.04 0 0.69285 1.04 0.021314 0.8 1.04 0.28 0.8 1.04 0 0.90715 1.04 0.021314 0.90715 0.76 0.021314 0.8 0.76 0 0.8 0.76 0.28 0.8 0.76 0 0.90715 0.76 0.021314 0.8 0.76 0.28 0.8 1.04 0.28 0.90715 1.04 0.021314 0.8 1.04 0 0.8 1.04 0.28 0.90715 1.04 0.021314 0.99799 1.04 0.08201 0.99799 0.76 0.08201 0.90715 0.76 0.021314 0.8 0.76 0.28 0.90715 0.76 0.021314 0.99799 0.76 0.08201 0.8 0.76 0.28 0.8 1.04 0.28 0.99799 1.04 0.08201 0.90715 1.04 0.021314 0.8 1.04 0.28 0.99799 1.04 0.08201 1.0587 1.04 0.17285 1.0587 0.76 0.17285 0.99799 0.76 0.08201 0.8 0.76 0.28 0.99799 0.76 0.08201 1.0587 0.76 0.17285 0.8 0.76 0.28 0.8 1.04 0.28 1.0587 1.04 0.17285 0.99799 1.04 0.08201 0.8 1.04 0.28 1.0587 1.04 0.17285 1.08 1.04 0.28 1.08 0.76 0.28 1.0587 0.76 0.17285 0.8 0.76 0.28 1.0587 0.76 0.17285 1.08 0.76 0.28 0.8 0.76 0.28 0.8 1.04 0.28 1.08 1.04 0.28 1.0587 1.04 0.17285 0.8 1.04 0.28 1.73 -0.76 0.28 1.7087 -0.76 0.38715 1.7087 -1.04 0.38715 1.73 -1.04 0.28 1.45 -1.04 0.28 1.73 -1.04 0.28 1.7087 -1.04 0.38715 1.45 -1.04 0.28 1.45 -0.76 0.28 1.7087 -0.76 0.38715 1.73 -0.76 0.28 1.45 -0.76 0.28 1.7087 -0.76 0.38715 1.648 -0.76 0.47799 1.648 -1.04 0.47799 1.7087 -1.04 0.38715 1.45 -1.04 0.28 1.7087 -1.04 0.38715 1.648 -1.04 0.47799 1.45 -1.04 0.28 1.45 -0.76 0.28 1.648 -0.76 0.47799 1.7087 -0.76 0.38715 1.45 -0.76 0.28 1.648 -0.76 0.47799 1.5572 -0.76 0.53869 1.5572 -1.04 0.53869 1.648 -1.04 0.47799 1.45 -1.04 0.28 1.648 -1.04 0.47799 1.5572 -1.04 0.53869 1.45 -1.04 0.28 1.45 -0.76 0.28 1.5572 -0.76 0.53869 1.648 -0.76 0.47799 1.45 -0.76 0.28 1.5572 -0.76 0.53869 1.45 -0.76 0.56 1.45 -1.04 0.56 1.5572 -1.04 0.53869 1.45 -1.04 0.28 1.5572 -1.04 0.53869 1.45 -1.04 0.56 1.45 -1.04 0.28 1.45 -0.76 0.28 1.45 -0.76 0.56 1.5572 -0.76 0.53869 1.45 -0.76 0.28 1.45 -0.76 0.56 1.3428 -0.76 0.53869 1.3428 -1.04 0.53869 1.45 -1.04 0.56 1.45 -1.04 0.28 1.45 -1.04 0.56 1.3428 -1.04 0.53869 1.45 -1.04 0.28 1.45 -0.76 0.28 1.3428 -0.76 0.53869 1.45 -0.76 0.56 1.45 -0.76 0.28 1.3428 -0.76 0.53869 1.252 -0.76 0.47799 1.252 -1.04 0.47799 1.3428 -1.04 0.53869 1.45 -1.04 0.28 1.3428 -1.04 0.53869 1.252 -1.04 0.47799 1.45 -1.04 0.28 1.45 -0.76 0.28 1.252 -0.76 0.47799 1.3428 -0.76 0.53869 1.45 -0.76 0.28 1.252 -0.76 0.47799 1.1913 -0.76 0.38715 1.1913 -1.04 0.38715 1.252 -1.04 0.47799 1.45 -1.04 0.28 1.252 -1.04 0.47799 1.1913 -1.04 0.38715 1.45 -1.04 0.28 1.45 -0.76 0.28 1.1913 -0.76 0.38715 1.252 -0.76 0.47799 1.45 -0.76 0.28 1.1913 -0.76 0.38715 1.17 -0.76 0.28 1.17 -1.04 0.28 1.1913 -1.04 0.38715 1.45 -1.04 0.28 1.1913 -1.04 0.38715 1.17 -1.04 0.28 1.45 -1.04 0.28 1.45 -0.76 0.28 1.17 -0.76 0.28 1.1913 -0.76 0.38715 1.45 -0.76 0.28 1.17 -0.76 0.28 1.1913 -0.76 0.17285 1.1913 -1.04 0.17285 1.17 -1.04 0.28 1.45 -1.04 0.28 1.17 -1.04 0.28 1.1913 -1.04 0.17285 1.45 -1.04 0.28 1.45 -0.76 0.28 1.1913 -0.76 0.17285 1.17 -0.76 0.28 1.45 -0.76 0.28 1.1913 -0.76 0.17285 1.252 -0.76 0.08201 1.252 -1.04 0.08201 1.1913 -1.04 0.17285 1.45 -1.04 0.28 1.1913 -1.04 0.17285 1.252 -1.04 0.08201 1.45 -1.04 0.28 1.45 -0.76 0.28 1.252 -0.76 0.08201 1.1913 -0.76 0.17285 1.45 -0.76 0.28 1.252 -0.76 0.08201 1.3428 -0.76 0.021314 1.3428 -1.04 0.021314 1.252 -1.04 0.08201 1.45 -1.04 0.28 1.252 -1.04 0.08201 1.3428 -1.04 0.021314 1.45 -1.04 0.28 1.45 -0.76 0.28 1.3428 -0.76 0.021314 1.252 -0.76 0.08201 1.45 -0.76 0.28 1.3428 -0.76 0.021314 1.45 -0.76 0 1.45 -1.04 0 1.3428 -1.04 0.021314 1.45 -1.04 0.28 1.3428 -1.04 0.021314 1.45 -1.04 0 1.45 -1.04 0.28 1.45 -0.76 0.28 1.45 -0.76 0 1.3428 -0.76 0.021314 1.45 -0.76 0.28 1.45 -0.76 0 1.5572 -0.76 0.021314 1.5572 -1.04 0.021314 1.45 -1.04 0 1.45 -1.04 0.28 1.45 -1.04 0 1.5572 -1.04 0.021314 1.45 -1.04 0.28 1.45 -0.76 0.28 1.5572 -0.76 0.021314 1.45 -0.76 0 1.45 -0.76 0.28 1.5572 -0.76 0.021314 1.648 -0.76 0.08201 1.648 -1.04 0.08201 1.5572 -1.04 0.021314 1.45 -1.04 0.28 1.5572 -1.04 0.021314 1.648 -1.04 0.08201 1.45 -1.04 0.28 1.45 -0.76 0.28 1.648 -0.76 0.08201 1.5572 -0.76 0.021314 1.45 -0.76 0.28 1.648 -0.76 0.08201 1.7087 -0.76 0.17285 1.7087 -1.04 0.17285 1.648 -1.04 0.08201 1.45 -1.04 0.28 1.648 -1.04 0.08201 1.7087 -1.04 0.17285 1.45 -1.04 0.28 1.45 -0.76 0.28 1.7087 -0.76 0.17285 1.648 -0.76 0.08201 1.45 -0.76 0.28 1.7087 -0.76 0.17285 1.73 -0.76 0.28 1.73 -1.04 0.28 1.7087 -1.04 0.17285 1.45 -1.04 0.28 1.7087 -1.04 0.17285 1.73 -1.04 0.28 1.45 -1.04 0.28 1.45 -0.76 0.28 1.73 -0.76 0.28 1.7087 -0.76 0.17285 1.45 -0.76 0.28 1.73 1.04 0.28 1.7087 1.04 0.38715 1.7087 0.76 0.38715 1.73 0.76 0.28 1.45 0.76 0.28 1.73 0.76 0.28 1.7087 0.76 0.38715 1.45 0.76 0.28 1.45 1.04 0.28 1.7087 1.04 0.38715 1.73 1.04 0.28 1.45 1.04 0.28 1.7087 1.04 0.38715 1.648 1.04 0.47799 1.648 0.76 0.47799 1.7087 0.76 0.38715 1.45 0.76 0.28 1.7087 0.76 0.38715 1.648 0.76 0.47799 1.45 0.76 0.28 1.45 1.04 0.28 1.648 1.04 0.47799 1.7087 1.04 0.38715 1.45 1.04 0.28 1.648 1.04 0.47799 1.5572 1.04 0.53869 1.5572 0.76 0.53869 1.648 0.76 0.47799 1.45 0.76 0.28 1.648 0.76 0.47799 1.5572 0.76 0.53869 1.45 0.76 0.28 1.45 1.04 0.28 1.5572 1.04 0.53869 1.648 1.04 0.47799 1.45 1.04 0.28 1.5572 1.04 0.53869 1.45 1.04 0.56 1.45 0.76 0.56 1.5572 0.76 0.53869 1.45 0.76 0.28 1.5572 0.76 0.53869 1.45 0.76 0.56 1.45 0.76 0.28 1.45 1.04 0.28 1.45 1.04 0.56 1.5572 1.04 0.53869 1.45 1.04 0.28 1.45 1.04 0.56 1.3428 1.04 0.53869 1.3428 0.76 0.53869 1.45 0.76 0.56 1.45 0.76 0.28 1.45 0.76 0.56 1.3428 0.76 0.53869 1.45 0.76 0.28 1.45 1.04 0.28 1.3428 1.04 0.53869 1.45 1.04 0.56 1.45 1.04 0.28 1.3428 1.04 0.53869 1.252 1.04 0.47799 1.252 0.76 0.47799 1.3428 0.76 0.53869 1.45 0.76 0.28 1.3428 0.76 0.53869 1.252 0.76 0.47799 1.45 0.76 0.28 1.45 1.04 0.28 1.252 1.04 0.47799 1.3428 1.04 0.53869 1.45 1.04 0.28 1.252 1.04 0.47799 1.1913 1.04 0.38715 1.1913 0.76 0.38715 1.252 0.76 0.47799 1.45 0.76 0.28 1.252 0.76 0.47799 1.1913 0.76 0.38715 1.45 0.76 0.28 1.45 1.04 0.28 1.1913 1.04 0.38715 1.252 1.04 0.47799 1.45 1.04 0.28 1.1913 1.04 0.38715 1.17 1.04 0.28 1.17 0.76 0.28 1.1913 0.76 0.38715 1.45 0.76 0.28 1.1913 0.76 0.38715 1.17 0.76 0.28 1.45 0.76 0.28 1.45 1.04 0.28 1.17 1.04 0.28 1.1913 1.04 0.38715 1.45 1.04 0.28 1.17 1.04 0.28 1.1913 1.04 0.17285 1.1913 0.76 0.17285 1.17 0.76 0.28 1.45 0.76 0.28 1.17 0.76 0.28 1.1913 0.76 0.17285 1.45 0.76 0.28 1.45 1.04 0.28 1.1913 1.04 0.17285 1.17 1.04 0.28 1.45 1.04 0.28 1.1913 1.04 0.17285 1.252 1.04 0.08201 1.252 0.76 0.08201 1.1913 0.76 0.17285 1.45 0.76 0.28 1.1913 0.76 0.17285 1.252 0.76 0.08201 1.45 0.76 0.28 1.45 1.04 0.28 1.252 1.04 0.08201 1.1913 1.04 0.17285 1.45 1.04 0.28 1.252 1.04 0.08201 1.3428 1.04 0.021314 1.3428 0.76 0.021314 1.252 0.76 0.08201 1.45 0.76 0.28 1.252 0.76 0.08201 1.3428 0.76 0.021314 1.45 0.76 0.28 1.45 1.04 0.28 1.3428 1.04 0.021314 1.252 1.04 0.08201 1.45 1.04 0.28 1.3428 1.04 0.021314 1.45 1.04 0 1.45 0.76 0 1.3428 0.76 0.021314 1.45 0.76 0.28 1.3428 0.76 0.021314 1.45 0.76 0 1.45 0.76 0.28 1.45 1.04 0.28 1.45 1.04 0 1.3428 1.04 0.021314 1.45 1.04 0.28 1.45 1.04 0 1.5572 1.04 0.021314 1.5572 0.76 0.021314 1.45 0.76 0 1.45 0.76 0.28 1.45 0.76 0 1.5572 0.76 0.021314 1.45 0.76 0.28 1.45 1.04 0.28 1.5572 1.04 0.021314 1.45 1.04 0 1.45 1.04 0.28 1.5572 1.04 0.021314 1.648 1.04 0.08201 1.648 0.76 0.08201 1.5572 0.76 0.021314 1.45 0.76 0.28 1.5572 0.76 0.021314 1.648 0.76 0.08201 1.45 0.76 0.28 1.45 1.04 0.28 1.648 1.04 0.08201 1.5572 1.04 0.021314 1.45 1.04 0.28 1.648 1.04 0.08201 1.7087 1.04 0.17285 1.7087 0.76 0.17285 1.648 0.76 0.08201 1.45 0.76 0.28 1.648 0.76 0.08201 1.7087 0.76 0.17285 1.45 0.76 0.28 1.45 1.04 0.28 1.7087 1.04 0.17285 1.648 1.04 0.08201 1.45 1.04 0.28 1.7087 1.04 0.17285 1.73 1.04 0.28 1.73 0.76 0.28 1.7087 0.76 0.17285 1.45 0.76 0.28 1.7087 0.76 0.17285 1.73 0.76 0.28 1.45 0.76 0.28 1.45 1.04 0.28 1.73 1.04 0.28 1.7087 1.04 0.17285 1.45 1.04 0.28 6.78 -0.76 0.28 6.7587 -0.76 0.38715 6.7587 -1.04 0.38715 6.78 -1.04 0.28 6.5 -1.04 0.28 6.78 -1.04 0.28 6.7587 -1.04 0.38715 6.5 -1.04 0.28 6.5 -0.76 0.28 6.7587 -0.76 0.38715 6.78 -0.76 0.28 6.5 -0.76 0.28 6.7587 -0.76 0.38715 6.698 -0.76 0.47799 6.698 -1.04 0.47799 6.7587 -1.04 0.38715 6.5 -1.04 0.28 6.7587 -1.04 0.38715 6.698 -1.04 0.47799 6.5 -1.04 0.28 6.5 -0.76 0.28 6.698 -0.76 0.47799 6.7587 -0.76 0.38715 6.5 -0.76 0.28 6.698 -0.76 0.47799 6.6072 -0.76 0.53869 6.6072 -1.04 0.53869 6.698 -1.04 0.47799 6.5 -1.04 0.28 6.698 -1.04 0.47799 6.6072 -1.04 0.53869 6.5 -1.04 0.28 6.5 -0.76 0.28 6.6072 -0.76 0.53869 6.698 -0.76 0.47799 6.5 -0.76 0.28 6.6072 -0.76 0.53869 6.5 -0.76 0.56 6.5 -1.04 0.56 6.6072 -1.04 0.53869 6.5 -1.04 0.28 6.6072 -1.04 0.53869 6.5 -1.04 0.56 6.5 -1.04 0.28 6.5 -0.76 0.28 6.5 -0.76 0.56 6.6072 -0.76 0.53869 6.5 -0.76 0.28 6.5 -0.76 0.56 6.3928 -0.76 0.53869 6.3928 -1.04 0.53869 6.5 -1.04 0.56 6.5 -1.04 0.28 6.5 -1.04 0.56 6.3928 -1.04 0.53869 6.5 -1.04 0.28 6.5 -0.76 0.28 6.3928 -0.76 0.53869 6.5 -0.76 0.56 6.5 -0.76 0.28 6.3928 -0.76 0.53869 6.302 -0.76 0.47799 6.302 -1.04 0.47799 6.3928 -1.04 0.53869 6.5 -1.04 0.28 6.3928 -1.04 0.53869 6.302 -1.04 0.47799 6.5 -1.04 0.28 6.5 -0.76 0.28 6.302 -0.76 0.47799 6.3928 -0.76 0.53869 6.5 -0.76 0.28 6.302 -0.76 0.47799 6.2413 -0.76 0.38715 6.2413 -1.04 0.38715 6.302 -1.04 0.47799 6.5 -1.04 0.28 6.302 -1.04 0.47799 6.2413 -1.04 0.38715 6.5 -1.04 0.28 6.5 -0.76 0.28 6.2413 -0.76 0.38715 6.302 -0.76 0.47799 6.5 -0.76 0.28 6.2413 -0.76 0.38715 6.22 -0.76 0.28 6.22 -1.04 0.28 6.2413 -1.04 0.38715 6.5 -1.04 0.28 6.2413 -1.04 0.38715 6.22 -1.04 0.28 6.5 -1.04 0.28 6.5 -0.76 0.28 6.22 -0.76 0.28 6.2413 -0.76 0.38715 6.5 -0.76 0.28 6.22 -0.76 0.28 6.2413 -0.76 0.17285 6.2413 -1.04 0.17285 6.22 -1.04 0.28 6.5 -1.04 0.28 6.22 -1.04 0.28 6.2413 -1.04 0.17285 6.5 -1.04 0.28 6.5 -0.76 0.28 6.2413 -0.76 0.17285 6.22 -0.76 0.28 6.5 -0.76 0.28 6.2413 -0.76 0.17285 6.302 -0.76 0.08201 6.302 -1.04 0.08201 6.2413 -1.04 0.17285 6.5 -1.04 0.28 6.2413 -1.04 0.17285 6.302 -1.04 0.08201 6.5 -1.04 0.28 6.5 -0.76 0.28 6.302 -0.76 0.08201 6.2413 -0.76 0.17285 6.5 -0.76 0.28 6.302 -0.76 0.08201 6.3928 -0.76 0.021314 6.3928 -1.04 0.021314 6.302 -1.04 0.08201 6.5 -1.04 0.28 6.302 -1.04 0.08201 6.3928 -1.04 0.021314 6.5 -1.04 0.28 6.5 -0.76 0.28 6.3928 -0.76 0.021314 6.302 -0.76 0.08201 6.5 -0.76 0.28 6.3928 -0.76 0.021314 6.5 -0.76 0 6.5 -1.04 0 6.3928 -1.04 0.021314 6.5 -1.04 0.28 6.3928 -1.04 0.021314 6.5 -1.04 0 6.5 -1.04 0.28 6.5 -0.76 0.28 6.5 -0.76 0 6.3928 -0.76 0.021314 6.5 -0.76 0.28 6.5 -0.76 0 6.6072 -0.76 0.021314 6.6072 -1.04 0.021314 6.5 -1.04 0 6.5 -1.04 0.28 6.5 -1.04 0 6.6072 -1.04 0.021314 6.5 -1.04 0.28 6.5 -0.76 0.28 6.6072 -0.76 0.021314 6.5 -0.76 0 6.5 -0.76 0.28 6.6072 -0.76 0.021314 6.698 -0.76 0.08201 6.698 -1.04 0.08201 6.6072 -1.04 0.021314 6.5 -1.04 0.28 6.6072 -1.04 0.021314 6.698 -1.04 0.08201 6.5 -1.04 0.28 6.5 -0.76 0.28 6.698 -0.76 0.08201 6.6072 -0.76 0.021314 6.5 -0.76 0.28 6.698 -0.76 0.08201 6.7587 -0.76 0.17285 6.7587 -1.04 0.17285 6.698 -1.04 0.08201 6.5 -1.04 0.28 6.698 -1.04 0.08201 6.7587 -1.04 0.17285 6.5 -1.04 0.28 6.5 -0.76 0.28 6.7587 -0.76 0.17285 6.698 -0.76 0.08201 6.5 -0.76 0.28 6.7587 -0.76 0.17285 6.78 -0.76 0.28 6.78 -1.04 0.28 6.7587 -1.04 0.17285 6.5 -1.04 0.28 6.7587 -1.04 0.17285 6.78 -1.04 0.28 6.5 -1.04 0.28 6.5 -0.76 0.28 6.78 -0.76 0.28 6.7587 -0.76 0.17285 6.5 -0.76 0.28 6.78 1.04 0.28 6.7587 1.04 0.38715 6.7587 0.76 0.38715 6.78 0.76 0.28 6.5 0.76 0.28 6.78 0.76 0.28 6.7587 0.76 0.38715 6.5 0.76 0.28 6.5 1.04 0.28 6.7587 1.04 0.38715 6.78 1.04 0.28 6.5 1.04 0.28 6.7587 1.04 0.38715 6.698 1.04 0.47799 6.698 0.76 0.47799 6.7587 0.76 0.38715 6.5 0.76 0.28 6.7587 0.76 0.38715 6.698 0.76 0.47799 6.5 0.76 0.28 6.5 1.04 0.28 6.698 1.04 0.47799 6.7587 1.04 0.38715 6.5 1.04 0.28 6.698 1.04 0.47799 6.6072 1.04 0.53869 6.6072 0.76 0.53869 6.698 0.76 0.47799 6.5 0.76 0.28 6.698 0.76 0.47799 6.6072 0.76 0.53869 6.5 0.76 0.28 6.5 1.04 0.28 6.6072 1.04 0.53869 6.698 1.04 0.47799 6.5 1.04 0.28 6.6072 1.04 0.53869 6.5 1.04 0.56 6.5 0.76 0.56 6.6072 0.76 0.53869 6.5 0.76 0.28 6.6072 0.76 0.53869 6.5 0.76 0.56 6.5 0.76 0.28 6.5 1.04 0.28 6.5 1.04 0.56 6.6072 1.04 0.53869 6.5 1.04 0.28 6.5 1.04 0.56 6.3928 1.04 0.53869 6.3928 0.76 0.53869 6.5 0.76 0.56 6.5 0.76 0.28 6.5 0.76 0.56 6.3928 0.76 0.53869 6.5 0.76 0.28 6.5 1.04 0.28 6.3928 1.04 0.53869 6.5 1.04 0.56 6.5 1.04 0.28 6.3928 1.04 0.53869 6.302 1.04 0.47799 6.302 0.76 0.47799 6.3928 0.76 0.53869 6.5 0.76 0.28 6.3928 0.76 0.53869 6.302 0.76 0.47799 6.5 0.76 0.28 6.5 1.04 0.28 6.302 1.04 0.47799 6.3928 1.04 0.53869 6.5 1.04 0.28 6.302 1.04 0.47799 6.2413 1.04 0.38715 6.2413 0.76 0.38715 6.302 0.76 0.47799 6.5 0.76 0.28 6.302 0.76 0.47799 6.2413 0.76 0.38715 6.5 0.76 0.28 6.5 1.04 0.28 6.2413 1.04 0.38715 6.302 1.04 0.47799 6.5 1.04 0.28 6.2413 1.04 0.38715 6.22 1.04 0.28 6.22 0.76 0.28 6.2413 0.76 0.38715 6.5 0.76 0.28 6.2413 0.76 0.38715 6.22 0.76 0.28 6.5 0.76 0.28 6.5 1.04 0.28 6.22 1.04 0.28 6.2413 1.04 0.38715 6.5 1.04 0.28 6.22 1.04 0.28 6.2413 1.04 0.17285 6.2413 0.76 0.17285 6.22 0.76 0.28 6.5 0.76 0.28 6.22 0.76 0.28 6.2413 0.76 0.17285 6.5 0.76 0.28 6.5 1.04 0.28 6.2413 1.04 0.17285 6.22 1.04 0.28 6.5 1.04 0.28 6.2413 1.04 0.17285 6.302 1.04 0.08201 6.302 0.76 0.08201 6.2413 0.76 0.17285 6.5 0.76 0.28 6.2413 0.76 0.17285 6.302 0.76 0.08201 6.5 0.76 0.28 6.5 1.04 0.28 6.302 1.04 0.08201 6.2413 1.04 0.17285 6.5 1.04 0.28 6.302 1.04 0.08201 6.3928 1.04 0.021314 6.3928 0.76 0.021314 6.302 0.76 0.08201 6.5 0.76 0.28 6.302 0.76 0.08201 6.3928 0.76 0.021314 6.5 0.76 0.28 6.5 1.04 0.28 6.3928 1.04 0.021314 6.302 1.04 0.08201 6.5 1.04 0.28 6.3928 1.04 0.021314 6.5 1.04 0 6.5 0.76 0 6.3928 0.76 0.021314 6.5 0.76 0.28 6.3928 0.76 0.021314 6.5 0.76 0 6.5 0.76 0.28 6.5 1.04 0.28 6.5 1.04 0 6.3928 1.04 0.021314 6.5 1.04 0.28 6.5 1.04 0 6.6072 1.04 0.021314 6.6072 0.76 0.021314 6.5 0.76 0 6.5 0.76 0.28 6.5 0.76 0 6.6072 0.76 0.021314 6.5 0.76 0.28 6.5 1.04 0.28 6.6072 1.04 0.021314 6.5 1.04 0 6.5 1.04 0.28 6.6072 1.04 0.021314 6.698 1.04 0.08201 6.698 0.76 0.08201 6.6072 0.76 0.021314 6.5 0.76 0.28 6.6072 0.76 0.021314 6.698 0.76 0.08201 6.5 0.76 0.28 6.5 1.04 0.28 6.698 1.04 0.08201 6.6072 1.04 0.021314 6.5 1.04 0.28 6.698 1.04 0.08201 6.7587 1.04 0.17285 6.7587 0.76 0.17285 6.698 0.76 0.08201 6.5 0.76 0.28 6.698 0.76 0.08201 6.7587 0.76 0.17285 6.5 0.76 0.28 6.5 1.04 0.28 6.7587 1.04 0.17285 6.698 1.04 0.08201 6.5 1.04 0.28 6.7587 1.04 0.17285 6.78 1.04 0.28 6.78 0.76 0.28 6.7587 0.76 0.17285 6.5 0.76 0.28 6.7587 0.76 0.17285 6.78 0.76 0.28 6.5 0.76 0.28 6.5 1.04 0.28 6.78 1.04 0.28 6.7587 1.04 0.17285 6.5 1.04 0.28</float_array><technique_common><accessor source="#m-positions-array" count="1484" stride="3"><param name="X" type="float"/><param name="Y" type="float"/><param name="Z" type="float"/></accessor></technique_common></source>
    <source id="m-normals"><float_array id="m-normals-array" count="1113">-1 0 0 1 0 0 0 -1 0 0 1 0 0 0 -1 0 0 1 -1 0 0 1 0 0 0 -1 0 0 1 0 0 0 -1 0 0 1 -1 0 0 1 0 0 0 -1 0 0 1 0 0 0 -1 0 0 1 -1 0 0 1 0 0 0 -1 0 0 1 0 0 0 -1 0 0 1 -1 0 0 1 0 0 0 -1 0 0 1 0 0 0 -1 0 0 1 -1 0 0 1 0 0 0 -1 0 0 1 0 0 0 -1 0 0 1 -1 0 0 1 0 0 0 -1 0 0 1 0 0 0 -1 0 0 1 -1 0 0 1 0 0 0 -1 0 0 1 0 0 0 -1 0 0 1 -1 0 0 1 0 0 0 -1 0 0 1 0 0 0 -1 0 0 1 -1 0 0 1 0 0 0 -1 0 0 1 0 0 0 -1 0 0 1 -1 0 0 1 0 0 0 -1 0 0 1 0 0 0 -1 0 0 1 -1 0 0 1 0 0 0 -1 0 0 1 0 0 0 -1 0 0 1 -1 0 0 1 0 0 0 -1 0 0 1 0 0 0 -1 0 0 1 0 -1 0 0 -1 0 0 1 0 0 1 0 1 0 0 0.98079 0 0.19509 0 -1 0 0 1 0 0.83147 0 0.55557 0 -1 0 0 1 0 0.55557 0 0.83147 0 -1 0 0 1 0 0.19509 0 0.98079 0 -1 0 0 1 0 -0.19509 0 0.98079 0 -1 0 0 1 0 -0.55557 0 0.83147 0 -1 0 0 1 0 -0.83147 0 0.55557 0 -1 0 0 1 0 -0.98079 0 0.19509 0 -1 0 0 1 0 -0.98079 0 -0.19509 0 -1 0 0 1 0 -0.83147 0 -0.55557 0 -1 0 0 1 0 -0.55557 0 -0.83147 0 -1 0 0 1 0 -0.19509 0 -0.98079 0 -1 0 0 1 0 0.19509 0 -0.98079 0 -1 0 0 1 0 0.55557 0 -0.83147 0 -1 0 0 1 0 0.83147 0 -0.55557 0 -1 0 0 1 0 0.98079 0 -0.19509 0 -1 0 0 1 0 0.98079 0 0.19509 0 -1 0 0 1 0 0.83147 0 0.55557 0 -1 0 0 1 0 0.55557 0 0.83147 0 -1 0 0 1 0 0.19509 0 0.98079 0 -1 0 0 1 0 -0.19509 0 0.98079 0 -1 0 0 1 0 -0.55557 0 0.83147 0 -1 0 0 1 0 -0.83147 0 0.55557 0 -1 0 0 1 0 -0.98079 0 0.19509 0 -1 0 0 1 0 -0.98079 0 -0.19509 0 -1 0 0 1 0 -0.83147 0 -0.55557 0 -1 0 0 1 0 -0.55557 0 -0.83147 0 -1 0 0 1 0 -0.19509 0 -0.98079 0 -1 0 0 1 0 0.19509 0 -0.98079 0 -1 0 0 1 0 0.55557 0 -0.83147 0 -1 0 0 1 0 0.83147 0 -0.55557 0 -1 0 0 1 0 0.98079 0 -0.19509 0 -1 0 0 1 0 0.98079 0 0.19509 0 -1 0 0 1 0 0.83147 0 0.55557 0 -1 0 0 1 0 0.55557 0 0.83147 0 -1 0 0 1 0 0.19509 0 0.98079 0 -1 0 0 1 0 -0.19509 0 0.98079 0 -1 0 0 1 0 -0.55557 0 0.83147 0 -1 0 0 1 0 -0.83147 0 0.55557 0 -1 0 0 1 0 -0.98079 0 0.19509 0 -1 0 0 1 0 -0.98079 0 -0.19509 0 -1 0 0 1 0 -0.83147 0 -0.55557 0 -1 0 0 1 0 -0.55557 0 -0.83147 0 -1 0 0 1 0 -0.19509 0 -0.98079 0 -1 0 0 1 0 0.19509 0 -0.98079 0 -1 0 0 1 0 0.55557 0 -0.83147 0 -1 0 0 1 0 0.83147 0 -0.55557 0 -1 0 0 1 0 0.98079 0 -0.19509 0 -1 0 0 1 0 0.98079 0 0.19509 0 -1 0 0 1 0 0.83147 0 0.55557 0 -1 0 0 1 0 0.55557 0 0.83147 0 -1 0 0 1 0 0.19509 0 0.98079 0 -1 0 0 1 0 -0.19509 0 0.98079 0 -1 0 0 1 0 -0.55557 0 0.83147 0 -1 0 0 1 0 -0.83147 0 0.55557 0 -1 0 0 1 0 -0.98079 0 0.19509 0 -1 0 0 1 0 -0.98079 0 -0.19509 0 -1 0 0 1 0 -0.83147 0 -0.55557 0 -1 0 0 1 0 -0.55557 0 -0.83147 0 -1 0 0 1 0 -0.19509 0 -0.98079 0 -1 0 0 1 0 0.19509 0 -0.98079 0 -1 0 0 1 0 0.55557 0 -0.83147 0 -1 0 0 1 0 0.83147 0 -0.55557 0 -1 0 0 1 0 0.98079 0 -0.19509 0 -1 0 0 1 0 0.98079 0 0.19509 0 -1 0 0 1 0 0.83147 0 0.55557 0 -1 0 0 1 0 0.55557 0 0.83147 0 -1 0 0 1 0 0.19509 0 0.98079 0 -1 0 0 1 0 -0.19509 0 0.98079 0 -1 0 0 1 0 -0.55557 0 0.83147 0 -1 0 0 1 0 -0.83147 0 0.55557 0 -1 0 0 1 0 -0.98079 0 0.19509 0 -1 0 0 1 0 -0.98079 0 -0.19509 0 -1 0 0 1 0 -0.83147 0 -0.55557 0 -1 0 0 1 0 -0.55557 0 -0.83147 0 -1 0 0 1 0 -0.19509 0 -0.98079 0 -1 0 0 1 0 0.19509 0 -0.98079 0 -1 0 0 1 0 0.55557 0 -0.83147 0 -1 0 0 1 0 0.83147 0 -0.55557 0 -1 0 0 1 0 0.98079 0 -0.19509 0 -1 0 0 1 0 0.98079 0 0.19509 0 -1 0 0 1 0 0.83147 0 0.55557 0 -1 0 0 1 0 0.55557 0 0.83147 0 -1 0 0 1 0 0.19509 0 0.98079 0 -1 0 0 1 0 -0.19509 0 0.98079 0 -1 0 0 1 0 -0.55557 0 0.83147 0 -1 0 0 1 0 -0.83147 0 0.55557 0 -1 0 0 1 0 -0.98079 0 0.19509 0 -1 0 0 1 0 -0.98079 0 -0.19509 0 -1 0 0 1 0 -0.83147 0 -0.55557 0 -1 0 0 1 0 -0.55557 0 -0.83147 0 -1 0 0 1 0 -0.19509 0 -0.98079 0 -1 0 0 1 0 0.19509 0 -0.98079 0 -1 0 0 1 0 0.55557 0 -0.83147 0 -1 0 0 1 0 0.83147 0 -0.55557 0 -1 0 0 1 0 0.98079 0 -0.19509 0 -1 0 0 1 0</float_array><technique_common><accessor source="#m-normals-array" count="371" stride="3"><param name="X" type="float"/><param name="Y" type="float"/><param name="Z" type="float"/></accessor></technique_common></source>
    <source id="m-uv"><float_array id="m-uv-array" count="2968">0.5 0.5 0.5 0.5 0.5 0.5 0.5 0.5 0.5 0.5 0.5 0.5 0.5 0.5 0.5 0.5 0.5 0.5 0.5 0.5 0.5 0.5 0.5 0.5 0.5 0.5 0.5 0.5 0.5 0.5 0.5 0.5 0.5 0.5 0.5 0.5 0.5 0.5 0.5 0.5 0.5 0.5 0.5 0.5 0.5 0.5 0.5 0.5 0.5 0.5 0.5 0.5 0.5 0.5 0.5 0.5 0.5 0.5 0.5 0.5 0.5 0.5 0.5 0.5 0.5 0.5 0.5 0.5 0.5 0.5 0.5 0.5 0.5 0.5 0.5 0.5 0.5 0.5 0.5 0.5 0.5 0.5 0.5 0.5 0.5 0.5 0.5 0.5 0.5 0.5 0.5 0.5 0.5 0.5 0.5 0.5 0.5 0.5 0.5 0.5 0.5 0.5 0.5 0.5 0.5 0.5 0.5 0.5 0.5 0.5 0.5 0.5 0.5 0.5 0.5 0.5 0.5 0.5 0.5 0.5 0.5 0.5 0.5 0.5 0.5 0.5 0.5 0.5 0.5 0.5 0.5 0.5 0.5 0.5 0.5 0.5 0.5 0.5 0.5 0.5 0.5 0.5 0.5 0.5 0.5 0.5 0.5 0.5 0.5 0.5 0.5 0.5 0.5 0.5 0.5 0.5 0.5 0.5 0.5 0.5 0.5 0.5 0.5 0.5 0.5 0.5 0.5 0.5 0.5 0.5 0.5 0.5 0.5 0.5 0.5 0.5 0.5 0.5 0.5 0.5 0.5 0.5 0.5 0.5 0.5 0.5 0.5 0.5 0.5 0.5 0.5 0.5 0.5 0.5 0.5 0.5 0.5 0.5 0.5 0.5 0.5 0.5 0.5 0.5 0.5 0.5 0.5 0.5 0.5 0.5 0.5 0.5 0.5 0.5 0.5 0.5 0.5 0.5 0.5 0.5 0.5 0.5 0.5 0.5 0.5 0.5 0.5 0.5 0.5 0.5 0.5 0.5 0.5 0.5 0.5 0.5 0.5 0.5 0.5 0.5 0.5 0.5 0.5 0.5 0.5 0.5 0.5 0.5 0.5 0.5 0.5 0.5 0.5 0.5 0.5 0.5 0.5 0.5 0.5 0.5 0.5 0.5 0.5 0.5 0.5 0.5 0.5 0.5 0.5 0.5 0.5 0.5 0.5 0.5 0.5 0.5 0.5 0.5 0.5 0.5 0.5 0.5 0.5 0.5 0.5 0.5 0.5 0.5 0.5 0.5 0.5 0.5 0.5 0.5 0.5 0.5 0.5 0.5 0.5 0.5 0.5 0.5 0.5 0.5 0.5 0.5 0.5 0.5 0.5 0.5 0.5 0.5 0.5 0.5 0.5 0.5 0.5 0.5 0.5 0.5 0.5 0.5 0.5 0.5 0.5 0.5 0.5 0.5 0.5 0.5 0.5 0.5 0.5 0.5 0.5 0.5 0.5 0.5 0.5 0.5 0.5 0.5 0.5 0.5 0.5 0.5 0.5 0.5 0.5 0.5 0.5 0.5 0.5 0.5 0.5 0.5 0.5 0.5 0.5 0.5 0.5 0.5 0.5 0.5 0.5 0.5 0.5 0.5 0.5 0.5 0.5 0.5 0.5 0.5 0.5 0.5 0.5 0.5 0.5 0.5 0.5 0.5 0.5 0.5 0.5 0.5 0.5 0.5 0.5 0.5 0.5 0.5 0.5 0.5 0.5 0.5 0.5 0.5 0.5 0.5 0.5 0.5 0.5 0.5 0.5 0.5 0.5 0.5 0.5 0.5 0.5 0.5 0.5 0.5 0.5 0.5 0.5 0.5 0.5 0.5 0.5 0.5 0.5 0.5 0.5 0.5 0.5 0.5 0.5 0.5 0.5 0.5 0.5 0.5 0.5 0.5 0.5 0.5 0.5 0.5 0.5 0.5 0.5 0.5 0.5 0.5 0.5 0.5 0.5 0.5 0.5 0.5 0.5 0.5 0.5 0.5 0.5 0.5 0.5 0.5 0.5 0.5 0.5 0.5 0.5 0.5 0.5 0.5 0.5 0.5 0.5 0.5 0.5 0.5 0.5 0.5 0.5 0.5 0.5 0.5 0.5 0.5 0.5 0.5 0.5 0.5 0.5 0.5 0.5 0.5 0.5 0.5 0.5 0.5 0.5 0.5 0.5 0.5 0.5 0.5 0.5 0.5 0.5 0.5 0.5 0.5 0.5 0.5 0.5 0.5 0.5 0.5 0.5 0.5 0.5 0.5 0.5 0.5 0.5 0.5 0.5 0.5 0.5 0.5 0.5 0.5 0.5 0.5 0.5 0.5 0.5 0.5 0.5 0.5 0.5 0.5 0.5 0.5 0.5 0.5 0.5 0.5 0.5 0.5 0.5 0.5 0.5 0.5 0.5 0.5 0.5 0.5 0.5 0.5 0.5 0.5 0.5 0.5 0.5 0.5 0.5 0.5 0.5 0.5 0.5 0.5 0.5 0.5 0.5 0.5 0.5 0.5 0.5 0.5 0.5 0.5 -1.9 1.0033 1.9 1.0033 1.9 1 -1.9 1 -1.9 1 1.9 1 1.9 1.0033 -1.9 1.0033 8.5667 1 8.5667 1.0033 0.1 1.0033 0.1 1 0.1 1 0.1 1.0033 8.5667 1.0033 8.5667 1 0.1 1.9 8.5667 1.9 8.5667 -1.9 0.1 -1.9 0.1 -1.9 8.5667 -1.9 8.5667 1.9 0.1 1.9 0 0 1 0 1 1 0 1 0 0 1 0 1 1 0 1 0 0 1 0 1 1 0 1 0 0 1 0 1 1 0 1 0 0 1 0 1 1 0 1 0.5 0.5 0.5 0.5 0.5 0.5 0.5 0.5 0.5 0.5 0.5 0.5 0.5 0.5 0.5 0.5 0.5 0.5 0.5 0.5 0.5 0.5 0.5 0.5 0.5 0.5 0.5 0.5 0.5 0.5 0.5 0.5 0.5 0.5 0.5 0.5 0.5 0.5 0.5 0.5 0.5 0.5 0.5 0.5 0.5 0.5 0.5 0.5 0.5 0.5 0.5 0.5 0.5 0.5 0.5 0.5 0.5 0.5 0.5 0.5 0.5 0.5 0.5 0.5 0.5 0.5 0.5 0.5 0.5 0.5 0.5 0.5 0.5 0.5 0.5 0.5 0.5 0.5 0.5 0.5 0.5 0.5 0.5 0.5 0.5 0.5 0.5 0.5 0.5 0.5 0.5 0.5 0.5 0.5 0.5 0.5 0.5 0.5 0.5 0.5 0.5 0.5 0.5 0.5 0.5 0.5 0.5 0.5 0.5 0.5 0.5 0.5 0.5 0.5 0.5 0.5 0.5 0.5 0.5 0.5 0.5 0.5 0.5 0.5 0.5 0.5 0.5 0.5 0.5 0.5 0.5 0.5 0.5 0.5 0.5 0.5 0.5 0.5 0.5 0.5 0.5 0.5 0.5 0.5 0.5 0.5 0.5 0.5 0.5 0.5 0.5 0.5 0.5 0.5 0.5 0.5 0.5 0.5 0.5 0.5 0.5 0.5 0.5 0.5 0.5 0.5 0.5 0.5 0.5 0.5 0.5 0.5 0.5 0.5 0.5 0.5 0.5 0.5 0.5 0.5 0.5 0.5 0.5 0.5 0.5 0.5 0.5 0.5 0.5 0.5 0.5 0.5 0.5 0.5 0.5 0.5 0.5 0.5 0.5 0.5 0.5 0.5 0.5 0.5 0.5 0.5 0.5 0.5 0.5 0.5 0.5 0.5 0.5 0.5 0.5 0.5 0.5 0.5 0.5 0.5 0.5 0.5 0.5 0.5 0.5 0.5 0.5 0.5 0.5 0.5 0.5 0.5 0.5 0.5 0.5 0.5 0.5 0.5 0.5 0.5 0.5 0.5 0.5 0.5 0.5 0.5 0.5 0.5 0.5 0.5 0.5 0.5 0.5 0.5 0.5 0.5 0.5 0.5 0.5 0.5 0.5 0.5 0.5 0.5 0.5 0.5 0.5 0.5 0.5 0.5 0.5 0.5 0.5 0.5 0.5 0.5 0.5 0.5 0.5 0.5 0.5 0.5 0.5 0.5 0.5 0.5 0.5 0.5 0.5 0.5 0.5 0.5 0.5 0.5 0.5 0.5 0.5 0.5 0.5 0.5 0.5 0.5 0.5 0.5 0.5 0.5 0.5 0.5 0.5 0.5 0.5 0.5 0.5 0.5 0.5 0.5 0.5 0.5 0.5 0.5 0.5 0.5 0.5 0.5 0.5 0.5 0.5 0.5 0.5 0.5 0.5 0.5 0.5 0.5 0.5 0.5 0.5 0.5 0.5 0.5 0.5 0.5 0.5 0.5 0.5 0.5 0.5 0.5 0.5 0.5 0.5 0.5 0.5 0.5 0.5 0.5 0.5 0.5 0.5 0.5 0.5 0.5 0.5 0.5 0.5 0.5 0.5 0.5 0.5 0.5 0.5 0.5 0.5 0.5 0.5 0.5 0.5 0.5 0.5 0.5 0.5 0.5 0.5 0.5 0.5 0.5 0.5 0.5 0.5 0.5 0.5 0.5 0.5 0.5 0.5 0.5 0.5 0.5 0.5 0.5 0.5 0.5 0.5 0.5 0.5 0.5 0.5 0.5 0.5 0.5 0.5 0.5 0.5 0.5 0.5 0.5 0.5 0.5 0.5 0.5 0.5 0.5 0.5 0.5 0.5 0.5 0.5 0.5 0.5 0.5 0.5 0.5 0.5 0.5 0.5 0.5 0.5 0.5 0.5 0.5 0.5 0.5 0.5 0.5 0.5 0.5 0.5 0.5 0.5 0.5 0.5 0.5 0.5 0.5 0.5 0.5 0.5 0.5 0.5 0.5 0.5 0.5 0.5 0.5 0.5 0.5 0.5 0.5 0.5 0.5 0.5 0.5 0.5 0.5 0.5 0.5 0.5 0.5 0.5 0.5 0.5 0.5 0.5 0.5 0.5 0.5 0.5 0.5 0.5 0.5 0.5 0.5 0.5 0.5 0.5 0.5 0.5 0.5 0.5 0.5 0.5 0.5 0.5 0.5 0.5 0.5 0.5 0.5 0.5 0.5 0.5 0.5 0.5 0.5 0.5 0.5 0.5 0.5 0.5 0.5 0.5 0.5 0.5 0.5 0.5 0.5 0.5 0.5 0.5 0.5 0.5 0.5 0.5 0.5 0.5 0.5 0.5 0.5 0.5 0.5 0.5 0.5 0.5 0.5 0.5 0.5 0.5 0.5 0.5 0.5 0.5 0.5 0.5 0.5 0.5 0.5 0.5 0.5 0.5 0.5 0.5 0.5 0.5 0.5 0.5 0.5 0.5 0.5 0.5 0.5 0.5 0.5 0.5 0.5 0.5 0.5 0.5 0.5 0.5 0.5 0.5 0.5 0.5 0.5 0.5 0.5 0.5 0.5 0.5 0.5 0.5 0.5 0.5 0.5 0.5 0.5 0.5 0.5 0.5 0.5 0.5 0.5 0.5 0.5 0.5 0.5 0.5 0.5 0.5 0.5 0.5 0.5 0.5 0.5 0.5 0.5 0.5 0.5 0.5 0.5 0.5 0.5 0.5 0.5 0.5 0.5 0.5 0.5 0.5 0.5 0.5 0.5 0.5 0.5 0.5 0.5 0.5 0.5 0.5 0.5 0.5 0.5 0.5 0.5 0.5 0.5 0.5 0.5 0.5 0.5 0.5 0.5 0.5 0.5 0.5 0.5 0.5 0.5 0.5 0.5 0.5 0.5 0.5 0.5 0.5 0.5 0.5 0.5 0.5 0.5 0.5 0.5 0.5 0.5 0.5 0.5 0.5 0.5 0.5 0.5 0.5 0.5 0.5 0.5 0.5 0.5 0.5 0.5 0.5 0.5 0.5 0.5 0.5 0.5 0.5 0.5 0.5 0.5 0.5 0.5 0.5 0.5 0.5 0.5 0.5 0.5 0.5 0.5 0.5 0.5 0.5 0.5 0.5 0.5 0.5 0.5 0.5 0.5 0.5 0.5 0.5 0.5 0.5 0.5 0.5 0.5 0.5 0.5 0.5 0.5 0.5 0.5 0.5 0.5 0.5 0.5 0.5 0.5 0.5 0.5 0.5 0.5 0.5 0.5 0.5 0.5 0.5 0.5 0.5 0.5 0.5 0.5 0.5 0.5 0.5 0.5 0.5 0.5 0.5 0.5 0.5 0.5 0.5 0.5 0.5 0.5 0.5 0.5 0.5 0.5 0.5 0.5 0.5 0.5 0.5 0.5 0.5 0.5 0.5 0.5 0.5 0.5 0.5 0.5 0.5 0.5 0.5 0.5 0.5 0.5 0.5 0.5 0.5 0.5 0.5 0.5 0.5 0.5 0.5 0.5 0.5 0.5 0.5 0.5 0.5 0.5 0.5 0.5 0.5 0.5 0.5 0.5 0.5 0.5 0.5 0.5 0.5 0.5 0.5 0.5 0.5 0.5 0.5 0.5 0.5 0.5 0.5 0.5 0.5 0.5 0.5 0.5 0.5 0.5 0.5 0.5 0.5 0.5 0.5 0.5 0.5 0.5 0.5 0.5 0.5 0.5 0.5 0.5 0.5 0.5 0.5 0.5 0.5 0.5 0.5 0.5 0.5 0.5 0.5 0.5 0.5 0.5 0.5 0.5 0.5 0.5 0.5 0.5 0.5 0.5 0.5 0.5 0.5 0.5 0.5 0.5 0.5 0.5 0.5 0.5 0.5 0.5 0.5 0.5 0.5 0.5 0.5 0.5 0.5 0.5 0.5 0.5 0.5 0.5 0.5 0.5 0.5 0.5 0.5 0.5 0.5 0.5 0.5 0.5 0.5 0.5 0.5 0.5 0.5 0.5 0.5 0.5 0.5 0.5 0.5 0.5 0.5 0.5 0.5 0.5 0.5 0.5 0.5 0.5 0.5 0.5 0.5 0.5 0.5 0.5 0.5 0.5 0.5 0.5 0.5 0.5 0.5 0.5 0.5 0.5 0.5 0.5 0.5 0.5 0.5 0.5 0.5 0.5 0.5 0.5 0.5 0.5 0.5 0.5 0.5 0.5 0.5 0.5 0.5 0.5 0.5 0.5 0.5 0.5 0.5 0.5 0.5 0.5 0.5 0.5 0.5 0.5 0.5 0.5 0.5 0.5 0.5 0.5 0.5 0.5 0.5 0.5 0.5 0.5 0.5 0.5 0.5 0.5 0.5 0.5 0.5 0.5 0.5 0.5 0.5 0.5 0.5 0.5 0.5 0.5 0.5 0.5 0.5 0.5 0.5 0.5 0.5 0.5 0.5 0.5 0.5 0.5 0.5 0.5 0.5 0.5 0.5 0.5 0.5 0.5 0.5 0.5 0.5 0.5 0.5 0.5 0.5 0.5 0.5 0.5 0.5 0.5 0.5 0.5 0.5 0.5 0.5 0.5 0.5 0.5 0.5 0.5 0.5 0.5 0.5 0.5 0.5 0.5 0.5 0.5 0.5 0.5 0.5 0.5 0.5 0.5 0.5 0.5 0.5 0.5 0.5 0.5 0.5 0.5 0.5 0.5 0.5 0.5 0.5 0.5 0.5 0.5 0.5 0.5 0.5 0.5 0.5 0.5 0.5 0.5 0.5 0.5 0.5 0.5 0.5 0.5 0.5 0.5 0.5 0.5 0.5 0.5 0.5 0.5 0.5 0.5 0.5 0.5 0.5 0.5 0.5 0.5 0.5 0.5 0.5 0.5 0.5 0.5 0.5 0.5 0.5 0.5 0.5 0.5 0.5 0.5 0.5 0.5 0.5 0.5 0.5 0.5 0.5 0.5 0.5 0.5 0.5 0.5 0.5 0.5 0.5 0.5 0.5 0.5 0.5 0.5 0.5 0.5 0.5 0.5 0.5 0.5 0.5 0.5 0.5 0.5 0.5 0.5 0.5 0.5 0.5 0.5 0.5 0.5 0.5 0.5 0.5 0.5 0.5 0.5 0.5 0.5 0.5 0.5 0.5 0.5 0.5 0.5 0.5 0.5 0.5 0.5 0.5 0.5 0.5 0.5 0.5 0.5 0.5 0.5 0.5 0.5 0.5 0.5 0.5 0.5 0.5 0.5 0.5 0.5 0.5 0.5 0.5 0.5 0.5 0.5 0.5 0.5 0.5 0.5 0.5 0.5 0.5 0.5 0.5 0.5 0.5 0.5 0.5 0.5 0.5 0.5 0.5 0.5 0.5 0.5 0.5 0.5 0.5 0.5 0.5 0.5 0.5 0.5 0.5 0.5 0.5 0.5 0.5 0.5 0.5 0.5 0.5 0.5 0.5 0.5 0.5 0.5 0.5 0.5 0.5 0.5 0.5 0.5 0.5 0.5 0.5 0.5 0.5 0.5 0.5 0.5 0.5 0.5 0.5 0.5 0.5 0.5 0.5 0.5 0.5 0.5 0.5 0.5 0.5 0.5 0.5 0.5 0.5 0.5 0.5 0.5 0.5 0.5 0.5 0.5 0.5 0.5 0.5 0.5 0.5 0.5 0.5 0.5 0.5 0.5 0.5 0.5 0.5 0.5 0.5 0.5 0.5 0.5 0.5 0.5 0.5 0.5 0.5 0.5 0.5 0.5 0.5 0.5 0.5 0.5 0.5 0.5 0.5 0.5 0.5 0.5 0.5 0.5 0.5 0.5 0.5 0.5 0.5 0.5 0.5 0.5 0.5 0.5 0.5 0.5 0.5 0.5 0.5 0.5 0.5 0.5 0.5 0.5 0.5 0.5 0.5 0.5 0.5 0.5 0.5 0.5 0.5 0.5 0.5 0.5 0.5 0.5 0.5 0.5 0.5 0.5 0.5 0.5 0.5 0.5 0.5 0.5 0.5 0.5 0.5 0.5 0.5 0.5 0.5 0.5 0.5 0.5 0.5 0.5 0.5 0.5 0.5 0.5 0.5 0.5 0.5 0.5 0.5 0.5 0.5 0.5 0.5 0.5 0.5 0.5 0.5 0.5 0.5 0.5 0.5 0.5 0.5 0.5 0.5 0.5 0.5 0.5 0.5 0.5 0.5 0.5 0.5 0.5 0.5 0.5 0.5 0.5 0.5 0.5 0.5 0.5 0.5 0.5 0.5 0.5 0.5 0.5 0.5 0.5 0.5 0.5 0.5 0.5 0.5 0.5 0.5 0.5 0.5 0.5 0.5 0.5 0.5 0.5 0.5 0.5 0.5 0.5 0.5 0.5 0.5 0.5 0.5 0.5 0.5 0.5 0.5 0.5 0.5 0.5 0.5 0.5 0.5 0.5 0.5 0.5 0.5 0.5 0.5 0.5 0.5 0.5 0.5 0.5 0.5 0.5 0.5 0.5 0.5 0.5 0.5 0.5 0.5 0.5 0.5 0.5 0.5 0.5 0.5 0.5 0.5 0.5 0.5 0.5 0.5 0.5 0.5 0.5 0.5 0.5 0.5 0.5 0.5 0.5 0.5 0.5 0.5 0.5 0.5 0.5 0.5 0.5 0.5 0.5 0.5 0.5 0.5 0.5 0.5 0.5 0.5 0.5 0.5 0.5 0.5 0.5 0.5 0.5 0.5 0.5 0.5 0.5 0.5 0.5 0.5 0.5 0.5 0.5 0.5 0.5 0.5 0.5 0.5 0.5 0.5 0.5 0.5 0.5 0.5 0.5 0.5 0.5 0.5 0.5 0.5 0.5 0.5 0.5 0.5 0.5 0.5 0.5 0.5 0.5 0.5 0.5 0.5 0.5 0.5 0.5 0.5 0.5 0.5 0.5 0.5 0.5 0.5 0.5 0.5 0.5 0.5 0.5 0.5 0.5 0.5 0.5 0.5 0.5 0.5 0.5 0.5 0.5 0.5 0.5 0.5 0.5 0.5 0.5 0.5 0.5 0.5 0.5 0.5 0.5 0.5 0.5 0.5 0.5 0.5 0.5 0.5 0.5 0.5 0.5 0.5 0.5 0.5 0.5 0.5 0.5 0.5 0.5 0.5 0.5 0.5 0.5 0.5 0.5 0.5 0.5 0.5 0.5 0.5 0.5 0.5 0.5 0.5 0.5 0.5 0.5 0.5 0.5 0.5 0.5 0.5 0.5 0.5 0.5 0.5 0.5 0.5 0.5 0.5 0.5 0.5 0.5 0.5 0.5 0.5 0.5 0.5 0.5 0.5 0.5 0.5 0.5 0.5 0.5 0.5 0.5 0.5 0.5 0.5 0.5 0.5 0.5 0.5 0.5 0.5 0.5 0.5 0.5 0.5 0.5 0.5 0.5 0.5 0.5 0.5 0.5 0.5 0.5 0.5 0.5 0.5 0.5 0.5 0.5 0.5 0.5 0.5 0.5 0.5 0.5 0.5 0.5 0.5 0.5 0.5 0.5 0.5 0.5 0.5 0.5 0.5 0.5 0.5 0.5 0.5 0.5 0.5 0.5 0.5 0.5 0.5 0.5 0.5 0.5 0.5 0.5 0.5 0.5 0.5 0.5 0.5 0.5 0.5 0.5 0.5 0.5 0.5 0.5 0.5 0.5 0.5 0.5 0.5 0.5 0.5 0.5 0.5 0.5 0.5 0.5 0.5 0.5 0.5 0.5 0.5 0.5 0.5 0.5 0.5 0.5 0.5 0.5 0.5 0.5 0.5 0.5 0.5 0.5 0.5 0.5 0.5 0.5 0.5 0.5 0.5 0.5 0.5 0.5 0.5 0.5 0.5 0.5 0.5 0.5 0.5 0.5 0.5 0.5 0.5 0.5 0.5 0.5 0.5 0.5 0.5 0.5 0.5 0.5 0.5 0.5 0.5 0.5 0.5 0.5 0.5 0.5 0.5 0.5 0.5 0.5 0.5 0.5 0.5 0.5 0.5 0.5 0.5 0.5 0.5 0.5 0.5 0.5 0.5 0.5 0.5 0.5 0.5 0.5 0.5 0.5 0.5 0.5 0.5 0.5 0.5 0.5 0.5 0.5 0.5 0.5 0.5 0.5 0.5 0.5 0.5 0.5 0.5 0.5 0.5 0.5 0.5 0.5 0.5 0.5 0.5 0.5 0.5 0.5 0.5 0.5 0.5 0.5 0.5 0.5 0.5 0.5 0.5 0.5 0.5 0.5 0.5 0.5 0.5 0.5 0.5 0.5 0.5 0.5 0.5 0.5 0.5 0.5 0.5 0.5 0.5 0.5 0.5 0.5 0.5 0.5 0.5 0.5 0.5 0.5 0.5 0.5 0.5 0.5 0.5 0.5 0.5 0.5 0.5 0.5 0.5 0.5 0.5 0.5 0.5 0.5 0.5 0.5 0.5 0.5 0.5 0.5 0.5 0.5 0.5 0.5 0.5 0.5 0.5 0.5 0.5 0.5 0.5 0.5 0.5 0.5 0.5 0.5 0.5 0.5 0.5 0.5 0.5 0.5 0.5 0.5 0.5 0.5 0.5 0.5 0.5 0.5 0.5 0.5 0.5 0.5 0.5 0.5 0.5 0.5 0.5 0.5 0.5 0.5 0.5 0.5 0.5 0.5 0.5 0.5 0.5 0.5 0.5 0.5 0.5 0.5 0.5 0.5 0.5 0.5 0.5 0.5 0.5 0.5 0.5 0.5 0.5 0.5 0.5 0.5 0.5 0.5 0.5 0.5 0.5 0.5 0.5 0.5 0.5 0.5 0.5 0.5 0.5 0.5 0.5 0.5 0.5 0.5 0.5 0.5 0.5 0.5 0.5 0.5 0.5 0.5 0.5 0.5 0.5 0.5 0.5 0.5 0.5 0.5 0.5 0.5 0.5 0.5 0.5 0.5 0.5 0.5 0.5 0.5 0.5 0.5 0.5 0.5 0.5 0.5 0.5 0.5 0.5 0.5 0.5 0.5 0.5 0.5 0.5 0.5 0.5 0.5 0.5 0.5 0.5 0.5 0.5 0.5 0.5 0.5 0.5 0.5 0.5 0.5 0.5 0.5 0.5 0.5 0.5 0.5 0.5 0.5 0.5 0.5 0.5 0.5 0.5 0.5 0.5 0.5 0.5 0.5 0.5 0.5 0.5 0.5 0.5 0.5 0.5 0.5 0.5 0.5 0.5 0.5 0.5 0.5 0.5 0.5 0.5 0.5 0.5 0.5 0.5 0.5 0.5 0.5 0.5 0.5 0.5 0.5 0.5 0.5 0.5 0.5 0.5 0.5 0.5 0.5 0.5 0.5 0.5 0.5 0.5 0.5 0.5 0.5 0.5 0.5 0.5 0.5 0.5 0.5 0.5 0.5 0.5 0.5 0.5 0.5 0.5 0.5 0.5 0.5 0.5 0.5 0.5 0.5 0.5 0.5 0.5 0.5 0.5 0.5 0.5 0.5 0.5 0.5 0.5 0.5 0.5 0.5 0.5 0.5 0.5 0.5 0.5 0.5 0.5 0.5 0.5 0.5 0.5 0.5 0.5 0.5 0.5 0.5 0.5 0.5 0.5 0.5 0.5 0.5 0.5 0.5 0.5 0.5 0.5 0.5 0.5 0.5 0.5 0.5 0.5 0.5 0.5 0.5 0.5 0.5 0.5 0.5 0.5 0.5 0.5 0.5 0.5 0.5 0.5 0.5 0.5 0.5 0.5 0.5 0.5 0.5 0.5 0.5 0.5 0.5 0.5 0.5 0.5 0.5 0.5 0.5 0.5 0.5 0.5 0.5 0.5 0.5 0.5 0.5 0.5 0.5 0.5 0.5 0.5 0.5 0.5 0.5 0.5 0.5 0.5 0.5 0.5 0.5 0.5 0.5 0.5 0.5 0.5 0.5 0.5 0.5 0.5 0.5 0.5 0.5 0.5 0.5 0.5 0.5 0.5 0.5 0.5 0.5 0.5 0.5 0.5 0.5 0.5 0.5 0.5 0.5 0.5 0.5 0.5 0.5 0.5 0.5 0.5 0.5 0.5 0.5 0.5 0.5 0.5 0.5 0.5 0.5 0.5 0.5 0.5 0.5 0.5 0.5 0.5 0.5 0.5 0.5 0.5 0.5 0.5 0.5 0.5 0.5 0.5 0.5 0.5 0.5 0.5 0.5 0.5 0.5 0.5 0.5</float_array><technique_common><accessor source="#m-uv-array" count="1484" stride="2"><param name="S" type="float"/><param name="T" type="float"/></accessor></technique_common></source>
    <vertices id="m-vertices"><input semantic="POSITION" source="#m-positions"/></vertices>
    <triangles material="body-material" count="60"><input semantic="VERTEX" source="#m-vertices" offset="0"/><input semantic="NORMAL" source="#m-normals" offset="1"/><input semantic="TEXCOORD" source="#m-uv" offset="2" set="0"/><p>0 0 0 1 0 1 2 0 2 0 0 0 2 0 2 3 0 3 4 1 4 5 1 5 6 1 6 4 1 4 6 1 6 7 1 7 8 2 8 9 2 9 10 2 10 8 2 8 10 2 10 11 2 11 12 3 12 13 3 13 14 3 14 12 3 12 14 3 14 15 3 15 16 4 16 17 4 17 18 4 18 16 4 16 18 4 18 19 4 19 20 5 20 21 5 21 22 5 22 20 5 20 22 5 22 23 5 23 24 6 24 25 6 25 26 6 26 24 6 24 26 6 26 27 6 27 28 7 28 29 7 29 30 7 30 28 7 28 30 7 30 31 7 31 32 8 32 33 8 33 34 8 34 32 8 32 34 8 34 35 8 35 36 9 36 37 9 37 38 9 38 36 9 36 38 9 38 39 9 39 40 10 40 41 10 41 42 10 42 40 10 40 42 10 42 43 10 43 44 11 44 45 11 45 46 11 46 44 11 44 46 11 46 47 11 47 48 12 48 49 12 49 50 12 50 48 12 48 50 12 50 51 12 51 52 13 52 53 13 53 54 13 54 52 13 52 54 13 54 55 13 55 56 14 56 57 14 57 58 14 58 56 14 56 58 14 58 59 14 59 60 15 60 61 15 61 62 15 62 60 15 60 62 15 62 63 15 63 64 16 64 65 16 65 66 16 66 64 16 64 66 16 66 67 16 67 68 17 68 69 17 69 70 17 70 68 17 68 70 17 70 71 17 71 72 18 72 73 18 73 74 18 74 72 18 72 74 18 74 75 18 75 76 19 76 77 19 77 78 19 78 76 19 76 78 19 78 79 19 79 80 20 80 81 20 81 82 20 82 80 20 80 82 20 82 83 20 83 84 21 84 85 21 85 86 21 86 84 21 84 86 21 86 87 21 87 88 22 88 89 22 89 90 22 90 88 22 88 90 22 90 91 22 91 92 23 92 93 23 93 94 23 94 92 23 92 94 23 94 95 23 95 96 24 96 97 24 97 98 24 98 96 24 96 98 24 98 99 24 99 100 25 100 101 25 101 102 25 102 100 25 100 102 25 102 103 25 103 104 26 104 105 26 105 106 26 106 104 26 104 106 26 106 107 26 107 108 27 108 109 27 109 110 27 110 108 27 108 110 27 110 111 27 111 112 28 112 113 28 113 114 28 114 112 28 112 114 28 114 115 28 115 116 29 116 117 29 117 118 29 118 116 29 116 118 29 118 119 29 119</p></triangles><triangles material="cab-material" count="12"><input semantic="VERTEX" source="#m-vertices" offset="0"/><input semantic="NORMAL" source="#m-normals" offset="1"/><input semantic="TEXCOORD" source="#m-uv" offset="2" set="0"/><p>168 42 168 169 42 169 170 42 170 168 42 168 170 42 170 171 42 171 172 43 172 173 43 173 174 43 174 172 43 172 174 43 174 175 43 175 176 44 176 177 44 177 178 44 178 176 44 176 178 44 178 179 44 179 180 45 180 181 45 181 182 45 182 180 45 180 182 45 182 183 45 183 184 46 184 185 46 185 186 46 186 184 46 184 186 46 186 187 46 187 188 47 188 189 47 189 190 47 190 188 47 188 190 47 190 191 47 191</p></triangles><triangles material="trim-material" count="72"><input semantic="VERTEX" source="#m-vertices" offset="0"/><input semantic="NORMAL" source="#m-normals" offset="1"/><input semantic="TEXCOORD" source="#m-uv" offset="2" set="0"/><p>120 30 120 121 30 121 122 30 122 120 30 120 122 30 122 123 30 123 124 31 124 125 31 125 126 31 126 124 31 124 126 31 126 127 31 127 128 32 128 129 32 129 130 32 130 128 32 128 130 32 130 131 32 131 132 33 132 133 33 133 134 33 134 132 33 132 134 33 134 135 33 135 136 34 136 137 34 137 138 34 138 136 34 136 138 34 138 139 34 139 140 35 140 141 35 141 142 35 142 140 35 140 142 35 142 143 35 143 144 36 144 145 36 145 146 36 146 144 36 144 146 36 146 147 36 147 148 37 148 149 37 149 150 37 150 148 37 148 150 37 150 151 37 151 152 38 152 153 38 153 154 38 154 152 38 152 154 38 154 155 38 155 156 39 156 157 39 157 158 39 158 156 39 156 158 39 158 159 39 159 160 40 160 161 40 161 162 40 162 160 40 160 162 40 162 163 40 163 164 41 164 165 41 165 166 41 166 164 41 164 166 41 166 167 41 167 192 48 192 193 48 193 194 48 194 192 48 192 194 48 194 195 48 195 196 49 196 197 49 197 198 49 198 196 49 196 198 49 198 199 49 199 200 50 200 201 50 201 202 50 202 200 50 200 202 50 202 203 50 203 204 51 204 205 51 205 206 51 206 204 51 204 206 51 206 207 51 207 208 52 208 209 52 209 210 52 210 208 52 208 210 52 210 211 52 211 212 53 212 213 53 213 214 53 214 212 53 212 214 53 214 215 53 215 216 54 216 217 54 217 218 54 218 216 54 216 218 54 218 219 54 219 220 55 220 221 55 221 222 55 222 220 55 220 222 55 222 223 55 223 224 56 224 225 56 225 226 56 226 224 56 224 226 56 226 227 56 227 228 57 228 229 57 229 230 57 230 228 57 228 230 57 230 231 57 231 232 58 232 233 58 233 234 58 234 232 58 232 234 58 234 235 58 235 236 59 236 237 59 237 238 59 238 236 59 236 238 59 238 239 59 239 240 60 240 241 60 241 242 60 242 240 60 240 242 60 242 243 60 243 244 61 244 245 61 245 246 61 246 244 61 244 246 61 246 247 61 247 248 62 248 249 62 249 250 62 250 248 62 248 250 62 250 251 62 251 252 63 252 253 63 253 254 63 254 252 63 252 254 63 254 255 63 255 256 64 256 257 64 257 258 64 258 256 64 256 258 64 258 259 64 259 260 65 260 261 65 261 262 65 262 260 65 260 262 65 262 263 65 263 264 66 264 265 66 265 266 66 266 264 66 264 266 66 266 267 66 267 268 67 268 269 67 269 270 67 270 268 67 268 270 67 270 271 67 271 272 68 272 273 68 273 274 68 274 272 68 272 274 68 274 275 68 275 276 69 276 277 69 277 278 69 278 276 69 276 278 69 278 279 69 279 280 70 280 281 70 281 282 70 282 280 70 280 282 70 282 283 70 283 284 71 284 285 71 285 286 71 286 284 71 284 286 71 286 287 71 287</p></triangles><triangles material="tyre-material" count="576"><input semantic="VERTEX" source="#m-vertices" offset="0"/><input semantic="NORMAL" source="#m-normals" offset="1"/><input semantic="TEXCOORD" source="#m-uv" offset="2" set="0"/><p>332 83 332 333 83 333 334 83 334 332 83 332 334 83 334 335 83 335 336 84 336 337 84 337 338 84 338 336 84 336 338 84 338 339 84 339 340 85 340 341 85 341 342 85 342 340 85 340 342 85 342 343 85 343 344 86 344 345 86 345 346 86 346 344 86 344 346 86 346 347 86 347 348 87 348 349 87 349 350 87 350 348 87 348 350 87 350 351 87 351 352 88 352 353 88 353 354 88 354 352 88 352 354 88 354 355 88 355 356 89 356 357 89 357 358 89 358 356 89 356 358 89 358 359 89 359 360 90 360 361 90 361 362 90 362 360 90 360 362 90 362 363 90 363 364 91 364 365 91 365 366 91 366 364 91 364 366 91 366 367 91 367 368 92 368 369 92 369 370 92 370 368 92 368 370 92 370 371 92 371 372 93 372 373 93 373 374 93 374 372 93 372 374 93 374 375 93 375 376 94 376 377 94 377 378 94 378 376 94 376 378 94 378 379 94 379 380 95 380 381 95 381 382 95 382 380 95 380 382 95 382 383 95 383 384 96 384 385 96 385 386 96 386 384 96 384 386 96 386 387 96 387 388 97 388 389 97 389 390 97 390 388 97 388 390 97 390 391 97 391 392 98 392 393 98 393 394 98 394 392 98 392 394 98 394 395 98 395 396 99 396 397 99 397 398 99 398 396 99 396 398 99 398 399 99 399 400 100 400 401 100 401 402 100 402 400 100 400 402 100 402 403 100 403 404 101 404 405 101 405 406 101 406 404 101 404 406 101 406 407 101 407 408 102 408 409 102 409 410 102 410 408 102 408 410 102 410 411 102 411 412 103 412 413 103 413 414 103 414 412 103 412 414 103 414 415 103 415 416 104 416 417 104 417 418 104 418 416 104 416 418 104 418 419 104 419 420 105 420 421 105 421 422 105 422 420 105 420 422 105 422 423 105 423 424 106 424 425 106 425 426 106 426 424 106 424 426 106 426 427 106 427 428 107 428 429 107 429 430 107 430 428 107 428 430 107 430 431 107 431 432 108 432 433 108 433 434 108 434 432 108 432 434 108 434 435 108 435 436 109 436 437 109 437 438 109 438 436 109 436 438 109 438 439 109 439 440 110 440 441 110 441 442 110 442 440 110 440 442 110 442 443 110 443 444 111 444 445 111 445 446 111 446 444 111 444 446 111 446 447 111 447 448 112 448 449 112 449 450 112 450 448 112 448 450 112 450 451 112 451 452 113 452 453 113 453 454 113 454 452 113 452 454 113 454 455 113 455 456 114 456 457 114 457 458 114 458 456 114 456 458 114 458 459 114 459 460 115 460 461 115 461 462 115 462 460 115 460 462 115 462 463 115 463 464 116 464 465 116 465 466 116 466 464 116 464 466 116 466 467 116 467 468 117 468 469 117 469 470 117 470 468 117 468 470 117 470 471 117 471 472 118 472 473 118 473 474 118 474 472 118 472 474 118 474 475 118 475 476 119 476 477 119 477 478 119 478 476 119 476 478 119 478 479 119 479 480 120 480 481 120 481 482 120 482 480 120 480 482 120 482 483 120 483 484 121 484 485 121 485 486 121 486 484 121 484 486 121 486 487 121 487 488 122 488 489 122 489 490 122 490 488 122 488 490 122 490 491 122 491 492 123 492 493 123 493 494 123 494 492 123 492 494 123 494 495 123 495 496 124 496 497 124 497 498 124 498 496 124 496 498 124 498 499 124 499 500 125 500 501 125 501 502 125 502 500 125 500 502 125 502 503 125 503 504 126 504 505 126 505 506 126 506 504 126 504 506 126 506 507 126 507 508 127 508 509 127 509 510 127 510 508 127 508 510 127 510 511 127 511 512 128 512 513 128 513 514 128 514 512 128 512 514 128 514 515 128 515 516 129 516 517 129 517 518 129 518 516 129 516 518 129 518 519 129 519 520 130 520 521 130 521 522 130 522 520 130 520 522 130 522 523 130 523 524 131 524 525 131 525 526 131 526 524 131 524 526 131 526 527 131 527 528 132 528 529 132 529 530 132 530 528 132 528 530 132 530 531 132 531 532 133 532 533 133 533 534 133 534 532 133 532 534 133 534 535 133 535 536 134 536 537 134 537 538 134 538 536 134 536 538 134 538 539 134 539 540 135 540 541 135 541 542 135 542 540 135 540 542 135 542 543 135 543 544 136 544 545 136 545 546 136 546 544 136 544 546 136 546 547 136 547 548 137 548 549 137 549 550 137 550 548 137 548 550 137 550 551 137 551 552 138 552 553 138 553 554 138 554 552 138 552 554 138 554 555 138 555 556 139 556 557 139 557 558 139 558 556 139 556 558 139 558 559 139 559 560 140 560 561 140 561 562 140 562 560 140 560 562 140 562 563 140 563 564 141 564 565 141 565 566 141 566 564 141 564 566 141 566 567 141 567 568 142 568 569 142 569 570 142 570 568 142 568 570 142 570 571 142 571 572 143 572 573 143 573 574 143 574 572 143 572 574 143 574 575 143 575 576 144 576 577 144 577 578 144 578 576 144 576 578 144 578 579 144 579 580 145 580 581 145 581 582 145 582 580 145 580 582 145 582 583 145 583 584 146 584 585 146 585 586 146 586 584 146 584 586 146 586 587 146 587 588 147 588 589 147 589 590 147 590 588 147 588 590 147 590 591 147 591 592 148 592 593 148 593 594 148 594 592 148 592 594 148 594 595 148 595 596 149 596 597 149 597 598 149 598 596 149 596 598 149 598 599 149 599 600 150 600 601 150 601 602 150 602 600 150 600 602 150 602 603 150 603 604 151 604 605 151 605 606 151 606 604 151 604 606 151 606 607 151 607 608 152 608 609 152 609 610 152 610 608 152 608 610 152 610 611 152 611 612 153 612 613 153 613 614 153 614 612 153 612 614 153 614 615 153 615 616 154 616 617 154 617 618 154 618 616 154 616 618 154 618 619 154 619 620 155 620 621 155 621 622 155 622 620 155 620 622 155 622 623 155 623 624 156 624 625 156 625 626 156 626 624 156 624 626 156 626 627 156 627 628 157 628 629 157 629 630 157 630 628 157 628 630 157 630 631 157 631 632 158 632 633 158 633 634 158 634 632 158 632 634 158 634 635 158 635 636 159 636 637 159 637 638 159 638 636 159 636 638 159 638 639 159 639 640 160 640 641 160 641 642 160 642 640 160 640 642 160 642 643 160 643 644 161 644 645 161 645 646 161 646 644 161 644 646 161 646 647 161 647 648 162 648 649 162 649 650 162 650 648 162 648 650 162 650 651 162 651 652 163 652 653 163 653 654 163 654 652 163 652 654 163 654 655 163 655 656 164 656 657 164 657 658 164 658 656 164 656 658 164 658 659 164 659 660 165 660 661 165 661 662 165 662 660 165 660 662 165 662 663 165 663 664 166 664 665 166 665 666 166 666 664 166 664 666 166 666 667 166 667 668 167 668 669 167 669 670 167 670 668 167 668 670 167 670 671 167 671 672 168 672 673 168 673 674 168 674 672 168 672 674 168 674 675 168 675 676 169 676 677 169 677 678 169 678 676 169 676 678 169 678 679 169 679 680 170 680 681 170 681 682 170 682 680 170 680 682 170 682 683 170 683 684 171 684 685 171 685 686 171 686 684 171 684 686 171 686 687 171 687 688 172 688 689 172 689 690 172 690 688 172 688 690 172 690 691 172 691 692 173 692 693 173 693 694 173 694 692 173 692 694 173 694 695 173 695 696 174 696 697 174 697 698 174 698 696 174 696 698 174 698 699 174 699 700 175 700 701 175 701 702 175 702 700 175 700 702 175 702 703 175 703 704 176 704 705 176 705 706 176 706 704 176 704 706 176 706 707 176 707 708 177 708 709 177 709 710 177 710 708 177 708 710 177 710 711 177 711 712 178 712 713 178 713 714 178 714 712 178 712 714 178 714 715 178 715 716 179 716 717 179 717 718 179 718 716 179 716 718 179 718 719 179 719 720 180 720 721 180 721 722 180 722 720 180 720 722 180 722 723 180 723 724 181 724 725 181 725 726 181 726 724 181 724 726 181 726 727 181 727 728 182 728 729 182 729 730 182 730 728 182 728 730 182 730 731 182 731 732 183 732 733 183 733 734 183 734 732 183 732 734 183 734 735 183 735 736 184 736 737 184 737 738 184 738 736 184 736 738 184 738 739 184 739 740 185 740 741 185 741 742 185 742 740 185 740 742 185 742 743 185 743 744 186 744 745 186 745 746 186 746 744 186 744 746 186 746 747 186 747 748 187 748 749 187 749 750 187 750 748 187 748 750 187 750 751 187 751 752 188 752 753 188 753 754 188 754 752 188 752 754 188 754 755 188 755 756 189 756 757 189 757 758 189 758 756 189 756 758 189 758 759 189 759 760 190 760 761 190 761 762 190 762 760 190 760 762 190 762 763 190 763 764 191 764 765 191 765 766 191 766 764 191 764 766 191 766 767 191 767 768 192 768 769 192 769 770 192 770 768 192 768 770 192 770 771 192 771 772 193 772 773 193 773 774 193 774 772 193 772 774 193 774 775 193 775 776 194 776 777 194 777 778 194 778 776 194 776 778 194 778 779 194 779 780 195 780 781 195 781 782 195 782 780 195 780 782 195 782 783 195 783 784 196 784 785 196 785 786 196 786 784 196 784 786 196 786 787 196 787 788 197 788 789 197 789 790 197 790 788 197 788 790 197 790 791 197 791 792 198 792 793 198 793 794 198 794 792 198 792 794 198 794 795 198 795 796 199 796 797 199 797 798 199 798 796 199 796 798 199 798 799 199 799 800 200 800 801 200 801 802 200 802 800 200 800 802 200 802 803 200 803 804 201 804 805 201 805 806 201 806 804 201 804 806 201 806 807 201 807 808 202 808 809 202 809 810 202 810 808 202 808 810 202 810 811 202 811 812 203 812 813 203 813 814 203 814 812 203 812 814 203 814 815 203 815 816 204 816 817 204 817 818 204 818 816 204 816 818 204 818 819 204 819 820 205 820 821 205 821 822 205 822 820 205 820 822 205 822 823 205 823 824 206 824 825 206 825 826 206 826 824 206 824 826 206 826 827 206 827 828 207 828 829 207 829 830 207 830 828 207 828 830 207 830 831 207 831 832 208 832 833 208 833 834 208 834 832 208 832 834 208 834 835 208 835 836 209 836 837 209 837 838 209 838 836 209 836 838 209 838 839 209 839 840 210 840 841 210 841 842 210 842 840 210 840 842 210 842 843 210 843 844 211 844 845 211 845 846 211 846 844 211 844 846 211 846 847 211 847 848 212 848 849 212 849 850 212 850 848 212 848 850 212 850 851 212 851 852 213 852 853 213 853 854 213 854 852 213 852 854 213 854 855 213 855 856 214 856 857 214 857 858 214 858 856 214 856 858 214 858 859 214 859 860 215 860 861 215 861 862 215 862 860 215 860 862 215 862 863 215 863 864 216 864 865 216 865 866 216 866 864 216 864 866 216 866 867 216 867 868 217 868 869 217 869 870 217 870 868 217 868 870 217 870 871 217 871 872 218 872 873 218 873 874 218 874 872 218 872 874 218 874 875 218 875 876 219 876 877 219 877 878 219 878 876 219 876 878 219 878 879 219 879 880 220 880 881 220 881 882 220 882 880 220 880 882 220 882 883 220 883 884 221 884 885 221 885 886 221 886 884 221 884 886 221 886 887 221 887 888 222 888 889 222 889 890 222 890 888 222 888 890 222 890 891 222 891 892 223 892 893 223 893 894 223 894 892 223 892 894 223 894 895 223 895 896 224 896 897 224 897 898 224 898 896 224 896 898 224 898 899 224 899 900 225 900 901 225 901 902 225 902 900 225 900 902 225 902 903 225 903 904 226 904 905 226 905 906 226 906 904 226 904 906 226 906 907 226 907 908 227 908 909 227 909 910 227 910 908 227 908 910 227 910 911 227 911 912 228 912 913 228 913 914 228 914 912 228 912 914 228 914 915 228 915 916 229 916 917 229 917 918 229 918 916 229 916 918 229 918 919 229 919 920 230 920 921 230 921 922 230 922 920 230 920 922 230 922 923 230 923 924 231 924 925 231 925 926 231 926 924 231 924 926 231 926 927 231 927 928 232 928 929 232 929 930 232 930 928 232 928 930 232 930 931 232 931 932 233 932 933 233 933 934 233 934 932 233 932 934 233 934 935 233 935 936 234 936 937 234 937 938 234 938 936 234 936 938 234 938 939 234 939 940 235 940 941 235 941 942 235 942 940 235 940 942 235 942 943 235 943 944 236 944 945 236 945 946 236 946 944 236 944 946 236 946 947 236 947 948 237 948 949 237 949 950 237 950 948 237 948 950 237 950 951 237 951 952 238 952 953 238 953 954 238 954 952 238 952 954 238 954 955 238 955 956 239 956 957 239 957 958 239 958 956 239 956 958 239 958 959 239 959 960 240 960 961 240 961 962 240 962 960 240 960 962 240 962 963 240 963 964 241 964 965 241 965 966 241 966 964 241 964 966 241 966 967 241 967 968 242 968 969 242 969 970 242 970 968 242 968 970 242 970 971 242 971 972 243 972 973 243 973 974 243 974 972 243 972 974 243 974 975 243 975 976 244 976 977 244 977 978 244 978 976 244 976 978 244 978 979 244 979 980 245 980 981 245 981 982 245 982 980 245 980 982 245 982 983 245 983 984 246 984 985 246 985 986 246 986 984 246 984 986 246 986 987 246 987 988 247 988 989 247 989 990 247 990 988 247 988 990 247 990 991 247 991 992 248 992 993 248 993 994 248 994 992 248 992 994 248 994 995 248 995 996 249 996 997 249 997 998 249 998 996 249 996 998 249 998 999 249 999 1000 250 1000 1001 250 1001 1002 250 1002 1000 250 1000 1002 250 1002 1003 250 1003 1004 251 1004 1005 251 1005 1006 251 1006 1004 251 1004 1006 251 1006 1007 251 1007 1008 252 1008 1009 252 1009 1010 252 1010 1008 252 1008 1010 252 1010 1011 252 1011 1012 253 1012 1013 253 1013 1014 253 1014 1012 253 1012 1014 253 1014 1015 253 1015 1016 254 1016 1017 254 1017 1018 254 1018 1016 254 1016 1018 254 1018 1019 254 1019 1020 255 1020 1021 255 1021 1022 255 1022 1020 255 1020 1022 255 1022 1023 255 1023 1024 256 1024 1025 256 1025 1026 256 1026 1024 256 1024 1026 256 1026 1027 256 1027 1028 257 1028 1029 257 1029 1030 257 1030 1028 257 1028 1030 257 1030 1031 257 1031 1032 258 1032 1033 258 1033 1034 258 1034 1032 258 1032 1034 258 1034 1035 258 1035 1036 259 1036 1037 259 1037 1038 259 1038 1036 259 1036 1038 259 1038 1039 259 1039 1040 260 1040 1041 260 1041 1042 260 1042 1040 260 1040 1042 260 1042 1043 260 1043 1044 261 1044 1045 261 1045 1046 261 1046 1044 261 1044 1046 261 1046 1047 261 1047 1048 262 1048 1049 262 1049 1050 262 1050 1048 262 1048 1050 262 1050 1051 262 1051 1052 263 1052 1053 263 1053 1054 263 1054 1052 263 1052 1054 263 1054 1055 263 1055 1056 264 1056 1057 264 1057 1058 264 1058 1056 264 1056 1058 264 1058 1059 264 1059 1060 265 1060 1061 265 1061 1062 265 1062 1060 265 1060 1062 265 1062 1063 265 1063 1064 266 1064 1065 266 1065 1066 266 1066 1064 266 1064 1066 266 1066 1067 266 1067 1068 267 1068 1069 267 1069 1070 267 1070 1068 267 1068 1070 267 1070 1071 267 1071 1072 268 1072 1073 268 1073 1074 268 1074 1072 268 1072 1074 268 1074 1075 268 1075 1076 269 1076 1077 269 1077 1078 269 1078 1076 269 1076 1078 269 1078 1079 269 1079 1080 270 1080 1081 270 1081 1082 270 1082 1080 270 1080 1082 270 1082 1083 270 1083 1084 271 1084 1085 271 1085 1086 271 1086 1084 271 1084 1086 271 1086 1087 271 1087 1088 272 1088 1089 272 1089 1090 272 1090 1088 272 1088 1090 272 1090 1091 272 1091 1092 273 1092 1093 273 1093 1094 273 1094 1092 273 1092 1094 273 1094 1095 273 1095 1096 274 1096 1097 274 1097 1098 274 1098 1096 274 1096 1098 274 1098 1099 274 1099 1100 275 1100 1101 275 1101 1102 275 1102 1100 275 1100 1102 275 1102 1103 275 1103 1104 276 1104 1105 276 1105 1106 276 1106 1104 276 1104 1106 276 1106 1107 276 1107 1108 277 1108 1109 277 1109 1110 277 1110 1108 277 1108 1110 277 1110 1111 277 1111 1112 278 1112 1113 278 1113 1114 278 1114 1112 278 1112 1114 278 1114 1115 278 1115 1116 279 1116 1117 279 1117 1118 279 1118 1116 279 1116 1118 279 1118 1119 279 1119 1120 280 1120 1121 280 1121 1122 280 1122 1120 280 1120 1122 280 1122 1123 280 1123 1124 281 1124 1125 281 1125 1126 281 1126 1124 281 1124 1126 281 1126 1127 281 1127 1128 282 1128 1129 282 1129 1130 282 1130 1128 282 1128 1130 282 1130 1131 282 1131 1132 283 1132 1133 283 1133 1134 283 1134 1132 283 1132 1134 283 1134 1135 283 1135 1136 284 1136 1137 284 1137 1138 284 1138 1136 284 1136 1138 284 1138 1139 284 1139 1140 285 1140 1141 285 1141 1142 285 1142 1140 285 1140 1142 285 1142 1143 285 1143 1144 286 1144 1145 286 1145 1146 286 1146 1144 286 1144 1146 286 1146 1147 286 1147 1148 287 1148 1149 287 1149 1150 287 1150 1148 287 1148 1150 287 1150 1151 287 1151 1152 288 1152 1153 288 1153 1154 288 1154 1152 288 1152 1154 288 1154 1155 288 1155 1156 289 1156 1157 289 1157 1158 289 1158 1156 289 1156 1158 289 1158 1159 289 1159 1160 290 1160 1161 290 1161 1162 290 1162 1160 290 1160 1162 290 1162 1163 290 1163 1164 291 1164 1165 291 1165 1166 291 1166 1164 291 1164 1166 291 1166 1167 291 1167 1168 292 1168 1169 292 1169 1170 292 1170 1168 292 1168 1170 292 1170 1171 292 1171 1172 293 1172 1173 293 1173 1174 293 1174 1172 293 1172 1174 293 1174 1175 293 1175 1176 294 1176 1177 294 1177 1178 294 1178 1176 294 1176 1178 294 1178 1179 294 1179 1180 295 1180 1181 295 1181 1182 295 1182 1180 295 1180 1182 295 1182 1183 295 1183 1184 296 1184 1185 296 1185 1186 296 1186 1184 296 1184 1186 296 1186 1187 296 1187 1188 297 1188 1189 297 1189 1190 297 1190 1188 297 1188 1190 297 1190 1191 297 1191 1192 298 1192 1193 298 1193 1194 298 1194 1192 298 1192 1194 298 1194 1195 298 1195 1196 299 1196 1197 299 1197 1198 299 1198 1196 299 1196 1198 299 1198 1199 299 1199 1200 300 1200 1201 300 1201 1202 300 1202 1200 300 1200 1202 300 1202 1203 300 1203 1204 301 1204 1205 301 1205 1206 301 1206 1204 301 1204 1206 301 1206 1207 301 1207 1208 302 1208 1209 302 1209 1210 302 1210 1208 302 1208 1210 302 1210 1211 302 1211 1212 303 1212 1213 303 1213 1214 303 1214 1212 303 1212 1214 303 1214 1215 303 1215 1216 304 1216 1217 304 1217 1218 304 1218 1216 304 1216 1218 304 1218 1219 304 1219 1220 305 1220 1221 305 1221 1222 305 1222 1220 305 1220 1222 305 1222 1223 305 1223 1224 306 1224 1225 306 1225 1226 306 1226 1224 306 1224 1226 306 1226 1227 306 1227 1228 307 1228 1229 307 1229 1230 307 1230 1228 307 1228 1230 307 1230 1231 307 1231 1232 308 1232 1233 308 1233 1234 308 1234 1232 308 1232 1234 308 1234 1235 308 1235 1236 309 1236 1237 309 1237 1238 309 1238 1236 309 1236 1238 309 1238 1239 309 1239 1240 310 1240 1241 310 1241 1242 310 1242 1240 310 1240 1242 310 1242 1243 310 1243 1244 311 1244 1245 311 1245 1246 311 1246 1244 311 1244 1246 311 1246 1247 311 1247 1248 312 1248 1249 312 1249 1250 312 1250 1248 312 1248 1250 312 1250 1251 312 1251 1252 313 1252 1253 313 1253 1254 313 1254 1252 313 1252 1254 313 1254 1255 313 1255 1256 314 1256 1257 314 1257 1258 314 1258 1256 314 1256 1258 314 1258 1259 314 1259 1260 315 1260 1261 315 1261 1262 315 1262 1260 315 1260 1262 315 1262 1263 315 1263 1264 316 1264 1265 316 1265 1266 316 1266 1264 316 1264 1266 316 1266 1267 316 1267 1268 317 1268 1269 317 1269 1270 317 1270 1268 317 1268 1270 317 1270 1271 317 1271 1272 318 1272 1273 318 1273 1274 318 1274 1272 318 1272 1274 318 1274 1275 318 1275 1276 319 1276 1277 319 1277 1278 319 1278 1276 319 1276 1278 319 1278 1279 319 1279 1280 320 1280 1281 320 1281 1282 320 1282 1280 320 1280 1282 320 1282 1283 320 1283 1284 321 1284 1285 321 1285 1286 321 1286 1284 321 1284 1286 321 1286 1287 321 1287 1288 322 1288 1289 322 1289 1290 322 1290 1288 322 1288 1290 322 1290 1291 322 1291 1292 323 1292 1293 323 1293 1294 323 1294 1292 323 1292 1294 323 1294 1295 323 1295 1296 324 1296 1297 324 1297 1298 324 1298 1296 324 1296 1298 324 1298 1299 324 1299 1300 325 1300 1301 325 1301 1302 325 1302 1300 325 1300 1302 325 1302 1303 325 1303 1304 326 1304 1305 326 1305 1306 326 1306 1304 326 1304 1306 326 1306 1307 326 1307 1308 327 1308 1309 327 1309 1310 327 1310 1308 327 1308 1310 327 1310 1311 327 1311 1312 328 1312 1313 328 1313 1314 328 1314 1312 328 1312 1314 328 1314 1315 328 1315 1316 329 1316 1317 329 1317 1318 329 1318 1316 329 1316 1318 329 1318 1319 329 1319 1320 330 1320 1321 330 1321 1322 330 1322 1320 330 1320 1322 330 1322 1323 330 1323 1324 331 1324 1325 331 1325 1326 331 1326 1324 331 1324 1326 331 1326 1327 331 1327 1328 332 1328 1329 332 1329 1330 332 1330 1328 332 1328 1330 332 1330 1331 332 1331 1332 333 1332 1333 333 1333 1334 333 1334 1332 333 1332 1334 333 1334 1335 333 1335 1336 334 1336 1337 334 1337 1338 334 1338 1336 334 1336 1338 334 1338 1339 334 1339 1340 335 1340 1341 335 1341 1342 335 1342 1340 335 1340 1342 335 1342 1343 335 1343 1344 336 1344 1345 336 1345 1346 336 1346 1344 336 1344 1346 336 1346 1347 336 1347 1348 337 1348 1349 337 1349 1350 337 1350 1348 337 1348 1350 337 1350 1351 337 1351 1352 338 1352 1353 338 1353 1354 338 1354 1352 338 1352 1354 338 1354 1355 338 1355 1356 339 1356 1357 339 1357 1358 339 1358 1356 339 1356 1358 339 1358 1359 339 1359 1360 340 1360 1361 340 1361 1362 340 1362 1360 340 1360 1362 340 1362 1363 340 1363 1364 341 1364 1365 341 1365 1366 341 1366 1364 341 1364 1366 341 1366 1367 341 1367 1368 342 1368 1369 342 1369 1370 342 1370 1368 342 1368 1370 342 1370 1371 342 1371 1372 343 1372 1373 343 1373 1374 343 1374 1372 343 1372 1374 343 1374 1375 343 1375 1376 344 1376 1377 344 1377 1378 344 1378 1376 344 1376 1378 344 1378 1379 344 1379 1380 345 1380 1381 345 1381 1382 345 1382 1380 345 1380 1382 345 1382 1383 345 1383 1384 346 1384 1385 346 1385 1386 346 1386 1384 346 1384 1386 346 1386 1387 346 1387 1388 347 1388 1389 347 1389 1390 347 1390 1388 347 1388 1390 347 1390 1391 347 1391 1392 348 1392 1393 348 1393 1394 348 1394 1392 348 1392 1394 348 1394 1395 348 1395 1396 349 1396 1397 349 1397 1398 349 1398 1396 349 1396 1398 349 1398 1399 349 1399 1400 350 1400 1401 350 1401 1402 350 1402 1400 350 1400 1402 350 1402 1403 350 1403 1404 351 1404 1405 351 1405 1406 351 1406 1404 351 1404 1406 351 1406 1407 351 1407 1408 352 1408 1409 352 1409 1410 352 1410 1408 352 1408 1410 352 1410 1411 352 1411 1412 353 1412 1413 353 1413 1414 353 1414 1412 353 1412 1414 353 1414 1415 353 1415 1416 354 1416 1417 354 1417 1418 354 1418 1416 354 1416 1418 354 1418 1419 354 1419 1420 355 1420 1421 355 1421 1422 355 1422 1420 355 1420 1422 355 1422 1423 355 1423 1424 356 1424 1425 356 1425 1426 356 1426 1424 356 1424 1426 356 1426 1427 356 1427 1428 357 1428 1429 357 1429 1430 357 1430 1428 357 1428 1430 357 1430 1431 357 1431 1432 358 1432 1433 358 1433 1434 358 1434 1432 358 1432 1434 358 1434 1435 358 1435 1436 359 1436 1437 359 1437 1438 359 1438 1436 359 1436 1438 359 1438 1439 359 1439 1440 360 1440 1441 360 1441 1442 360 1442 1440 360 1440 1442 360 1442 1443 360 1443 1444 361 1444 1445 361 1445 1446 361 1446 1444 361 1444 1446 361 1446 1447 361 1447 1448 362 1448 1449 362 1449 1450 362 1450 1448 362 1448 1450 362 1450 1451 362 1451 1452 363 1452 1453 363 1453 1454 363 1454 1452 363 1452 1454 363 1454 1455 363 1455 1456 364 1456 1457 364 1457 1458 364 1458 1456 364 1456 1458 364 1458 1459 364 1459 1460 365 1460 1461 365 1461 1462 365 1462 1460 365 1460 1462 365 1462 1463 365 1463 1464 366 1464 1465 366 1465 1466 366 1466 1464 366 1464 1466 366 1466 1467 366 1467 1468 367 1468 1469 367 1469 1470 367 1470 1468 367 1468 1470 367 1470 1471 367 1471 1472 368 1472 1473 368 1473 1474 368 1474 1472 368 1472 1474 368 1474 1475 368 1475 1476 369 1476 1477 369 1477 1478 369 1478 1476 369 1476 1478 369 1478 1479 369 1479 1480 370 1480 1481 370 1481 1482 370 1482 1480 370 1480 1482 370 1482 1483 370 1483</p></triangles><triangles material="glass-material" count="6"><input semantic="VERTEX" source="#m-vertices" offset="0"/><input semantic="NORMAL" source="#m-normals" offset="1"/><input semantic="TEXCOORD" source="#m-uv" offset="2" set="0"/><p>316 79 316 317 79 317 318 79 318 316 79 316 318 79 318 319 79 319 324 81 324 325 81 325 326 81 326 324 81 324 326 81 326 327 81 327 328 82 328 329 82 329 330 82 330 328 82 328 330 82 330 331 82 331</p></triangles><triangles material="floor-material" count="12"><input semantic="VERTEX" source="#m-vertices" offset="0"/><input semantic="NORMAL" source="#m-normals" offset="1"/><input semantic="TEXCOORD" source="#m-uv" offset="2" set="0"/><p>288 72 288 289 72 289 290 72 290 288 72 288 290 72 290 291 72 291 292 73 292 293 73 293 294 73 294 292 73 292 294 73 294 295 73 295 296 74 296 297 74 297 298 74 298 296 74 296 298 74 298 299 74 299 300 75 300 301 75 301 302 75 302 300 75 300 302 75 302 303 75 303 304 76 304 305 76 305 306 76 306 304 76 304 306 76 306 307 76 307 308 77 308 309 77 309 310 77 310 308 77 308 310 77 310 311 77 311</p></triangles><triangles material="logo-material" count="4"><input semantic="VERTEX" source="#m-vertices" offset="0"/><input semantic="NORMAL" source="#m-normals" offset="1"/><input semantic="TEXCOORD" source="#m-uv" offset="2" set="0"/><p>312 78 312 313 78 313 314 78 314 312 78 312 314 78 314 315 78 315 320 80 320 321 80 321 322 80 322 320 80 320 322 80 322 323 80 323</p></triangles>
  </mesh></geometry></library_geometries>
  <library_visual_scenes><visual_scene id="Scene" name="Scene">
    <node id="mesh" name="mesh"><instance_geometry url="#m-mesh"><bind_material><technique_common>
      <instance_material symbol="body-material" target="#body-material"><bind_vertex_input semantic="UVSET0" input_semantic="TEXCOORD" input_set="0"/></instance_material><instance_material symbol="cab-material" target="#cab-material"><bind_vertex_input semantic="UVSET0" input_semantic="TEXCOORD" input_set="0"/></instance_material><instance_material symbol="trim-material" target="#trim-material"><bind_vertex_input semantic="UVSET0" input_semantic="TEXCOORD" input_set="0"/></instance_material><instance_material symbol="tyre-material" target="#tyre-material"><bind_vertex_input semantic="UVSET0" input_semantic="TEXCOORD" input_set="0"/></instance_material><instance_material symbol="glass-material" target="#glass-material"><bind_vertex_input semantic="UVSET0" input_semantic="TEXCOORD" input_set="0"/></instance_material><instance_material symbol="floor-material" target="#floor-material"><bind_vertex_input semantic="UVSET0" input_semantic="TEXCOORD" input_set="0"/></instance_material><instance_material symbol="logo-material" target="#logo-material"><bind_vertex_input semantic="UVSET0" input_semantic="TEXCOORD" input_set="0"/></instance_material>
    </technique_common></bind_material></instance_geometry></node>
  </visual_scene></library_visual_scenes>
  <scene><instance_visual_scene url="#Scene"/></scene>
</COLLADA>
